Exo2-Regular.ufo
<glyph name="exclam" format="2">
  <advance width="273.42353"/>
  <unicode hex="0021"/>
  <outline>
    <contour>
      <point x="179" y="695" type="line"/>
      <point x="94" y="695" type="line"/>
      <point x="94" y="389" type="line"/>
      <point x="103" y="211" type="line"/>
      <point x="171" y="211" type="line"/>
      <point x="179" y="389" type="line"/>
    </contour>
    <contour>
      <point x="148" y="118" type="curve" smooth="yes"/>
      <point x="126" y="118" type="line" smooth="yes"/>
      <point x="103" y="118"/>
      <point x="95" y="110"/>
      <point x="95" y="86" type="curve" smooth="yes"/>
      <point x="95" y="32" type="line" smooth="yes"/>
      <point x="95" y="8"/>
      <point x="103" y="0"/>
      <point x="126" y="0" type="curve" smooth="yes"/>
      <point x="148" y="0" type="line" smooth="yes"/>
      <point x="171" y="0"/>
      <point x="180" y="8"/>
      <point x="180" y="32" type="curve" smooth="yes"/>
      <point x="180" y="86" type="line" smooth="yes"/>
      <point x="180" y="110"/>
      <point x="171" y="118"/>
    </contour>
  </outline>
</glyph>
<glyph name="quotedbl" format="2">
  <advance width="363"/>
  <unicode hex="0022"/>
  <outline>
    <contour>
      <point x="300" y="690" type="line"/>
      <point x="214" y="690" type="line"/>
      <point x="221" y="473" type="line"/>
      <point x="293" y="473" type="line"/>
    </contour>
    <contour>
      <point x="150" y="690" type="line"/>
      <point x="64" y="690" type="line"/>
      <point x="70" y="473" type="line"/>
      <point x="143" y="473" type="line"/>
    </contour>
  </outline>
</glyph>
<glyph name="numbersign" format="2">
  <advance width="684.50588"/>
  <unicode hex="0023"/>
  <outline>
    <contour>
      <point x="311" y="690" type="line"/>
      <point x="243" y="690" type="line"/>
      <point x="123" y="0" type="line"/>
      <point x="191" y="0" type="line"/>
    </contour>
    <contour>
      <point x="562" y="690" type="line"/>
      <point x="494" y="690" type="line"/>
      <point x="374" y="0" type="line"/>
      <point x="442" y="0" type="line"/>
    </contour>
    <contour>
      <point x="640" y="503" type="line"/>
      <point x="97" y="503" type="line"/>
      <point x="86" y="448" type="line"/>
      <point x="629" y="448" type="line"/>
    </contour>
    <contour>
      <point x="598" y="268" type="line"/>
      <point x="55" y="268" type="line"/>
      <point x="44" y="213" type="line"/>
      <point x="587" y="213" type="line"/>
    </contour>
  </outline>
</glyph>
<glyph name="dollar" format="2">
  <advance width="564.10588"/>
  <unicode hex="0024"/>
  <outline>
    <contour>
      <point x="281" y="702" type="curve" smooth="yes"/>
      <point x="128" y="702"/>
      <point x="57" y="681"/>
      <point x="57" y="520" type="curve" smooth="yes"/>
      <point x="57" y="415"/>
      <point x="94" y="353"/>
      <point x="194" y="328" type="curve" smooth="yes"/>
      <point x="336" y="292" type="line" smooth="yes"/>
      <point x="397" y="277"/>
      <point x="423" y="258"/>
      <point x="423" y="178" type="curve" smooth="yes"/>
      <point x="423" y="86"/>
      <point x="390" y="70"/>
      <point x="284" y="70" type="curve" smooth="yes"/>
      <point x="228" y="69"/>
      <point x="190" y="71"/>
      <point x="73" y="74" type="curve"/>
      <point x="67" y="7" type="line"/>
      <point x="161" y="-10"/>
      <point x="236" y="-12"/>
      <point x="281" y="-12" type="curve" smooth="yes"/>
      <point x="443" y="-12"/>
      <point x="513" y="17"/>
      <point x="513" y="176" type="curve" smooth="yes"/>
      <point x="513" y="283"/>
      <point x="479" y="344"/>
      <point x="373" y="370" type="curve" smooth="yes"/>
      <point x="234" y="405" type="line" smooth="yes"/>
      <point x="172" y="420"/>
      <point x="146" y="442"/>
      <point x="146" y="518" type="curve" smooth="yes"/>
      <point x="146" y="620"/>
      <point x="185" y="623"/>
      <point x="285" y="623" type="curve" smooth="yes"/>
      <point x="349" y="623"/>
      <point x="422" y="621"/>
      <point x="480" y="618" type="curve"/>
      <point x="486" y="682" type="line"/>
      <point x="417" y="697"/>
      <point x="346" y="701"/>
    </contour>
    <contour>
      <point x="261" y="353" type="line"/>
      <point x="224" y="-127" type="line"/>
      <point x="270" y="-127" type="line"/>
      <point x="306" y="351" type="line"/>
    </contour>
    <contour>
      <point x="345" y="799" type="line"/>
      <point x="300" y="799" type="line"/>
      <point x="266" y="353" type="line"/>
      <point x="312" y="351" type="line"/>
    </contour>
  </outline>
</glyph>
<glyph name="percent" format="2">
  <advance width="893.94118"/>
  <unicode hex="0025"/>
  <outline>
    <contour>
      <point x="207" y="703" type="curve" smooth="yes"/>
      <point x="88" y="703"/>
      <point x="47" y="645"/>
      <point x="47" y="498" type="curve" smooth="yes"/>
      <point x="47" y="352"/>
      <point x="88" y="293"/>
      <point x="207" y="293" type="curve" smooth="yes"/>
      <point x="327" y="293"/>
      <point x="368" y="352"/>
      <point x="368" y="498" type="curve" smooth="yes"/>
      <point x="368" y="645"/>
      <point x="327" y="703"/>
    </contour>
    <contour>
      <point x="207" y="649" type="curve" smooth="yes"/>
      <point x="280" y="649"/>
      <point x="302" y="609"/>
      <point x="302" y="498" type="curve" smooth="yes"/>
      <point x="302" y="386"/>
      <point x="280" y="347"/>
      <point x="207" y="347" type="curve" smooth="yes"/>
      <point x="135" y="347"/>
      <point x="112" y="386"/>
      <point x="112" y="498" type="curve" smooth="yes"/>
      <point x="112" y="609"/>
      <point x="135" y="649"/>
    </contour>
    <contour>
      <point x="699" y="690" type="line"/>
      <point x="639" y="690" type="line"/>
      <point x="192" y="0" type="line"/>
      <point x="252" y="0" type="line"/>
    </contour>
    <contour>
      <point x="686" y="400" type="curve" smooth="yes"/>
      <point x="567" y="400"/>
      <point x="526" y="341"/>
      <point x="526" y="196" type="curve" smooth="yes"/>
      <point x="526" y="49"/>
      <point x="567" y="-9"/>
      <point x="686" y="-9" type="curve" smooth="yes"/>
      <point x="805" y="-9"/>
      <point x="846" y="49"/>
      <point x="846" y="196" type="curve" smooth="yes"/>
      <point x="846" y="341"/>
      <point x="805" y="400"/>
    </contour>
    <contour>
      <point x="685" y="346" type="curve" smooth="yes"/>
      <point x="758" y="346"/>
      <point x="781" y="308"/>
      <point x="781" y="196" type="curve" smooth="yes"/>
      <point x="781" y="83"/>
      <point x="758" y="44"/>
      <point x="685" y="44" type="curve" smooth="yes"/>
      <point x="612" y="44"/>
      <point x="590" y="83"/>
      <point x="591" y="196" type="curve" smooth="yes"/>
      <point x="590" y="308"/>
      <point x="612" y="346"/>
    </contour>
  </outline>
</glyph>
<glyph name="ampersand" format="2">
  <advance width="768"/>
  <unicode hex="0026"/>
  <outline>
    <contour>
      <point x="344" y="701" type="curve" smooth="yes"/>
      <point x="159" y="701"/>
      <point x="82" y="681"/>
      <point x="82" y="521" type="curve" smooth="yes"/>
      <point x="82" y="421"/>
      <point x="113" y="368"/>
      <point x="197" y="360" type="curve"/>
      <point x="197" y="356" type="line"/>
      <point x="96" y="347"/>
      <point x="62" y="280"/>
      <point x="62" y="175" type="curve" smooth="yes"/>
      <point x="62" y="36"/>
      <point x="120" y="-11"/>
      <point x="265" y="-11" type="curve" smooth="yes"/>
      <point x="381" y="-11"/>
      <point x="447" y="17"/>
      <point x="510" y="95" type="curve"/>
      <point x="496" y="163" type="line"/>
      <point x="446" y="111"/>
      <point x="380" y="86"/>
      <point x="294" y="85" type="curve" smooth="yes"/>
      <point x="205" y="85"/>
      <point x="179" y="110"/>
      <point x="179" y="195" type="curve" smooth="yes"/>
      <point x="179" y="288"/>
      <point x="211" y="315"/>
      <point x="307" y="315" type="curve" smooth="yes"/>
      <point x="705" y="315" type="line"/>
      <point x="705" y="399" type="line"/>
      <point x="313" y="399" type="line" smooth="yes"/>
      <point x="224" y="399"/>
      <point x="195" y="421"/>
      <point x="195" y="505" type="curve" smooth="yes"/>
      <point x="195" y="596"/>
      <point x="230" y="610"/>
      <point x="341" y="610" type="curve" smooth="yes"/>
      <point x="392" y="610"/>
      <point x="462" y="609"/>
      <point x="491" y="607" type="curve"/>
      <point x="504" y="690" type="line"/>
      <point x="444" y="700"/>
      <point x="386" y="701"/>
    </contour>
    <contour>
      <point x="585" y="517" type="line"/>
      <point x="495" y="517" type="line"/>
      <point x="484" y="362" type="line"/>
      <point x="484" y="109" type="line" smooth="yes"/>
      <point x="484" y="34"/>
      <point x="529" y="-10"/>
      <point x="611" y="-10" type="curve" smooth="yes"/>
      <point x="639" y="-10"/>
      <point x="692" y="-5"/>
      <point x="724" y="5" type="curve"/>
      <point x="712" y="84" type="line"/>
      <point x="643" y="84" type="line" smooth="yes"/>
      <point x="599" y="84"/>
      <point x="585" y="99"/>
      <point x="585" y="144" type="curve" smooth="yes"/>
    </contour>
  </outline>
</glyph>
<glyph name="quotesingle" format="2">
  <advance width="209.48235"/>
  <unicode hex="0027"/>
  <outline>
    <contour>
      <point x="140" y="690" type="line"/>
      <point x="70" y="690" type="line"/>
      <point x="75" y="475" type="line"/>
      <point x="134" y="475" type="line"/>
    </contour>
  </outline>
</glyph>
<glyph name="parenleft" format="2">
  <advance width="361"/>
  <unicode hex="0028"/>
  <outline>
    <contour>
      <point x="321" y="790" type="line"/>
      <point x="133" y="723"/>
      <point x="48" y="573"/>
      <point x="48" y="312" type="curve" smooth="yes"/>
      <point x="48" y="53"/>
      <point x="133" y="-97"/>
      <point x="321" y="-165" type="curve"/>
      <point x="334" y="-116" type="line"/>
      <point x="206" y="-51"/>
      <point x="153" y="94"/>
      <point x="153" y="313" type="curve" smooth="yes"/>
      <point x="153" y="536"/>
      <point x="206" y="680"/>
      <point x="334" y="741" type="curve"/>
    </contour>
  </outline>
</glyph>
<glyph name="parenright" format="2">
  <advance width="361"/>
  <unicode hex="0029"/>
  <outline>
    <contour>
      <point x="40" y="790" type="curve"/>
      <point x="27" y="741" type="line"/>
      <point x="155" y="680"/>
      <point x="208" y="536"/>
      <point x="208" y="313" type="curve" smooth="yes"/>
      <point x="208" y="94"/>
      <point x="155" y="-51"/>
      <point x="27" y="-116" type="curve"/>
      <point x="40" y="-165" type="line"/>
      <point x="228" y="-97"/>
      <point x="313" y="53"/>
      <point x="313" y="312" type="curve" smooth="yes"/>
      <point x="313" y="573"/>
      <point x="228" y="723"/>
    </contour>
  </outline>
</glyph>
<glyph name="asterisk" format="2">
  <advance width="449"/>
  <unicode hex="002A"/>
  <outline>
    <contour>
      <point x="256" y="691" type="line"/>
      <point x="193" y="691" type="line"/>
      <point x="202" y="528" type="line"/>
      <point x="99" y="400" type="line"/>
      <point x="150" y="363" type="line"/>
      <point x="224" y="485" type="line"/>
      <point x="299" y="362" type="line"/>
      <point x="349" y="399" type="line"/>
      <point x="246" y="528" type="line"/>
    </contour>
    <contour>
      <point x="67" y="605" type="line"/>
      <point x="47" y="546" type="line"/>
      <point x="171" y="514" type="line"/>
      <point x="184" y="531" type="line"/>
      <point x="185" y="558" type="line"/>
    </contour>
    <contour>
      <point x="382" y="605" type="line"/>
      <point x="264" y="558" type="line"/>
      <point x="264" y="531" type="line"/>
      <point x="278" y="514" type="line"/>
      <point x="402" y="545" type="line"/>
    </contour>
  </outline>
</glyph>
<glyph name="plus" format="2">
  <advance width="550.81176"/>
  <unicode hex="002B"/>
  <outline>
    <contour>
      <point x="494" y="331" type="line"/>
      <point x="56" y="331" type="line"/>
      <point x="56" y="267" type="line"/>
      <point x="494" y="267" type="line"/>
    </contour>
    <contour>
      <point x="308" y="507" type="line"/>
      <point x="242" y="507" type="line"/>
      <point x="243" y="90" type="line"/>
      <point x="307" y="90" type="line"/>
    </contour>
  </outline>
</glyph>
<glyph name="comma" format="2">
  <advance width="227.69412"/>
  <unicode hex="002C"/>
  <outline>
    <contour>
      <point x="127" y="118" type="curve" smooth="yes"/>
      <point x="102" y="118" type="line" smooth="yes"/>
      <point x="80" y="118"/>
      <point x="70" y="110"/>
      <point x="69" y="86" type="curve" smooth="yes"/>
      <point x="69" y="28" type="line" smooth="yes"/>
      <point x="69" y="11"/>
      <point x="78" y="0"/>
      <point x="93" y="0" type="curve"/>
      <point x="93" y="-49"/>
      <point x="90" y="-79"/>
      <point x="83" y="-120" type="curve"/>
      <point x="123" y="-132" type="line"/>
      <point x="145" y="-87"/>
      <point x="157" y="-35"/>
      <point x="158" y="22" type="curve" smooth="yes"/>
      <point x="158" y="86" type="line" smooth="yes"/>
      <point x="158" y="110"/>
      <point x="151" y="118"/>
    </contour>
  </outline>
</glyph>
<glyph name="hyphen" format="2">
  <advance width="448.71765"/>
  <unicode hex="002D"/>
  <outline>
    <contour>
      <point x="377" y="285" type="line"/>
      <point x="72" y="285" type="line"/>
      <point x="72" y="220" type="line"/>
      <point x="377" y="220" type="line"/>
    </contour>
  </outline>
</glyph>
<glyph name="period" format="2">
  <advance width="228.61176"/>
  <unicode hex="002E"/>
  <outline>
    <contour>
      <point x="128" y="118" type="curve" smooth="yes"/>
      <point x="100" y="118" type="line" smooth="yes"/>
      <point x="77" y="118"/>
      <point x="68" y="110"/>
      <point x="68" y="86" type="curve" smooth="yes"/>
      <point x="68" y="32" type="line" smooth="yes"/>
      <point x="68" y="8"/>
      <point x="77" y="0"/>
      <point x="100" y="0" type="curve" smooth="yes"/>
      <point x="128" y="0" type="line" smooth="yes"/>
      <point x="152" y="0"/>
      <point x="160" y="8"/>
      <point x="160" y="32" type="curve" smooth="yes"/>
      <point x="160" y="86" type="line" smooth="yes"/>
      <point x="160" y="110"/>
      <point x="152" y="118"/>
    </contour>
  </outline>
</glyph>
<glyph name="slash" format="2">
  <advance width="517.34118"/>
  <unicode hex="002F"/>
  <outline>
    <contour>
      <point x="490" y="690" type="line"/>
      <point x="420" y="690" type="line"/>
      <point x="27" y="-66" type="line"/>
      <point x="97" y="-66" type="line"/>
    </contour>
  </outline>
</glyph>
<glyph name="zero" format="2">
  <advance width="602.96471"/>
  <unicode hex="0030"/>
  <outline>
    <contour>
      <point x="301" y="703" type="curve" smooth="yes"/>
      <point x="124" y="703"/>
      <point x="64" y="597"/>
      <point x="64" y="345" type="curve" smooth="yes"/>
      <point x="64" y="93"/>
      <point x="124" y="-13"/>
      <point x="301" y="-13" type="curve" smooth="yes"/>
      <point x="479" y="-13"/>
      <point x="539" y="93"/>
      <point x="539" y="345" type="curve" smooth="yes"/>
      <point x="539" y="597"/>
      <point x="479" y="703"/>
    </contour>
    <contour>
      <point x="301" y="626" type="curve" smooth="yes"/>
      <point x="416" y="626"/>
      <point x="453" y="549"/>
      <point x="453" y="345" type="curve" smooth="yes"/>
      <point x="453" y="141"/>
      <point x="416" y="64"/>
      <point x="301" y="64" type="curve" smooth="yes"/>
      <point x="186" y="64"/>
      <point x="150" y="141"/>
      <point x="150" y="345" type="curve" smooth="yes"/>
      <point x="150" y="549"/>
      <point x="186" y="626"/>
    </contour>
  </outline>
</glyph>
<glyph name="one" format="2">
  <advance width="398.42353"/>
  <unicode hex="0031"/>
  <outline>
    <contour>
      <point x="286" y="690" type="line"/>
      <point x="198" y="690" type="line"/>
      <point x="22" y="619" type="line"/>
      <point x="34" y="554" type="line"/>
      <point x="203" y="607" type="line"/>
      <point x="199" y="587"/>
      <point x="198" y="567"/>
      <point x="198" y="547" type="curve" smooth="yes"/>
      <point x="198" y="0" type="line"/>
      <point x="286" y="0" type="line"/>
    </contour>
  </outline>
</glyph>
<glyph name="two" format="2">
  <advance width="564"/>
  <unicode hex="0032"/>
  <outline>
    <contour>
      <point x="274" y="702" type="curve" smooth="yes"/>
      <point x="210" y="702"/>
      <point x="152" y="698"/>
      <point x="58" y="677" type="curve"/>
      <point x="64" y="590" type="line"/>
      <point x="151" y="602"/>
      <point x="198" y="604"/>
      <point x="263" y="604" type="curve" smooth="yes"/>
      <point x="336" y="604"/>
      <point x="376" y="597"/>
      <point x="378" y="541" type="curve" smooth="yes"/>
      <point x="380" y="481"/>
      <point x="339" y="415"/>
      <point x="254" y="324" type="curve" smooth="yes"/>
      <point x="69" y="117" type="line" smooth="yes"/>
      <point x="56" y="103"/>
      <point x="53" y="89"/>
      <point x="53" y="70" type="curve" smooth="yes"/>
      <point x="53" y="0" type="line"/>
      <point x="513" y="0" type="line"/>
      <point x="513" y="108" type="line"/>
      <point x="296" y="108" type="line" smooth="yes"/>
      <point x="262" y="108"/>
      <point x="221" y="107"/>
      <point x="187" y="103" type="curve"/>
      <point x="373" y="306" type="line" smooth="yes"/>
      <point x="464" y="406"/>
      <point x="490" y="465"/>
      <point x="490" y="549" type="curve" smooth="yes"/>
      <point x="490" y="676"/>
      <point x="407" y="702"/>
    </contour>
  </outline>
</glyph>
<glyph name="three" format="2">
  <advance width="556.37647"/>
  <unicode hex="0033"/>
  <outline>
    <contour>
      <point x="258" y="703" type="curve" smooth="yes"/>
      <point x="194" y="703"/>
      <point x="132" y="697"/>
      <point x="64" y="685" type="curve"/>
      <point x="71" y="617" type="line"/>
      <point x="117" y="621"/>
      <point x="181" y="625"/>
      <point x="246" y="625" type="curve" smooth="yes"/>
      <point x="352" y="625"/>
      <point x="385" y="610"/>
      <point x="387" y="523" type="curve" smooth="yes"/>
      <point x="387" y="459"/>
      <point x="376" y="398"/>
      <point x="266" y="397" type="curve" smooth="yes"/>
      <point x="138" y="397" type="line"/>
      <point x="138" y="328" type="line"/>
      <point x="266" y="328" type="line" smooth="yes"/>
      <point x="380" y="328"/>
      <point x="403" y="276"/>
      <point x="403" y="201" type="curve" smooth="yes"/>
      <point x="403" y="100"/>
      <point x="360" y="66"/>
      <point x="249" y="66" type="curve" smooth="yes"/>
      <point x="185" y="66"/>
      <point x="126" y="70"/>
      <point x="58" y="76" type="curve"/>
      <point x="52" y="5" type="line"/>
      <point x="122" y="-5"/>
      <point x="197" y="-13"/>
      <point x="271" y="-13" type="curve" smooth="yes"/>
      <point x="434" y="-13"/>
      <point x="492" y="52"/>
      <point x="490" y="192" type="curve" smooth="yes"/>
      <point x="488" y="287"/>
      <point x="460" y="350"/>
      <point x="370" y="365" type="curve"/>
      <point x="370" y="369" type="line"/>
      <point x="449" y="385"/>
      <point x="471" y="454"/>
      <point x="471" y="543" type="curve" smooth="yes"/>
      <point x="471" y="665"/>
      <point x="409" y="703"/>
    </contour>
  </outline>
</glyph>
<glyph name="four" format="2">
  <advance width="614.69412"/>
  <unicode hex="0034"/>
  <outline>
    <contour>
      <point x="330" y="690" type="line"/>
      <point x="243" y="690" type="line"/>
      <point x="47" y="276" type="line" smooth="yes"/>
      <point x="24" y="225"/>
      <point x="56" y="169"/>
      <point x="113" y="169" type="curve" smooth="yes"/>
      <point x="479" y="169" type="line"/>
      <point x="571" y="178" type="line"/>
      <point x="571" y="241" type="line"/>
      <point x="162" y="241" type="line" smooth="yes"/>
      <point x="139" y="241"/>
      <point x="125" y="255"/>
      <point x="137" y="282" type="curve" smooth="yes"/>
    </contour>
    <contour>
      <point x="482" y="558" type="line"/>
      <point x="414" y="558" type="line"/>
      <point x="399" y="444" type="line"/>
      <point x="399" y="0" type="line"/>
      <point x="482" y="0" type="line"/>
    </contour>
  </outline>
</glyph>
<glyph name="five" format="2">
  <advance width="540"/>
  <unicode hex="0035"/>
  <outline>
    <contour>
      <point x="468" y="690" type="line"/>
      <point x="91" y="690" type="line"/>
      <point x="75" y="394" type="line" smooth="yes"/>
      <point x="74" y="368"/>
      <point x="91" y="348"/>
      <point x="116" y="346" type="curve" smooth="yes"/>
      <point x="173" y="341" type="line" smooth="yes"/>
      <point x="329" y="326"/>
      <point x="382" y="322"/>
      <point x="379" y="208" type="curve" smooth="yes"/>
      <point x="377" y="126"/>
      <point x="354" y="87"/>
      <point x="234" y="87" type="curve" smooth="yes"/>
      <point x="188" y="87"/>
      <point x="121" y="93"/>
      <point x="59" y="103" type="curve"/>
      <point x="47" y="12" type="line"/>
      <point x="124" y="-4"/>
      <point x="203" y="-12"/>
      <point x="261" y="-12" type="curve" smooth="yes"/>
      <point x="450" y="-12"/>
      <point x="488" y="97"/>
      <point x="488" y="208" type="curve" smooth="yes"/>
      <point x="489" y="348"/>
      <point x="427" y="411"/>
      <point x="253" y="428" type="curve" smooth="yes"/>
      <point x="172" y="436" type="line"/>
      <point x="181" y="595" type="line"/>
      <point x="464" y="595" type="line"/>
    </contour>
  </outline>
</glyph>
<glyph name="six" format="2">
  <advance width="572.02353"/>
  <unicode hex="0036"/>
  <outline>
    <contour>
      <point x="334" y="702" type="curve" smooth="yes"/>
      <point x="152" y="702"/>
      <point x="66" y="652"/>
      <point x="66" y="328" type="curve" smooth="yes"/>
      <point x="66" y="67"/>
      <point x="104" y="-12"/>
      <point x="299" y="-12" type="curve" smooth="yes"/>
      <point x="485" y="-12"/>
      <point x="517" y="81"/>
      <point x="517" y="223" type="curve" smooth="yes"/>
      <point x="517" y="390"/>
      <point x="473" y="450"/>
      <point x="328" y="450" type="curve" smooth="yes"/>
      <point x="232" y="450"/>
      <point x="181" y="423"/>
      <point x="116" y="329" type="curve"/>
      <point x="120" y="285" type="line"/>
      <point x="196" y="359"/>
      <point x="238" y="379"/>
      <point x="305" y="379" type="curve" smooth="yes"/>
      <point x="407" y="379"/>
      <point x="433" y="336"/>
      <point x="433" y="223" type="curve" smooth="yes"/>
      <point x="433" y="120"/>
      <point x="418" y="63"/>
      <point x="300" y="63" type="curve" smooth="yes"/>
      <point x="164" y="63"/>
      <point x="153" y="124"/>
      <point x="153" y="325" type="curve" smooth="yes"/>
      <point x="153" y="587"/>
      <point x="197" y="627"/>
      <point x="334" y="627" type="curve" smooth="yes"/>
      <point x="394" y="627"/>
      <point x="421" y="627"/>
      <point x="465" y="623" type="curve"/>
      <point x="473" y="687" type="line"/>
      <point x="417" y="702"/>
      <point x="362" y="702"/>
    </contour>
  </outline>
</glyph>
<glyph name="seven" format="2">
  <advance width="512.29412"/>
  <unicode hex="0037"/>
  <outline>
    <contour>
      <point x="429" y="690" type="curve" smooth="yes"/>
      <point x="39" y="690" type="line"/>
      <point x="43" y="615" type="line"/>
      <point x="387" y="615" type="line"/>
      <point x="379" y="599"/>
      <point x="372" y="582"/>
      <point x="366" y="564" type="curve" smooth="yes"/>
      <point x="172" y="0" type="line"/>
      <point x="260" y="0" type="line"/>
      <point x="475" y="629" type="line" smooth="yes"/>
      <point x="487" y="667"/>
      <point x="470" y="690"/>
    </contour>
  </outline>
</glyph>
<glyph name="eight" format="2">
  <advance width="607.35294"/>
  <unicode hex="0038"/>
  <outline>
    <contour>
      <point x="304" y="700" type="curve" smooth="yes"/>
      <point x="129" y="700"/>
      <point x="84" y="644"/>
      <point x="84" y="518" type="curve" smooth="yes"/>
      <point x="84" y="428"/>
      <point x="113" y="368"/>
      <point x="183" y="360" type="curve"/>
      <point x="183" y="356" type="line"/>
      <point x="96" y="347"/>
      <point x="69" y="280"/>
      <point x="69" y="172" type="curve" smooth="yes"/>
      <point x="69" y="46"/>
      <point x="117" y="-10"/>
      <point x="304" y="-10" type="curve" smooth="yes"/>
      <point x="493" y="-10"/>
      <point x="538" y="46"/>
      <point x="538" y="172" type="curve" smooth="yes"/>
      <point x="538" y="280"/>
      <point x="512" y="347"/>
      <point x="425" y="356" type="curve"/>
      <point x="425" y="360" type="line"/>
      <point x="495" y="368"/>
      <point x="523" y="428"/>
      <point x="523" y="518" type="curve" smooth="yes"/>
      <point x="523" y="644"/>
      <point x="480" y="700"/>
    </contour>
    <contour>
      <point x="306" y="323" type="curve" smooth="yes"/>
      <point x="427" y="323"/>
      <point x="454" y="299"/>
      <point x="454" y="190" type="curve" smooth="yes"/>
      <point x="454" y="97"/>
      <point x="427" y="66"/>
      <point x="305" y="66" type="curve" smooth="yes"/>
      <point x="182" y="66"/>
      <point x="152" y="97"/>
      <point x="152" y="190" type="curve" smooth="yes"/>
      <point x="152" y="297"/>
      <point x="181" y="322"/>
    </contour>
    <contour>
      <point x="305" y="629" type="curve" smooth="yes"/>
      <point x="419" y="629"/>
      <point x="443" y="600"/>
      <point x="443" y="510" type="curve" smooth="yes"/>
      <point x="443" y="417"/>
      <point x="422" y="393"/>
      <point x="306" y="393" type="curve" smooth="yes"/>
      <point x="192" y="393"/>
      <point x="165" y="415"/>
      <point x="165" y="510" type="curve" smooth="yes"/>
      <point x="165" y="600"/>
      <point x="191" y="629"/>
    </contour>
  </outline>
</glyph>
<glyph name="nine" format="2">
  <advance width="575"/>
  <unicode hex="0039"/>
  <outline>
    <contour>
      <point x="278" y="702" type="curve" smooth="yes"/>
      <point x="111" y="702"/>
      <point x="50" y="625"/>
      <point x="51" y="461" type="curve" smooth="yes"/>
      <point x="51" y="337"/>
      <point x="95" y="236"/>
      <point x="238" y="236" type="curve" smooth="yes"/>
      <point x="334" y="236"/>
      <point x="383" y="263"/>
      <point x="448" y="359" type="curve"/>
      <point x="444" y="413" type="line"/>
      <point x="368" y="345"/>
      <point x="331" y="325"/>
      <point x="269" y="325" type="curve" smooth="yes"/>
      <point x="180" y="325"/>
      <point x="155" y="373"/>
      <point x="156" y="462" type="curve" smooth="yes"/>
      <point x="155" y="557"/>
      <point x="174" y="608"/>
      <point x="277" y="608" type="curve" smooth="yes"/>
      <point x="400" y="608"/>
      <point x="405" y="555"/>
      <point x="405" y="357" type="curve" smooth="yes"/>
      <point x="405" y="137"/>
      <point x="370" y="83"/>
      <point x="239" y="83" type="curve" smooth="yes"/>
      <point x="166" y="83"/>
      <point x="140" y="83"/>
      <point x="90" y="86" type="curve"/>
      <point x="82" y="4" type="line"/>
      <point x="147" y="-12"/>
      <point x="207" y="-12"/>
      <point x="240" y="-12" type="curve" smooth="yes"/>
      <point x="436" y="-12"/>
      <point x="511" y="47"/>
      <point x="512" y="353" type="curve" smooth="yes"/>
      <point x="512" y="620"/>
      <point x="481" y="702"/>
    </contour>
  </outline>
</glyph>
<glyph name="less" format="2">
  <advance width="530.05882"/>
  <unicode hex="003C"/>
  <outline>
    <contour>
      <point x="459" y="506" type="line"/>
      <point x="53" y="332" type="line"/>
      <point x="53" y="264" type="line"/>
      <point x="459" y="93" type="line"/>
      <point x="459" y="161" type="line"/>
      <point x="127" y="298" type="line"/>
      <point x="459" y="438" type="line"/>
    </contour>
  </outline>
</glyph>
<glyph name="equal" format="2">
  <advance width="585.35294"/>
  <unicode hex="003D"/>
  <outline>
    <contour>
      <point x="512" y="430" type="line"/>
      <point x="74" y="430" type="line"/>
      <point x="74" y="367" type="line"/>
      <point x="512" y="367" type="line"/>
    </contour>
    <contour>
      <point x="512" y="219" type="line"/>
      <point x="74" y="219" type="line"/>
      <point x="74" y="155" type="line"/>
      <point x="512" y="155" type="line"/>
    </contour>
  </outline>
</glyph>
<glyph name="greater" format="2">
  <advance width="526"/>
  <unicode hex="003E"/>
  <outline>
    <contour>
      <point x="66" y="512" type="line"/>
      <point x="66" y="427" type="line"/>
      <point x="385" y="299" type="line"/>
      <point x="66" y="173" type="line"/>
      <point x="66" y="88" type="line"/>
      <point x="477" y="257" type="line"/>
      <point x="477" y="341" type="line"/>
    </contour>
  </outline>
</glyph>
<glyph name="question" format="2">
  <advance width="504.81176"/>
  <unicode hex="003F"/>
  <outline>
    <contour>
      <point x="260" y="712" type="curve" smooth="yes"/>
      <point x="141" y="712"/>
      <point x="109" y="703"/>
      <point x="40" y="691" type="curve"/>
      <point x="45" y="630" type="line"/>
      <point x="112" y="636"/>
      <point x="143" y="640"/>
      <point x="242" y="640" type="curve" smooth="yes"/>
      <point x="334" y="640"/>
      <point x="374" y="609"/>
      <point x="372" y="542" type="curve" smooth="yes"/>
      <point x="369" y="432"/>
      <point x="204" y="396"/>
      <point x="207" y="211" type="curve"/>
      <point x="280" y="211" type="line"/>
      <point x="286" y="384"/>
      <point x="462" y="407"/>
      <point x="462" y="557" type="curve" smooth="yes"/>
      <point x="462" y="663"/>
      <point x="394" y="712"/>
    </contour>
    <contour>
      <point x="255" y="118" type="curve" smooth="yes"/>
      <point x="232" y="118" type="line" smooth="yes"/>
      <point x="209" y="118"/>
      <point x="201" y="110"/>
      <point x="201" y="86" type="curve" smooth="yes"/>
      <point x="201" y="32" type="line" smooth="yes"/>
      <point x="201" y="8"/>
      <point x="209" y="0"/>
      <point x="232" y="0" type="curve" smooth="yes"/>
      <point x="255" y="0" type="line" smooth="yes"/>
      <point x="278" y="0"/>
      <point x="286" y="8"/>
      <point x="286" y="32" type="curve" smooth="yes"/>
      <point x="286" y="86" type="line" smooth="yes"/>
      <point x="286" y="110"/>
      <point x="278" y="118"/>
    </contour>
  </outline>
</glyph>
<glyph name="at" format="2">
  <advance width="717.8"/>
  <unicode hex="0040"/>
  <outline>
    <contour>
      <point x="495" y="585" type="curve" smooth="yes"/>
      <point x="352" y="585" type="line" smooth="yes"/>
      <point x="103" y="583"/>
      <point x="75" y="546"/>
      <point x="75" y="266" type="curve" smooth="yes"/>
      <point x="75" y="-22"/>
      <point x="106" y="-60"/>
      <point x="386" y="-58" type="curve" smooth="yes"/>
      <point x="472" y="-58"/>
      <point x="558" y="-55"/>
      <point x="643" y="-50" type="curve"/>
      <point x="643" y="14" type="line"/>
      <point x="385" y="14" type="line" smooth="yes"/>
      <point x="180" y="14"/>
      <point x="156" y="21"/>
      <point x="156" y="266" type="curve" smooth="yes"/>
      <point x="156" y="503"/>
      <point x="179" y="514"/>
      <point x="352" y="514" type="curve" smooth="yes"/>
      <point x="480" y="514" type="line" smooth="yes"/>
      <point x="546" y="514"/>
      <point x="566" y="493"/>
      <point x="566" y="440" type="curve" smooth="yes"/>
      <point x="566" y="397" type="line"/>
      <point x="359" y="397" type="line" smooth="yes"/>
      <point x="283" y="397"/>
      <point x="244" y="358"/>
      <point x="244" y="294" type="curve" smooth="yes"/>
      <point x="244" y="243" type="line" smooth="yes"/>
      <point x="244" y="164"/>
      <point x="297" y="124"/>
      <point x="375" y="124" type="curve" smooth="yes"/>
      <point x="458" y="124"/>
      <point x="538" y="170"/>
      <point x="574" y="207" type="curve"/>
      <point x="582" y="132" type="line"/>
      <point x="646" y="132" type="line"/>
      <point x="646" y="443" type="line" smooth="yes"/>
      <point x="646" y="546"/>
      <point x="591" y="585"/>
    </contour>
    <contour>
      <point x="566" y="345" type="line"/>
      <point x="566" y="258" type="line"/>
      <point x="520" y="216"/>
      <point x="447" y="192"/>
      <point x="390" y="192" type="curve" smooth="yes"/>
      <point x="347" y="192"/>
      <point x="324" y="210"/>
      <point x="324" y="258" type="curve" smooth="yes"/>
      <point x="324" y="284" type="line" smooth="yes"/>
      <point x="324" y="323"/>
      <point x="341" y="339"/>
      <point x="388" y="341" type="curve" smooth="yes"/>
    </contour>
  </outline>
</glyph>
<glyph name="A" format="2">
  <advance width="621.96471"/>
  <unicode hex="0041"/>
  <anchor x="310" y="-12" name="bottom"/>
  <anchor x="612" y="0" name="ogonek"/>
  <anchor x="311" y="727" name="top"/>
  <outline>
    <contour>
      <point x="357" y="690" type="curve" smooth="yes"/>
      <point x="265" y="690" type="line" smooth="yes"/>
      <point x="249" y="690"/>
      <point x="236" y="681"/>
      <point x="232" y="666" type="curve" smooth="yes"/>
      <point x="10" y="0" type="line"/>
      <point x="101" y="0" type="line"/>
      <point x="280" y="566" type="line" smooth="yes"/>
      <point x="286" y="584"/>
      <point x="292" y="604"/>
      <point x="297" y="622" type="curve"/>
      <point x="325" y="622" type="line"/>
      <point x="330" y="604"/>
      <point x="336" y="584"/>
      <point x="342" y="566" type="curve" smooth="yes"/>
      <point x="521" y="0" type="line"/>
      <point x="612" y="0" type="line"/>
      <point x="390" y="666" type="line" smooth="yes"/>
      <point x="386" y="681"/>
      <point x="373" y="690"/>
    </contour>
    <contour>
      <point x="485" y="292" type="line"/>
      <point x="135" y="292" type="line"/>
      <point x="135" y="216" type="line"/>
      <point x="485" y="216" type="line"/>
    </contour>
  </outline>
</glyph>
<glyph name="B" format="2">
  <advance width="623"/>
  <unicode hex="0042"/>
  <outline>
    <contour>
      <point x="316" y="698" type="curve" smooth="yes"/>
      <point x="210" y="698"/>
      <point x="153" y="697"/>
      <point x="81" y="690" type="curve"/>
      <point x="95" y="601" type="line"/>
      <point x="141" y="605"/>
      <point x="209" y="604"/>
      <point x="311" y="604" type="curve" smooth="yes"/>
      <point x="409" y="604"/>
      <point x="442" y="585"/>
      <point x="442" y="504" type="curve" smooth="yes"/>
      <point x="442" y="421"/>
      <point x="412" y="400"/>
      <point x="323" y="400" type="curve" smooth="yes"/>
      <point x="94" y="400" type="line"/>
      <point x="94" y="315" type="line"/>
      <point x="324" y="315" type="line" smooth="yes"/>
      <point x="425" y="314"/>
      <point x="458" y="288"/>
      <point x="458" y="192" type="curve" smooth="yes"/>
      <point x="458" y="106"/>
      <point x="427" y="86"/>
      <point x="329" y="86" type="curve" smooth="yes"/>
      <point x="216" y="86"/>
      <point x="125" y="87"/>
      <point x="95" y="89" type="curve"/>
      <point x="81" y="0" type="line"/>
      <point x="162" y="-7"/>
      <point x="225" y="-8"/>
      <point x="347" y="-8" type="curve" smooth="yes"/>
      <point x="506" y="-8"/>
      <point x="570" y="30"/>
      <point x="570" y="172" type="curve" smooth="yes"/>
      <point x="570" y="282"/>
      <point x="535" y="347"/>
      <point x="432" y="356" type="curve"/>
      <point x="432" y="360" type="line"/>
      <point x="515" y="368"/>
      <point x="549" y="419"/>
      <point x="549" y="518" type="curve" smooth="yes"/>
      <point x="549" y="660"/>
      <point x="488" y="698"/>
    </contour>
    <contour>
      <point x="190" y="690" type="line"/>
      <point x="81" y="690" type="line"/>
      <point x="81" y="0" type="line"/>
      <point x="190" y="0" type="line"/>
    </contour>
  </outline>
</glyph>
<glyph name="D" format="2">
  <advance width="664.10588"/>
  <unicode hex="0044"/>
  <anchor x="323" y="-12" name="bottom"/>
  <anchor x="318" y="734" name="top"/>
  <outline>
    <contour>
      <point x="333" y="699" type="curve" smooth="yes"/>
      <point x="238" y="699"/>
      <point x="159" y="695"/>
      <point x="87" y="690" type="curve"/>
      <point x="125" y="620" type="line"/>
      <point x="187" y="621"/>
      <point x="250" y="623"/>
      <point x="333" y="623" type="curve" smooth="yes"/>
      <point x="465" y="623"/>
      <point x="510" y="554"/>
      <point x="510" y="345" type="curve" smooth="yes"/>
      <point x="510" y="136"/>
      <point x="465" y="68"/>
      <point x="333" y="68" type="curve" smooth="yes"/>
      <point x="249" y="68"/>
      <point x="181" y="70"/>
      <point x="125" y="72" type="curve"/>
      <point x="87" y="0" type="line"/>
      <point x="159" y="-5"/>
      <point x="238" y="-9"/>
      <point x="333" y="-9" type="curve" smooth="yes"/>
      <point x="531" y="-9"/>
      <point x="602" y="78"/>
      <point x="602" y="345" type="curve" smooth="yes"/>
      <point x="602" y="612"/>
      <point x="531" y="699"/>
    </contour>
    <contour>
      <point x="175" y="690" type="line"/>
      <point x="87" y="690" type="line"/>
      <point x="87" y="0" type="line"/>
      <point x="175" y="0" type="line"/>
    </contour>
  </outline>
</glyph>
<glyph name="E" format="2">
  <advance width="560.48235"/>
  <unicode hex="0045"/>
  <anchor x="300" y="0" name="bottom"/>
  <anchor x="510" y="5" name="ogonek"/>
  <anchor x="310" y="747" name="top"/>
  <outline>
    <contour>
      <point x="214" y="691" type="curve" smooth="yes"/>
      <point x="133" y="691"/>
      <point x="82" y="645"/>
      <point x="81" y="571" type="curve" smooth="yes"/>
      <point x="81" y="119" type="line" smooth="yes"/>
      <point x="82" y="45"/>
      <point x="133" y="-1"/>
      <point x="214" y="-1" type="curve" smooth="yes"/>
      <point x="313" y="-1"/>
      <point x="418" y="-1"/>
      <point x="510" y="5" type="curve"/>
      <point x="506" y="73" type="line"/>
      <point x="229" y="73" type="line" smooth="yes"/>
      <point x="188" y="73"/>
      <point x="169" y="93"/>
      <point x="169" y="140" type="curve" smooth="yes"/>
      <point x="169" y="550" type="line" smooth="yes"/>
      <point x="169" y="596"/>
      <point x="188" y="616"/>
      <point x="229" y="616" type="curve" smooth="yes"/>
      <point x="506" y="616" type="line"/>
      <point x="510" y="685" type="line"/>
      <point x="418" y="691"/>
      <point x="313" y="691"/>
    </contour>
    <contour>
      <point x="99" y="400" type="line"/>
      <point x="99" y="329" type="line"/>
      <point x="467" y="329" type="line"/>
      <point x="467" y="400" type="line"/>
    </contour>
  </outline>
</glyph>
<glyph name="F" format="2">
  <advance width="538.75294"/>
  <unicode hex="0046"/>
  <outline>
    <contour>
      <point x="218" y="691" type="curve" smooth="yes"/>
      <point x="137" y="691"/>
      <point x="85" y="646"/>
      <point x="85" y="567" type="curve" smooth="yes"/>
      <point x="85" y="0" type="line"/>
      <point x="173" y="0" type="line"/>
      <point x="173" y="550" type="line" smooth="yes"/>
      <point x="173" y="596"/>
      <point x="193" y="616"/>
      <point x="240" y="616" type="curve" smooth="yes"/>
      <point x="499" y="616" type="line"/>
      <point x="504" y="684" type="line"/>
      <point x="415" y="691"/>
      <point x="314" y="691"/>
    </contour>
    <contour>
      <point x="102" y="390" type="line"/>
      <point x="102" y="319" type="line"/>
      <point x="461" y="319" type="line"/>
      <point x="461" y="390" type="line"/>
    </contour>
  </outline>
</glyph>
<glyph name="G" format="2">
  <advance width="627.83529"/>
  <unicode hex="0047"/>
  <anchor x="329" y="-3" name="bottom"/>
  <anchor x="328" y="741" name="top"/>
  <outline>
    <contour>
      <point x="350" y="703" type="curve" smooth="yes"/>
      <point x="137" y="703"/>
      <point x="62" y="621"/>
      <point x="62" y="347" type="curve" smooth="yes"/>
      <point x="62" y="99"/>
      <point x="125" y="-13"/>
      <point x="280" y="-13" type="curve" smooth="yes"/>
      <point x="385" y="-13"/>
      <point x="461" y="43"/>
      <point x="498" y="86" type="curve"/>
      <point x="486" y="140" type="line"/>
      <point x="434" y="102"/>
      <point x="380" y="64"/>
      <point x="304" y="64" type="curve" smooth="yes"/>
      <point x="193" y="64"/>
      <point x="155" y="138"/>
      <point x="155" y="341" type="curve" smooth="yes"/>
      <point x="155" y="582"/>
      <point x="206" y="624"/>
      <point x="355" y="624" type="curve" smooth="yes"/>
      <point x="406" y="624"/>
      <point x="470" y="622"/>
      <point x="533" y="616" type="curve"/>
      <point x="542" y="682" type="line"/>
      <point x="483" y="697"/>
      <point x="420" y="703"/>
    </contour>
    <contour>
      <point x="560" y="399" type="line"/>
      <point x="474" y="399" type="line"/>
      <point x="474" y="122" type="line"/>
      <point x="482" y="102" type="line"/>
      <point x="496" y="0" type="line"/>
      <point x="560" y="0" type="line"/>
    </contour>
  </outline>
</glyph>
<glyph name="I" format="2">
  <advance width="273"/>
  <unicode hex="0049"/>
  <anchor x="133" y="0" name="bottom"/>
  <anchor x="179" y="0" name="ogonek"/>
  <anchor x="137" y="732" name="top"/>
  <outline>
    <contour>
      <point x="192" y="690" type="line"/>
      <point x="81" y="690" type="line"/>
      <point x="81" y="0" type="line"/>
      <point x="192" y="0" type="line"/>
    </contour>
  </outline>
</glyph>
<glyph name="J" format="2">
  <advance width="340.04706"/>
  <unicode hex="004A"/>
  <anchor x="208" y="0" name="bottom"/>
  <anchor x="212" y="736" name="top"/>
  <outline>
    <contour>
      <point x="256" y="690" type="line"/>
      <point x="168" y="690" type="line"/>
      <point x="168" y="142" type="line" smooth="yes"/>
      <point x="168" y="92"/>
      <point x="143" y="66"/>
      <point x="90" y="66" type="curve" smooth="yes"/>
      <point x="40" y="66" type="line"/>
      <point x="30" y="4" type="line"/>
      <point x="52" y="-4"/>
      <point x="96" y="-9"/>
      <point x="122" y="-9" type="curve" smooth="yes"/>
      <point x="209" y="-9"/>
      <point x="256" y="44"/>
      <point x="256" y="145" type="curve" smooth="yes"/>
    </contour>
  </outline>
</glyph>
<glyph name="K" format="2">
  <advance width="591.17647"/>
  <unicode hex="004B"/>
  <anchor x="295" y="0" name="bottom"/>
  <anchor x="298" y="721" name="top"/>
  <outline>
    <contour>
      <point x="558" y="690" type="line"/>
      <point x="462" y="690" type="line"/>
      <point x="228" y="361" type="line"/>
      <point x="473" y="0" type="line"/>
      <point x="572" y="0" type="line"/>
      <point x="362" y="310" type="line" smooth="yes"/>
      <point x="351" y="326"/>
      <point x="336" y="342"/>
      <point x="319" y="358" type="curve"/>
      <point x="319" y="360" type="line"/>
      <point x="335" y="376"/>
      <point x="345" y="386"/>
      <point x="357" y="404" type="curve" smooth="yes"/>
    </contour>
    <contour>
      <point x="174" y="690" type="line"/>
      <point x="87" y="690" type="line"/>
      <point x="87" y="0" type="line"/>
      <point x="174" y="0" type="line"/>
      <point x="174" y="251" type="line" smooth="yes"/>
      <point x="174" y="286"/>
      <point x="169" y="323"/>
      <point x="162" y="361" type="curve"/>
      <point x="170" y="400"/>
      <point x="174" y="434"/>
      <point x="174" y="474" type="curve" smooth="yes"/>
    </contour>
    <contour>
      <point x="276" y="395" type="line"/>
      <point x="143" y="395" type="line"/>
      <point x="143" y="324" type="line"/>
      <point x="276" y="324" type="line"/>
    </contour>
  </outline>
</glyph>
<glyph name="L" format="2">
  <advance width="513.56471"/>
  <unicode hex="004C"/>
  <anchor x="301" y="0" name="bottom"/>
  <anchor x="131" y="736" name="top"/>
  <outline>
    <contour>
      <point x="172" y="690" type="line"/>
      <point x="85" y="690" type="line"/>
      <point x="85" y="129" type="line" smooth="yes"/>
      <point x="85" y="54"/>
      <point x="123" y="-1"/>
      <point x="225" y="-1" type="curve" smooth="yes"/>
      <point x="314" y="-1"/>
      <point x="405" y="-1"/>
      <point x="492" y="6" type="curve"/>
      <point x="488" y="74" type="line"/>
      <point x="239" y="74" type="line" smooth="yes"/>
      <point x="193" y="74"/>
      <point x="172" y="94"/>
      <point x="172" y="140" type="curve" smooth="yes"/>
    </contour>
  </outline>
</glyph>
<glyph name="N" format="2">
  <advance width="704.77647"/>
  <unicode hex="004E"/>
  <anchor x="359" y="0" name="bottom"/>
  <anchor x="364" y="734" name="top"/>
  <outline>
    <contour>
      <point x="618" y="690" type="line"/>
      <point x="531" y="690" type="line"/>
      <point x="531" y="190" type="line" smooth="yes"/>
      <point x="531" y="155"/>
      <point x="532" y="121"/>
      <point x="534" y="85" type="curve"/>
      <point x="517" y="85" type="line"/>
      <point x="502" y="119"/>
      <point x="484" y="157"/>
      <point x="470" y="185" type="curve" smooth="yes"/>
      <point x="244" y="662" type="line" smooth="yes"/>
      <point x="236" y="681"/>
      <point x="225" y="690"/>
      <point x="205" y="690" type="curve" smooth="yes"/>
      <point x="122" y="690" type="line" smooth="yes"/>
      <point x="99" y="690"/>
      <point x="87" y="678"/>
      <point x="87" y="655" type="curve" smooth="yes"/>
      <point x="87" y="0" type="line"/>
      <point x="175" y="0" type="line"/>
      <point x="175" y="517" type="line" smooth="yes"/>
      <point x="175" y="547"/>
      <point x="174" y="578"/>
      <point x="171" y="608" type="curve"/>
      <point x="187" y="608" type="line"/>
      <point x="195" y="580"/>
      <point x="214" y="543"/>
      <point x="226" y="517" type="curve" smooth="yes"/>
      <point x="459" y="28" type="line" smooth="yes"/>
      <point x="467" y="9"/>
      <point x="478" y="0"/>
      <point x="498" y="0" type="curve" smooth="yes"/>
      <point x="584" y="0" type="line" smooth="yes"/>
      <point x="606" y="0"/>
      <point x="618" y="12"/>
      <point x="618" y="35" type="curve" smooth="yes"/>
    </contour>
  </outline>
</glyph>
<glyph name="R" format="2">
  <advance width="617.94118"/>
  <unicode hex="0052"/>
  <anchor x="315" y="0" name="bottom"/>
  <anchor x="303" y="734" name="top"/>
  <outline>
    <contour>
      <point x="325" y="699" type="curve" smooth="yes"/>
      <point x="214" y="699"/>
      <point x="162" y="698"/>
      <point x="87" y="690" type="curve"/>
      <point x="101" y="621" type="line"/>
      <point x="129" y="621"/>
      <point x="213" y="623"/>
      <point x="323" y="623" type="curve" smooth="yes"/>
      <point x="425" y="623"/>
      <point x="459" y="596"/>
      <point x="459" y="495" type="curve" smooth="yes"/>
      <point x="459" y="393"/>
      <point x="425" y="365"/>
      <point x="323" y="364" type="curve" smooth="yes"/>
      <point x="100" y="364" type="line"/>
      <point x="97" y="291" type="line"/>
      <point x="133" y="290"/>
      <point x="203" y="288"/>
      <point x="326" y="288" type="curve" smooth="yes"/>
      <point x="372" y="288"/>
      <point x="400" y="268"/>
      <point x="418" y="216" type="curve" smooth="yes"/>
      <point x="479" y="0" type="line"/>
      <point x="573" y="0" type="line"/>
      <point x="506" y="218" type="line" smooth="yes"/>
      <point x="491" y="276"/>
      <point x="455" y="308"/>
      <point x="421" y="317" type="curve"/>
      <point x="421" y="322" type="line"/>
      <point x="512" y="334"/>
      <point x="548" y="388"/>
      <point x="548" y="500" type="curve" smooth="yes"/>
      <point x="548" y="655"/>
      <point x="485" y="699"/>
    </contour>
    <contour>
      <point x="174" y="690" type="line"/>
      <point x="87" y="690" type="line"/>
      <point x="87" y="0" type="line"/>
      <point x="174" y="0" type="line"/>
    </contour>
  </outline>
</glyph>
<glyph name="T" format="2">
  <advance width="587"/>
  <unicode hex="0054"/>
  <anchor x="292" y="0" name="bottom"/>
  <anchor x="291" y="345" name="center"/>
  <anchor x="293" y="732" name="top"/>
  <outline>
    <contour>
      <point x="349" y="690" type="line"/>
      <point x="237" y="690" type="line"/>
      <point x="237" y="0" type="line"/>
      <point x="349" y="0" type="line"/>
    </contour>
    <contour>
      <point x="564" y="690" type="line"/>
      <point x="23" y="690" type="line"/>
      <point x="23" y="591" type="line"/>
      <point x="564" y="591" type="line"/>
    </contour>
  </outline>
</glyph>
<glyph name="U" format="2">
  <advance width="666.27059"/>
  <unicode hex="0055"/>
  <anchor x="331" y="0" name="bottom"/>
  <anchor x="374" y="-9" name="ogonek"/>
  <anchor x="334" y="734" name="top"/>
  <outline>
    <contour>
      <point x="584" y="690" type="line"/>
      <point x="496" y="690" type="line"/>
      <point x="496" y="264" type="line" smooth="yes"/>
      <point x="496" y="116"/>
      <point x="453" y="66"/>
      <point x="333" y="66" type="curve" smooth="yes"/>
      <point x="212" y="66"/>
      <point x="170" y="116"/>
      <point x="170" y="264" type="curve" smooth="yes"/>
      <point x="170" y="690" type="line"/>
      <point x="82" y="690" type="line"/>
      <point x="82" y="264" type="line" smooth="yes"/>
      <point x="82" y="64"/>
      <point x="150" y="-13"/>
      <point x="337" y="-13" type="curve" smooth="yes"/>
      <point x="518" y="-13"/>
      <point x="584" y="64"/>
      <point x="584" y="264" type="curve" smooth="yes"/>
    </contour>
  </outline>
</glyph>
<glyph name="V" format="2">
  <advance width="608.77647"/>
  <unicode hex="0056"/>
  <outline>
    <contour>
      <point x="592" y="690" type="line"/>
      <point x="501" y="690" type="line"/>
      <point x="339" y="144" type="line" smooth="yes"/>
      <point x="331" y="119"/>
      <point x="324" y="93"/>
      <point x="318" y="68" type="curve"/>
      <point x="291" y="68" type="line"/>
      <point x="285" y="93"/>
      <point x="278" y="118"/>
      <point x="271" y="143" type="curve" smooth="yes"/>
      <point x="108" y="690" type="line"/>
      <point x="17" y="690" type="line"/>
      <point x="226" y="25" type="line" smooth="yes"/>
      <point x="230" y="11"/>
      <point x="243" y="0"/>
      <point x="260" y="0" type="curve" smooth="yes"/>
      <point x="349" y="0" type="line" smooth="yes"/>
      <point x="365" y="0"/>
      <point x="378" y="11"/>
      <point x="383" y="25" type="curve" smooth="yes"/>
    </contour>
  </outline>
</glyph>
<glyph name="X" format="2">
  <advance width="611.23529"/>
  <unicode hex="0058"/>
  <outline>
    <contour>
      <point x="573" y="690" type="line"/>
      <point x="478" y="690" type="line"/>
      <point x="301" y="357" type="line"/>
      <point x="490" y="0" type="line"/>
      <point x="586" y="0" type="line"/>
      <point x="391" y="357" type="line"/>
    </contour>
    <contour>
      <point x="133" y="690" type="line"/>
      <point x="38" y="690" type="line"/>
      <point x="219" y="357" type="line"/>
      <point x="25" y="0" type="line"/>
      <point x="121" y="0" type="line"/>
      <point x="310" y="357" type="line"/>
    </contour>
    <contour>
      <point x="358" y="392" type="line"/>
      <point x="252" y="392" type="line"/>
      <point x="252" y="324" type="line"/>
      <point x="358" y="324" type="line"/>
    </contour>
  </outline>
</glyph>
<glyph name="Y" format="2">
  <advance width="568.71765"/>
  <unicode hex="0059"/>
  <anchor x="283" y="0" name="bottom"/>
  <anchor x="286" y="724" name="top"/>
  <outline>
    <contour>
      <point x="557" y="690" type="line"/>
      <point x="464" y="690" type="line"/>
      <point x="319" y="398" type="line" smooth="yes"/>
      <point x="308" y="374"/>
      <point x="297" y="346"/>
      <point x="288" y="321" type="curve"/>
      <point x="281" y="321" type="line"/>
      <point x="272" y="346"/>
      <point x="262" y="374"/>
      <point x="250" y="399" type="curve" smooth="yes"/>
      <point x="105" y="690" type="line"/>
      <point x="11" y="690" type="line"/>
      <point x="245" y="234" type="line"/>
      <point x="324" y="234" type="line"/>
    </contour>
    <contour>
      <point x="328" y="296" type="line"/>
      <point x="240" y="296" type="line"/>
      <point x="240" y="0" type="line"/>
      <point x="328" y="0" type="line"/>
    </contour>
  </outline>
</glyph>
<glyph name="Z" format="2">
  <advance width="566.02353"/>
  <unicode hex="005A"/>
  <anchor x="290" y="0" name="bottom"/>
  <anchor x="281" y="734" name="top"/>
  <outline>
    <contour>
      <point x="416" y="616" type="line"/>
      <point x="48" y="75" type="line"/>
      <point x="145" y="74" type="line"/>
      <point x="512" y="615" type="line"/>
    </contour>
    <contour>
      <point x="519" y="75" type="line"/>
      <point x="48" y="75" type="line"/>
      <point x="48" y="0" type="line"/>
      <point x="519" y="0" type="line"/>
    </contour>
    <contour>
      <point x="512" y="690" type="line"/>
      <point x="54" y="690" type="line"/>
      <point x="54" y="615" type="line"/>
      <point x="512" y="615" type="line"/>
    </contour>
  </outline>
</glyph>
<glyph name="bracketleft" format="2">
  <advance width="328.77647"/>
  <unicode hex="005B"/>
  <outline>
    <contour>
      <point x="288" y="768" type="line"/>
      <point x="145" y="768" type="line" smooth="yes"/>
      <point x="114" y="768"/>
      <point x="91" y="746"/>
      <point x="91" y="714" type="curve" smooth="yes"/>
      <point x="91" y="-111" type="line" smooth="yes"/>
      <point x="91" y="-149"/>
      <point x="114" y="-165"/>
      <point x="145" y="-165" type="curve" smooth="yes"/>
      <point x="288" y="-165" type="line"/>
      <point x="288" y="-109" type="line"/>
      <point x="186" y="-109" type="line" smooth="yes"/>
      <point x="178" y="-109"/>
      <point x="172" y="-102"/>
      <point x="172" y="-93" type="curve" smooth="yes"/>
      <point x="172" y="696" type="line" smooth="yes"/>
      <point x="172" y="705"/>
      <point x="178" y="712"/>
      <point x="186" y="712" type="curve" smooth="yes"/>
      <point x="288" y="712" type="line"/>
    </contour>
  </outline>
</glyph>
<glyph name="backslash" format="2">
  <advance width="527"/>
  <unicode hex="005C"/>
  <outline>
    <contour>
      <point x="111" y="690" type="line"/>
      <point x="23" y="690" type="line"/>
      <point x="416" y="-68" type="line"/>
      <point x="504" y="-68" type="line"/>
    </contour>
  </outline>
</glyph>
<glyph name="bracketright" format="2">
  <advance width="328.77647"/>
  <unicode hex="005D"/>
  <outline>
    <contour>
      <point x="183" y="768" type="curve" smooth="yes"/>
      <point x="41" y="768" type="line"/>
      <point x="41" y="712" type="line"/>
      <point x="142" y="712" type="line" smooth="yes"/>
      <point x="151" y="712"/>
      <point x="157" y="705"/>
      <point x="157" y="696" type="curve" smooth="yes"/>
      <point x="157" y="-93" type="line" smooth="yes"/>
      <point x="157" y="-102"/>
      <point x="151" y="-109"/>
      <point x="142" y="-109" type="curve" smooth="yes"/>
      <point x="41" y="-109" type="line"/>
      <point x="41" y="-165" type="line"/>
      <point x="183" y="-165" type="line" smooth="yes"/>
      <point x="215" y="-165"/>
      <point x="237" y="-143"/>
      <point x="237" y="-111" type="curve" smooth="yes"/>
      <point x="237" y="714" type="line" smooth="yes"/>
      <point x="237" y="746"/>
      <point x="215" y="768"/>
    </contour>
  </outline>
</glyph>
<glyph name="asciicircum" format="2">
  <advance width="426.28235"/>
  <unicode hex="005E"/>
  <outline>
    <contour>
      <point x="244" y="600" type="line"/>
      <point x="183" y="600" type="line"/>
      <point x="30" y="390" type="line"/>
      <point x="65" y="368" type="line"/>
      <point x="210" y="542" type="line"/>
      <point x="218" y="542" type="line"/>
      <point x="362" y="368" type="line"/>
      <point x="396" y="390" type="line"/>
    </contour>
  </outline>
</glyph>
<glyph name="underscore" format="2">
  <advance width="437.56471"/>
  <unicode hex="005F"/>
  <outline>
    <contour>
      <point x="438" y="0" type="line"/>
      <point x="0" y="0" type="line"/>
      <point x="0" y="-65" type="line"/>
      <point x="438" y="-65" type="line"/>
    </contour>
  </outline>
</glyph>
<glyph name="grave" format="2">
  <advance width="314.52605"/>
  <unicode hex="0060"/>
  <anchor x="200" y="544" name="_top"/>
  <outline>
    <contour>
      <point x="85" y="723" type="line"/>
      <point x="36" y="658" type="line"/>
      <point x="228" y="538" type="line"/>
      <point x="257" y="577" type="line"/>
    </contour>
  </outline>
</glyph>
<glyph name="a" format="2">
  <advance width="548.94118"/>
  <unicode hex="0061"/>
  <anchor x="263" y="-12" name="bottom"/>
  <anchor x="473" y="0" name="ogonek"/>
  <anchor x="274" y="554" name="top"/>
  <outline>
    <contour>
      <point x="308" y="499" type="curve" smooth="yes"/>
      <point x="235" y="499"/>
      <point x="140" y="488"/>
      <point x="73" y="477" type="curve"/>
      <point x="81" y="414" type="line"/>
      <point x="155" y="421"/>
      <point x="239" y="427"/>
      <point x="290" y="427" type="curve" smooth="yes"/>
      <point x="367" y="427"/>
      <point x="389" y="403"/>
      <point x="389" y="343" type="curve" smooth="yes"/>
      <point x="389" y="117" type="line"/>
      <point x="395" y="106" type="line"/>
      <point x="408" y="0" type="line"/>
      <point x="475" y="0" type="line"/>
      <point x="475" y="343" type="line" smooth="yes"/>
      <point x="475" y="461"/>
      <point x="416" y="499"/>
    </contour>
    <contour>
      <point x="435" y="300" type="line"/>
      <point x="186" y="300" type="line" smooth="yes"/>
      <point x="101" y="300"/>
      <point x="51" y="256"/>
      <point x="51" y="180" type="curve" smooth="yes"/>
      <point x="51" y="127" type="line" smooth="yes"/>
      <point x="51" y="39"/>
      <point x="110" y="-9"/>
      <point x="197" y="-9" type="curve" smooth="yes"/>
      <point x="303" y="-9"/>
      <point x="386" y="62"/>
      <point x="415" y="100" type="curve"/>
      <point x="415" y="163" type="line"/>
      <point x="355" y="95"/>
      <point x="270" y="63"/>
      <point x="214" y="64" type="curve" smooth="yes"/>
      <point x="161" y="64"/>
      <point x="138" y="86"/>
      <point x="138" y="137" type="curve" smooth="yes"/>
      <point x="138" y="168" type="line" smooth="yes"/>
      <point x="138" y="209"/>
      <point x="154" y="233"/>
      <point x="201" y="235" type="curve" smooth="yes"/>
      <point x="434" y="236" type="line"/>
    </contour>
  </outline>
</glyph>
<glyph name="b" format="2">
  <advance width="570.4"/>
  <unicode hex="0062"/>
  <outline>
    <contour>
      <point x="340" y="499" type="curve" smooth="yes"/>
      <point x="271" y="499"/>
      <point x="204" y="466"/>
      <point x="145" y="402" type="curve"/>
      <point x="151" y="345" type="line"/>
      <point x="213" y="394"/>
      <point x="257" y="425"/>
      <point x="310" y="425" type="curve" smooth="yes"/>
      <point x="404" y="425"/>
      <point x="427" y="379"/>
      <point x="428" y="245" type="curve" smooth="yes"/>
      <point x="427" y="107"/>
      <point x="392" y="61"/>
      <point x="298" y="60" type="curve" smooth="yes"/>
      <point x="251" y="59"/>
      <point x="197" y="65"/>
      <point x="144" y="81" type="curve"/>
      <point x="76" y="23" type="line"/>
      <point x="141" y="0"/>
      <point x="232" y="-12"/>
      <point x="300" y="-12" type="curve" smooth="yes"/>
      <point x="467" y="-12"/>
      <point x="516" y="78"/>
      <point x="516" y="245" type="curve" smooth="yes"/>
      <point x="516" y="428"/>
      <point x="460" y="499"/>
    </contour>
    <contour>
      <point x="161" y="700" type="line"/>
      <point x="76" y="700" type="line"/>
      <point x="76" y="23" type="line"/>
      <point x="161" y="19" type="line"/>
      <point x="160" y="394" type="line"/>
      <point x="152" y="408" type="line"/>
      <point x="160" y="444"/>
      <point x="161" y="476"/>
      <point x="161" y="518" type="curve" smooth="yes"/>
    </contour>
  </outline>
</glyph>
<glyph name="c" format="2">
  <advance width="488.94118"/>
  <unicode hex="0063"/>
  <anchor x="278" y="-12" name="bottom"/>
  <anchor x="268" y="554" name="top"/>
  <outline>
    <contour>
      <point x="286" y="499" type="curve" smooth="yes"/>
      <point x="117" y="499"/>
      <point x="54" y="432"/>
      <point x="54" y="244" type="curve" smooth="yes"/>
      <point x="54" y="56"/>
      <point x="117" y="-12"/>
      <point x="285" y="-12" type="curve" smooth="yes"/>
      <point x="342" y="-12"/>
      <point x="403" y="-4"/>
      <point x="452" y="13" type="curve"/>
      <point x="443" y="70" type="line"/>
      <point x="393" y="62"/>
      <point x="329" y="60"/>
      <point x="300" y="60" type="curve" smooth="yes"/>
      <point x="184" y="60"/>
      <point x="144" y="101"/>
      <point x="144" y="244" type="curve" smooth="yes"/>
      <point x="144" y="386"/>
      <point x="184" y="427"/>
      <point x="300" y="427" type="curve" smooth="yes"/>
      <point x="334" y="427"/>
      <point x="388" y="425"/>
      <point x="432" y="421" type="curve"/>
      <point x="443" y="476" type="line"/>
      <point x="395" y="494"/>
      <point x="329" y="499"/>
    </contour>
  </outline>
</glyph>
<glyph name="d" format="2">
  <advance width="572.67059"/>
  <unicode hex="0064"/>
  <anchor x="294" y="-12" name="bottom"/>
  <anchor x="451" y="706" name="top"/>
  <outline>
    <contour>
      <point x="240" y="499" type="curve" smooth="yes"/>
      <point x="115" y="499"/>
      <point x="56" y="435"/>
      <point x="56" y="245" type="curve" smooth="yes"/>
      <point x="56" y="75"/>
      <point x="104" y="-12"/>
      <point x="227" y="-12" type="curve" smooth="yes"/>
      <point x="306" y="-12"/>
      <point x="374" y="28"/>
      <point x="428" y="77" type="curve"/>
      <point x="420" y="137" type="line"/>
      <point x="347" y="84"/>
      <point x="312" y="62"/>
      <point x="255" y="62" type="curve" smooth="yes"/>
      <point x="176" y="62"/>
      <point x="143" y="102"/>
      <point x="143" y="246" type="curve" smooth="yes"/>
      <point x="143" y="390"/>
      <point x="176" y="425"/>
      <point x="260" y="425" type="curve" smooth="yes"/>
      <point x="314" y="425"/>
      <point x="357" y="413"/>
      <point x="420" y="395" type="curve"/>
      <point x="425" y="448" type="line"/>
      <point x="367" y="482"/>
      <point x="304" y="499"/>
    </contour>
    <contour>
      <point x="494" y="700" type="line"/>
      <point x="409" y="700" type="line"/>
      <point x="409" y="550" type="line" smooth="yes"/>
      <point x="409" y="511"/>
      <point x="410" y="478"/>
      <point x="415" y="441" type="curve"/>
      <point x="409" y="426" type="line"/>
      <point x="409" y="92" type="line"/>
      <point x="418" y="85" type="line"/>
      <point x="428" y="0" type="line"/>
      <point x="494" y="0" type="line"/>
    </contour>
  </outline>
</glyph>
<glyph name="e" format="2">
  <advance width="537.21176"/>
  <unicode hex="0065"/>
  <anchor x="270" y="-9" name="bottom"/>
  <anchor x="476" y="16" name="ogonek"/>
  <anchor x="281" y="554" name="top"/>
  <outline>
    <contour>
      <point x="278" y="499" type="curve" smooth="yes"/>
      <point x="121" y="499"/>
      <point x="54" y="436"/>
      <point x="54" y="245" type="curve" smooth="yes"/>
      <point x="54" y="58"/>
      <point x="119" y="-12"/>
      <point x="287" y="-12" type="curve" smooth="yes"/>
      <point x="343" y="-12"/>
      <point x="430" y="-4"/>
      <point x="476" y="15" type="curve"/>
      <point x="467" y="72" type="line"/>
      <point x="417" y="65"/>
      <point x="350" y="60"/>
      <point x="298" y="60" type="curve" smooth="yes"/>
      <point x="186" y="60"/>
      <point x="143" y="93"/>
      <point x="143" y="250" type="curve" smooth="yes"/>
      <point x="143" y="388"/>
      <point x="176" y="427"/>
      <point x="282" y="427" type="curve" smooth="yes"/>
      <point x="369" y="427"/>
      <point x="401" y="402"/>
      <point x="402" y="340" type="curve" smooth="yes"/>
      <point x="402" y="304"/>
      <point x="393" y="268"/>
      <point x="349" y="268" type="curve" smooth="yes"/>
      <point x="87" y="268" type="line"/>
      <point x="87" y="202" type="line"/>
      <point x="371" y="202" type="line" smooth="yes"/>
      <point x="452" y="202"/>
      <point x="488" y="253"/>
      <point x="487" y="340" type="curve" smooth="yes"/>
      <point x="487" y="445"/>
      <point x="425" y="499"/>
    </contour>
  </outline>
</glyph>
<glyph name="f" format="2">
  <advance width="380.25882"/>
  <unicode hex="0066"/>
  <outline>
    <contour>
      <point x="258" y="717" type="curve" smooth="yes"/>
      <point x="154" y="717"/>
      <point x="116" y="665"/>
      <point x="116" y="574" type="curve" smooth="yes"/>
      <point x="116" y="0" type="line"/>
      <point x="201" y="0" type="line"/>
      <point x="201" y="565" type="line" smooth="yes"/>
      <point x="201" y="624"/>
      <point x="224" y="647"/>
      <point x="288" y="647" type="curve" smooth="yes"/>
      <point x="388" y="647" type="line"/>
      <point x="395" y="710" type="line"/>
      <point x="357" y="715"/>
      <point x="290" y="717"/>
    </contour>
    <contour>
      <point x="357" y="487" type="line"/>
      <point x="121" y="487" type="line"/>
      <point x="28" y="482" type="line"/>
      <point x="28" y="420" type="line"/>
      <point x="357" y="420" type="line"/>
    </contour>
  </outline>
</glyph>
<glyph name="g" format="2">
  <advance width="558.12941"/>
  <unicode hex="0067"/>
  <anchor x="272" y="554" name="top"/>
  <outline>
    <contour>
      <point x="271" y="499" type="curve" smooth="yes"/>
      <point x="114" y="499"/>
      <point x="62" y="453"/>
      <point x="62" y="343" type="curve" smooth="yes"/>
      <point x="62" y="237"/>
      <point x="114" y="189"/>
      <point x="270" y="189" type="curve" smooth="yes"/>
      <point x="426" y="189"/>
      <point x="479" y="237"/>
      <point x="479" y="344" type="curve" smooth="yes"/>
      <point x="479" y="453"/>
      <point x="427" y="499"/>
    </contour>
    <contour>
      <point x="270" y="434" type="curve" smooth="yes"/>
      <point x="368" y="434"/>
      <point x="400" y="409"/>
      <point x="400" y="344" type="curve" smooth="yes"/>
      <point x="400" y="280"/>
      <point x="368" y="254"/>
      <point x="270" y="254" type="curve" smooth="yes"/>
      <point x="173" y="254"/>
      <point x="140" y="280"/>
      <point x="140" y="344" type="curve" smooth="yes"/>
      <point x="140" y="409"/>
      <point x="173" y="434"/>
    </contour>
    <contour>
      <point x="536" y="487" type="line"/>
      <point x="372" y="487" type="line"/>
      <point x="407" y="430" type="line"/>
      <point x="531" y="440" type="line"/>
    </contour>
    <contour>
      <point x="133" y="221" type="line"/>
      <point x="69" y="187"/>
      <point x="61" y="62"/>
      <point x="166" y="47" type="curve" smooth="yes"/>
      <point x="341" y="23" type="line" smooth="yes"/>
      <point x="410" y="12"/>
      <point x="425" y="2"/>
      <point x="425" y="-47" type="curve" smooth="yes"/>
      <point x="425" y="-114"/>
      <point x="393" y="-130"/>
      <point x="275" y="-130" type="curve" smooth="yes"/>
      <point x="156" y="-130"/>
      <point x="124" y="-116"/>
      <point x="124" y="-47" type="curve" smooth="yes"/>
      <point x="124" y="-2"/>
      <point x="143" y="23"/>
      <point x="184" y="53" type="curve" smooth="yes"/>
      <point x="233" y="90" type="line"/>
      <point x="194" y="104" type="line"/>
      <point x="134" y="71" type="line" smooth="yes"/>
      <point x="68" y="38"/>
      <point x="41" y="9"/>
      <point x="41" y="-54" type="curve" smooth="yes"/>
      <point x="41" y="-165"/>
      <point x="100" y="-202"/>
      <point x="276" y="-202" type="curve" smooth="yes"/>
      <point x="450" y="-202"/>
      <point x="508" y="-165"/>
      <point x="508" y="-51" type="curve" smooth="yes"/>
      <point x="508" y="30"/>
      <point x="477" y="72"/>
      <point x="385" y="86" type="curve" smooth="yes"/>
      <point x="203" y="115" type="line" smooth="yes"/>
      <point x="141" y="124"/>
      <point x="148" y="184"/>
      <point x="182" y="214" type="curve"/>
    </contour>
  </outline>
</glyph>
<glyph name="h" format="2">
  <advance width="580.67059"/>
  <unicode hex="0068"/>
  <anchor x="299" y="-9" name="bottom"/>
  <anchor x="291" y="240" name="center"/>
  <anchor x="120" y="706" name="top"/>
  <outline>
    <contour>
      <point x="374" y="499" type="curve" smooth="yes"/>
      <point x="300" y="499"/>
      <point x="226" y="463"/>
      <point x="150" y="406" type="curve"/>
      <point x="154" y="345" type="line"/>
      <point x="237" y="398"/>
      <point x="291" y="427"/>
      <point x="351" y="427" type="curve" smooth="yes"/>
      <point x="401" y="427"/>
      <point x="420" y="406"/>
      <point x="420" y="341" type="curve" smooth="yes"/>
      <point x="420" y="0" type="line"/>
      <point x="506" y="0" type="line"/>
      <point x="506" y="365" type="line" smooth="yes"/>
      <point x="506" y="453"/>
      <point x="460" y="499"/>
    </contour>
    <contour>
      <point x="163" y="700" type="line"/>
      <point x="78" y="700" type="line"/>
      <point x="78" y="0" type="line"/>
      <point x="163" y="0" type="line"/>
      <point x="163" y="379" type="line"/>
      <point x="154" y="394" type="line"/>
      <point x="161" y="423"/>
      <point x="164" y="463"/>
      <point x="164" y="507" type="curve" smooth="yes"/>
    </contour>
  </outline>
</glyph>
<glyph name="i" format="2">
  <advance width="259"/>
  <unicode hex="0069"/>
  <anchor x="131" y="-12" name="bottom"/>
  <anchor x="175" y="0" name="ogonek"/>
  <anchor x="131" y="553" name="top"/>
  <outline>
    <contour>
      <point x="183" y="489" type="line"/>
      <point x="76" y="489" type="line"/>
      <point x="76" y="0" type="line"/>
      <point x="183" y="0" type="line"/>
    </contour>
    <contour>
      <point x="155" y="699" type="curve" smooth="yes"/>
      <point x="104" y="699" type="line" smooth="yes"/>
      <point x="83" y="699"/>
      <point x="73" y="687"/>
      <point x="73" y="668" type="curve" smooth="yes"/>
      <point x="73" y="613" type="line" smooth="yes"/>
      <point x="73" y="592"/>
      <point x="83" y="582"/>
      <point x="104" y="582" type="curve" smooth="yes"/>
      <point x="155" y="582" type="line" smooth="yes"/>
      <point x="176" y="582"/>
      <point x="186" y="592"/>
      <point x="186" y="613" type="curve" smooth="yes"/>
      <point x="186" y="668" type="line" smooth="yes"/>
      <point x="186" y="687"/>
      <point x="176" y="699"/>
    </contour>
  </outline>
</glyph>
<glyph name="j" format="2">
  <advance width="249.90588"/>
  <unicode hex="006A"/>
  <outline>
    <contour>
      <point x="168" y="487" type="line"/>
      <point x="83" y="487" type="line"/>
      <point x="83" y="-12" type="line" smooth="yes"/>
      <point x="83" y="-75"/>
      <point x="65" y="-119"/>
      <point x="27" y="-166" type="curve"/>
      <point x="74" y="-203" type="line"/>
      <point x="132" y="-160"/>
      <point x="168" y="-90"/>
      <point x="168" y="-12" type="curve" smooth="yes"/>
    </contour>
    <contour>
      <point x="146" y="694" type="curve" smooth="yes"/>
      <point x="106" y="694" type="line"/>
      <point x="88" y="694"/>
      <point x="80" y="684"/>
      <point x="80" y="668" type="curve" smooth="yes"/>
      <point x="80" y="611" type="line"/>
      <point x="80" y="593"/>
      <point x="88" y="585"/>
      <point x="106" y="585" type="curve" smooth="yes"/>
      <point x="146" y="585" type="line"/>
      <point x="163" y="585"/>
      <point x="171" y="593"/>
      <point x="171" y="611" type="curve" smooth="yes"/>
      <point x="171" y="668" type="line"/>
      <point x="171" y="684"/>
      <point x="163" y="694"/>
    </contour>
  </outline>
</glyph>
<glyph name="k" format="2">
  <advance width="523"/>
  <unicode hex="006B"/>
  <guideline x="471" y="273" angle="90"/>
  <anchor x="266" y="0" name="bottom"/>
  <outline>
    <contour>
      <point x="495" y="489" type="line"/>
      <point x="371" y="489" type="line"/>
      <point x="204" y="280" type="line"/>
      <point x="387" y="0" type="line"/>
      <point x="511" y="0" type="line"/>
      <point x="353" y="229" type="line" smooth="yes"/>
      <point x="343" y="246"/>
      <point x="325" y="266"/>
      <point x="315" y="273" type="curve"/>
      <point x="315" y="275" type="line"/>
      <point x="325" y="282"/>
      <point x="343" y="298"/>
      <point x="353" y="313" type="curve" smooth="yes"/>
    </contour>
    <contour>
      <point x="180" y="700" type="line"/>
      <point x="72" y="700" type="line"/>
      <point x="72" y="0" type="line"/>
      <point x="180" y="0" type="line"/>
      <point x="180" y="162" type="line" smooth="yes"/>
      <point x="180" y="197"/>
      <point x="175" y="238"/>
      <point x="169" y="277" type="curve"/>
      <point x="177" y="317"/>
      <point x="181" y="354"/>
      <point x="181" y="397" type="curve" smooth="yes"/>
    </contour>
    <contour>
      <point x="257" y="313" type="line"/>
      <point x="144" y="313" type="line"/>
      <point x="144" y="237" type="line"/>
      <point x="257" y="237" type="line"/>
    </contour>
  </outline>
</glyph>
<glyph name="l" format="2">
  <advance width="307"/>
  <unicode hex="006C"/>
  <anchor x="188" y="-12" name="bottom"/>
  <anchor x="127" y="746" name="top"/>
  <outline>
    <contour>
      <point x="181" y="700" type="line"/>
      <point x="73" y="700" type="line"/>
      <point x="73" y="123" type="line" smooth="yes"/>
      <point x="73" y="37"/>
      <point x="122" y="-10"/>
      <point x="199" y="-10" type="curve" smooth="yes"/>
      <point x="225" y="-10"/>
      <point x="276" y="-5"/>
      <point x="297" y="5" type="curve"/>
      <point x="284" y="88" type="line"/>
      <point x="241" y="88" type="line" smooth="yes"/>
      <point x="201" y="88"/>
      <point x="180" y="108"/>
      <point x="180" y="148" type="curve" smooth="yes"/>
    </contour>
  </outline>
</glyph>
<glyph name="m" format="2">
  <advance width="875.62353"/>
  <unicode hex="006D"/>
  <anchor x="440" y="-9" name="bottom"/>
  <anchor x="450" y="558" name="top"/>
  <outline>
    <contour>
      <point x="671" y="499" type="curve" smooth="yes"/>
      <point x="603" y="499"/>
      <point x="537" y="468"/>
      <point x="467" y="405" type="curve"/>
      <point x="472" y="345" type="line"/>
      <point x="552" y="403"/>
      <point x="589" y="427"/>
      <point x="641" y="427" type="curve" smooth="yes"/>
      <point x="695" y="427"/>
      <point x="716" y="401"/>
      <point x="717" y="341" type="curve" smooth="yes"/>
      <point x="717" y="0" type="line"/>
      <point x="801" y="0" type="line"/>
      <point x="801" y="365" type="line" smooth="yes"/>
      <point x="801" y="453"/>
      <point x="755" y="499"/>
    </contour>
    <contour>
      <point x="148" y="487" type="line"/>
      <point x="78" y="487" type="line"/>
      <point x="78" y="0" type="line"/>
      <point x="163" y="0" type="line"/>
      <point x="163" y="379" type="line"/>
      <point x="154" y="394" type="line"/>
    </contour>
    <contour>
      <point x="352" y="499" type="curve" smooth="yes"/>
      <point x="282" y="499"/>
      <point x="217" y="467"/>
      <point x="147" y="405" type="curve"/>
      <point x="153" y="345" type="line"/>
      <point x="235" y="404"/>
      <point x="272" y="427"/>
      <point x="323" y="427" type="curve" smooth="yes"/>
      <point x="374" y="427"/>
      <point x="399" y="404"/>
      <point x="399" y="341" type="curve" smooth="yes"/>
      <point x="399" y="0" type="line"/>
      <point x="481" y="0" type="line"/>
      <point x="481" y="365" type="line" smooth="yes"/>
      <point x="480" y="454"/>
      <point x="435" y="499"/>
    </contour>
  </outline>
</glyph>
<glyph name="n" format="2">
  <advance width="580.94118"/>
  <unicode hex="006E"/>
  <anchor x="297" y="-9" name="bottom"/>
  <anchor x="303" y="554" name="top"/>
  <outline>
    <contour>
      <point x="374" y="499" type="curve" smooth="yes"/>
      <point x="300" y="499"/>
      <point x="226" y="465"/>
      <point x="150" y="406" type="curve"/>
      <point x="154" y="345" type="line"/>
      <point x="237" y="396"/>
      <point x="291" y="427"/>
      <point x="351" y="427" type="curve" smooth="yes"/>
      <point x="401" y="427"/>
      <point x="421" y="406"/>
      <point x="421" y="341" type="curve" smooth="yes"/>
      <point x="421" y="0" type="line"/>
      <point x="506" y="0" type="line"/>
      <point x="506" y="365" type="line" smooth="yes"/>
      <point x="506" y="453"/>
      <point x="460" y="499"/>
    </contour>
    <contour>
      <point x="150" y="487" type="line"/>
      <point x="78" y="487" type="line"/>
      <point x="78" y="0" type="line"/>
      <point x="163" y="0" type="line"/>
      <point x="163" y="379" type="line"/>
      <point x="157" y="394" type="line"/>
    </contour>
  </outline>
</glyph>
<glyph name="o" format="2">
  <advance width="568.02353"/>
  <unicode hex="006F"/>
  <anchor x="282" y="-9" name="bottom"/>
  <anchor x="326" y="2" name="ogonek"/>
  <anchor x="286" y="550" name="top"/>
  <outline>
    <contour>
      <point x="284" y="499" type="curve" smooth="yes"/>
      <point x="117" y="499"/>
      <point x="55" y="429"/>
      <point x="55" y="243" type="curve" smooth="yes"/>
      <point x="55" y="56"/>
      <point x="117" y="-13"/>
      <point x="284" y="-13" type="curve" smooth="yes"/>
      <point x="452" y="-13"/>
      <point x="513" y="56"/>
      <point x="513" y="243" type="curve" smooth="yes"/>
      <point x="513" y="429"/>
      <point x="452" y="499"/>
    </contour>
    <contour>
      <point x="284" y="427" type="curve" smooth="yes"/>
      <point x="390" y="427"/>
      <point x="425" y="385"/>
      <point x="425" y="243" type="curve" smooth="yes"/>
      <point x="425" y="101"/>
      <point x="390" y="59"/>
      <point x="284" y="59" type="curve" smooth="yes"/>
      <point x="178" y="59"/>
      <point x="144" y="101"/>
      <point x="144" y="243" type="curve" smooth="yes"/>
      <point x="144" y="385"/>
      <point x="178" y="427"/>
    </contour>
  </outline>
</glyph>
<glyph name="p" format="2">
  <advance width="587"/>
  <unicode hex="0070"/>
  <outline>
    <contour>
      <point x="372" y="502" type="curve" smooth="yes"/>
      <point x="298" y="502"/>
      <point x="210" y="464"/>
      <point x="163" y="409" type="curve"/>
      <point x="176" y="340" type="line"/>
      <point x="240" y="385"/>
      <point x="284" y="409"/>
      <point x="334" y="409" type="curve" smooth="yes"/>
      <point x="400" y="409"/>
      <point x="426" y="368"/>
      <point x="426" y="242" type="curve" smooth="yes"/>
      <point x="426" y="108"/>
      <point x="397" y="81"/>
      <point x="320" y="81" type="curve" smooth="yes"/>
      <point x="271" y="81"/>
      <point x="232" y="92"/>
      <point x="177" y="104" type="curve"/>
      <point x="170" y="40" type="line"/>
      <point x="223" y="4"/>
      <point x="286" y="-12"/>
      <point x="349" y="-12" type="curve" smooth="yes"/>
      <point x="473" y="-12"/>
      <point x="537" y="51"/>
      <point x="537" y="241" type="curve" smooth="yes"/>
      <point x="537" y="406"/>
      <point x="489" y="502"/>
    </contour>
    <contour>
      <point x="161" y="489" type="line"/>
      <point x="72" y="489" type="line"/>
      <point x="72" y="-197" type="line"/>
      <point x="179" y="-197" type="line"/>
      <point x="179" y="-64" type="line" smooth="yes"/>
      <point x="180" y="-24"/>
      <point x="179" y="12"/>
      <point x="175" y="51" type="curve"/>
      <point x="179" y="63" type="line"/>
      <point x="179" y="367" type="line"/>
      <point x="172" y="384" type="line"/>
    </contour>
  </outline>
</glyph>
<glyph name="q" format="2">
  <advance width="569.94118"/>
  <unicode hex="0071"/>
  <outline>
    <contour>
      <point x="274" y="499" type="curve" smooth="yes"/>
      <point x="104" y="499"/>
      <point x="55" y="411"/>
      <point x="55" y="242" type="curve" smooth="yes"/>
      <point x="55" y="65"/>
      <point x="109" y="-13"/>
      <point x="222" y="-13" type="curve" smooth="yes"/>
      <point x="298" y="-13"/>
      <point x="367" y="22"/>
      <point x="430" y="78" type="curve"/>
      <point x="419" y="134" type="line"/>
      <point x="355" y="90"/>
      <point x="311" y="62"/>
      <point x="250" y="62" type="curve" smooth="yes"/>
      <point x="165" y="62"/>
      <point x="142" y="117"/>
      <point x="142" y="236" type="curve" smooth="yes"/>
      <point x="142" y="385"/>
      <point x="177" y="425"/>
      <point x="273" y="427" type="curve" smooth="yes"/>
      <point x="316" y="428"/>
      <point x="373" y="422"/>
      <point x="425" y="406" type="curve"/>
      <point x="494" y="465" type="line"/>
      <point x="429" y="487"/>
      <point x="336" y="499"/>
    </contour>
    <contour>
      <point x="409" y="468" type="line"/>
      <point x="409" y="90" type="line"/>
      <point x="418" y="76" type="line"/>
      <point x="410" y="40"/>
      <point x="408" y="8"/>
      <point x="408" y="-34" type="curve" smooth="yes"/>
      <point x="409" y="-201" type="line"/>
      <point x="494" y="-201" type="line"/>
      <point x="494" y="465" type="line"/>
    </contour>
  </outline>
</glyph>
<glyph name="r" format="2">
  <advance width="400.50588"/>
  <unicode hex="0072"/>
  <anchor x="122" y="-9" name="bottom"/>
  <anchor x="220" y="554" name="top"/>
  <outline>
    <contour>
      <point x="144" y="487" type="line"/>
      <point x="78" y="487" type="line"/>
      <point x="78" y="0" type="line"/>
      <point x="163" y="0" type="line"/>
      <point x="163" y="379" type="line"/>
      <point x="155" y="394" type="line"/>
    </contour>
    <contour>
      <point x="383" y="499" type="line"/>
      <point x="361" y="499" type="line"/>
      <point x="293" y="499"/>
      <point x="219" y="464"/>
      <point x="147" y="405" type="curve"/>
      <point x="154" y="352" type="line"/>
      <point x="236" y="394"/>
      <point x="288" y="419"/>
      <point x="345" y="419" type="curve" smooth="yes"/>
      <point x="373" y="419" type="line"/>
    </contour>
  </outline>
</glyph>
<glyph name="s" format="2">
  <advance width="507.75294"/>
  <unicode hex="0073"/>
  <anchor x="249" y="-11" name="bottom"/>
  <anchor x="258" y="554" name="top"/>
  <outline>
    <contour>
      <point x="240" y="499" type="curve" smooth="yes"/>
      <point x="107" y="501"/>
      <point x="50" y="478"/>
      <point x="50" y="365" type="curve" smooth="yes"/>
      <point x="50" y="285"/>
      <point x="81" y="248"/>
      <point x="160" y="229" type="curve" smooth="yes"/>
      <point x="300" y="197" type="line" smooth="yes"/>
      <point x="347" y="186"/>
      <point x="377" y="177"/>
      <point x="377" y="129" type="curve" smooth="yes"/>
      <point x="377" y="71"/>
      <point x="343" y="61"/>
      <point x="234" y="61" type="curve" smooth="yes"/>
      <point x="171" y="60"/>
      <point x="114" y="62"/>
      <point x="66" y="65" type="curve"/>
      <point x="60" y="3" type="line"/>
      <point x="143" y="-10"/>
      <point x="216" y="-11"/>
      <point x="251" y="-11" type="curve" smooth="yes"/>
      <point x="392" y="-11"/>
      <point x="459" y="9"/>
      <point x="459" y="129" type="curve" smooth="yes"/>
      <point x="459" y="212"/>
      <point x="423" y="244"/>
      <point x="346" y="263" type="curve" smooth="yes"/>
      <point x="204" y="295" type="line" smooth="yes"/>
      <point x="157" y="306"/>
      <point x="133" y="314"/>
      <point x="133" y="365" type="curve" smooth="yes"/>
      <point x="133" y="426"/>
      <point x="163" y="428"/>
      <point x="253" y="427" type="curve" smooth="yes"/>
      <point x="314" y="427"/>
      <point x="377" y="424"/>
      <point x="438" y="422" type="curve"/>
      <point x="445" y="484" type="line"/>
      <point x="385" y="493"/>
      <point x="304" y="498"/>
    </contour>
  </outline>
</glyph>
<glyph name="t" format="2">
  <advance width="381.28235"/>
  <unicode hex="0074"/>
  <anchor x="247" y="-9" name="bottom"/>
  <anchor x="160" y="645" name="top"/>
  <outline>
    <contour>
      <point x="200" y="631" type="line"/>
      <point x="115" y="631" type="line"/>
      <point x="115" y="123" type="line" smooth="yes"/>
      <point x="115" y="38"/>
      <point x="158" y="-9"/>
      <point x="240" y="-9" type="curve" smooth="yes"/>
      <point x="264" y="-9"/>
      <point x="318" y="-5"/>
      <point x="350" y="4" type="curve"/>
      <point x="340" y="69" type="line"/>
      <point x="266" y="69" type="line" smooth="yes"/>
      <point x="218" y="69"/>
      <point x="200" y="87"/>
      <point x="200" y="134" type="curve" smooth="yes"/>
    </contour>
    <contour>
      <point x="355" y="487" type="line"/>
      <point x="123" y="487" type="line"/>
      <point x="27" y="482" type="line"/>
      <point x="27" y="420" type="line"/>
      <point x="355" y="420" type="line"/>
    </contour>
  </outline>
</glyph>
<glyph name="u" format="2">
  <advance width="570.21176"/>
  <unicode hex="0075"/>
  <anchor x="276" y="-11" name="bottom"/>
  <anchor x="494" y="0" name="ogonek"/>
  <anchor x="285" y="557" name="top"/>
  <outline>
    <contour>
      <point x="160" y="487" type="line"/>
      <point x="75" y="487" type="line"/>
      <point x="75" y="121" type="line" smooth="yes"/>
      <point x="75" y="33"/>
      <point x="120" y="-13"/>
      <point x="208" y="-13" type="curve" smooth="yes"/>
      <point x="281" y="-13"/>
      <point x="351" y="18"/>
      <point x="427" y="78" type="curve"/>
      <point x="416" y="137" type="line"/>
      <point x="340" y="87"/>
      <point x="291" y="61"/>
      <point x="237" y="61" type="curve" smooth="yes"/>
      <point x="181" y="61"/>
      <point x="159" y="83"/>
      <point x="160" y="145" type="curve" smooth="yes"/>
    </contour>
    <contour>
      <point x="492" y="487" type="line"/>
      <point x="407" y="487" type="line"/>
      <point x="407" y="107" type="line"/>
      <point x="416" y="92" type="line"/>
      <point x="424" y="0" type="line"/>
      <point x="492" y="0" type="line"/>
    </contour>
  </outline>
</glyph>
<glyph name="v" format="2">
  <advance width="529.61176"/>
  <unicode hex="0076"/>
  <outline>
    <contour>
      <point x="511" y="487" type="line"/>
      <point x="421" y="487" type="line"/>
      <point x="301" y="146" type="line" smooth="yes"/>
      <point x="291" y="118"/>
      <point x="281" y="89"/>
      <point x="271" y="61" type="curve"/>
      <point x="258" y="61" type="line"/>
      <point x="249" y="88"/>
      <point x="239" y="118"/>
      <point x="229" y="146" type="curve" smooth="yes"/>
      <point x="109" y="487" type="line"/>
      <point x="18" y="487" type="line"/>
      <point x="196" y="21" type="line" smooth="yes"/>
      <point x="201" y="8"/>
      <point x="212" y="0"/>
      <point x="226" y="0" type="curve" smooth="yes"/>
      <point x="303" y="0" type="line" smooth="yes"/>
      <point x="317" y="0"/>
      <point x="328" y="8"/>
      <point x="333" y="21" type="curve" smooth="yes"/>
    </contour>
  </outline>
</glyph>
<glyph name="w" format="2">
  <advance width="823.67059"/>
  <unicode hex="0077"/>
  <anchor x="413" y="554" name="top"/>
  <outline>
    <contour>
      <point x="799" y="487" type="line"/>
      <point x="711" y="487" type="line"/>
      <point x="610" y="128" type="line" smooth="yes"/>
      <point x="602" y="103"/>
      <point x="599" y="80"/>
      <point x="593" y="55" type="curve"/>
      <point x="580" y="55" type="line"/>
      <point x="575" y="80"/>
      <point x="568" y="104"/>
      <point x="563" y="128" type="curve" smooth="yes"/>
      <point x="483" y="459" type="line" smooth="yes"/>
      <point x="479" y="476"/>
      <point x="467" y="487"/>
      <point x="451" y="487" type="curve" smooth="yes"/>
      <point x="374" y="487" type="line" smooth="yes"/>
      <point x="357" y="487"/>
      <point x="345" y="476"/>
      <point x="342" y="460" type="curve" smooth="yes"/>
      <point x="261" y="128" type="line" smooth="yes"/>
      <point x="255" y="104"/>
      <point x="249" y="79"/>
      <point x="243" y="55" type="curve"/>
      <point x="230" y="55" type="line"/>
      <point x="226" y="79"/>
      <point x="221" y="104"/>
      <point x="214" y="128" type="curve" smooth="yes"/>
      <point x="113" y="487" type="line"/>
      <point x="25" y="487" type="line"/>
      <point x="167" y="24" type="line" smooth="yes"/>
      <point x="171" y="9"/>
      <point x="184" y="0"/>
      <point x="200" y="0" type="curve" smooth="yes"/>
      <point x="276" y="0" type="line" smooth="yes"/>
      <point x="293" y="0"/>
      <point x="306" y="11"/>
      <point x="310" y="27" type="curve" smooth="yes"/>
      <point x="389" y="358" type="line" smooth="yes"/>
      <point x="394" y="383"/>
      <point x="400" y="408"/>
      <point x="406" y="435" type="curve"/>
      <point x="418" y="435" type="line"/>
      <point x="424" y="408"/>
      <point x="428" y="383"/>
      <point x="434" y="358" type="curve" smooth="yes"/>
      <point x="514" y="27" type="line" smooth="yes"/>
      <point x="517" y="11"/>
      <point x="531" y="0"/>
      <point x="547" y="0" type="curve" smooth="yes"/>
      <point x="624" y="0" type="line" smooth="yes"/>
      <point x="640" y="0"/>
      <point x="653" y="9"/>
      <point x="657" y="24" type="curve" smooth="yes"/>
    </contour>
  </outline>
</glyph>
<glyph name="x" format="2">
  <advance width="537"/>
  <unicode hex="0078"/>
  <outline>
    <contour>
      <point x="507" y="489" type="line"/>
      <point x="392" y="489" type="line"/>
      <point x="253" y="252" type="line"/>
      <point x="403" y="0" type="line"/>
      <point x="519" y="0" type="line"/>
      <point x="363" y="252" type="line"/>
    </contour>
    <contour>
      <point x="145" y="489" type="line"/>
      <point x="30" y="489" type="line"/>
      <point x="174" y="252" type="line"/>
      <point x="18" y="0" type="line"/>
      <point x="134" y="0" type="line"/>
      <point x="284" y="252" type="line"/>
    </contour>
    <contour>
      <point x="331" y="295" type="line"/>
      <point x="207" y="295" type="line"/>
      <point x="207" y="212" type="line"/>
      <point x="331" y="212" type="line"/>
    </contour>
  </outline>
</glyph>
<glyph name="y" format="2">
  <advance width="528.61176"/>
  <unicode hex="0079"/>
  <anchor x="432" y="-11" name="bottom"/>
  <anchor x="267" y="554" name="top"/>
  <outline>
    <contour>
      <point x="510" y="487" type="line"/>
      <point x="418" y="487" type="line"/>
      <point x="291" y="124" type="line" smooth="yes"/>
      <point x="282" y="98"/>
      <point x="270" y="63"/>
      <point x="260" y="37" type="curve" smooth="yes"/>
      <point x="236" y="-21" type="line" smooth="yes"/>
      <point x="211" y="-82"/>
      <point x="173" y="-125"/>
      <point x="94" y="-150" type="curve"/>
      <point x="102" y="-206" type="line"/>
      <point x="223" y="-200"/>
      <point x="283" y="-113"/>
      <point x="315" y="-27" type="curve" smooth="yes"/>
    </contour>
    <contour>
      <point x="109" y="487" type="line"/>
      <point x="18" y="487" type="line"/>
      <point x="195" y="22" type="line" smooth="yes"/>
      <point x="199" y="8"/>
      <point x="211" y="0"/>
      <point x="225" y="0" type="curve" smooth="yes"/>
      <point x="251" y="0" type="line"/>
      <point x="279" y="65" type="line"/>
      <point x="256" y="65" type="line"/>
      <point x="252" y="85"/>
      <point x="245" y="104"/>
      <point x="238" y="124" type="curve" smooth="yes"/>
    </contour>
  </outline>
</glyph>
<glyph name="z" format="2">
  <advance width="514"/>
  <unicode hex="007A"/>
  <anchor x="260" y="-11" name="bottom"/>
  <anchor x="258" y="553" name="top"/>
  <outline>
    <contour>
      <point x="345" y="403" type="line"/>
      <point x="47" y="87" type="line"/>
      <point x="166" y="86" type="line"/>
      <point x="463" y="402" type="line"/>
    </contour>
    <contour>
      <point x="467" y="87" type="line"/>
      <point x="47" y="87" type="line"/>
      <point x="47" y="0" type="line"/>
      <point x="467" y="0" type="line"/>
    </contour>
    <contour>
      <point x="463" y="489" type="line"/>
      <point x="51" y="489" type="line"/>
      <point x="51" y="402" type="line"/>
      <point x="463" y="402" type="line"/>
    </contour>
  </outline>
</glyph>
<glyph name="braceleft" format="2">
  <advance width="319.15294"/>
  <unicode hex="007B"/>
  <outline>
    <contour>
      <point x="276" y="768" type="line"/>
      <point x="153" y="777"/>
      <point x="104" y="729"/>
      <point x="104" y="635" type="curve" smooth="yes"/>
      <point x="104" y="436" type="line" smooth="yes"/>
      <point x="104" y="374"/>
      <point x="94" y="374"/>
      <point x="46" y="359" type="curve"/>
      <point x="46" y="297" type="line"/>
      <point x="90" y="280"/>
      <point x="108" y="275"/>
      <point x="108" y="224" type="curve" smooth="yes"/>
      <point x="108" y="-32" type="line" smooth="yes"/>
      <point x="108" y="-126"/>
      <point x="157" y="-174"/>
      <point x="280" y="-165" type="curve"/>
      <point x="280" y="-111" type="line"/>
      <point x="210" y="-111"/>
      <point x="190" y="-87"/>
      <point x="190" y="-27" type="curve" smooth="yes"/>
      <point x="190" y="210" type="line" smooth="yes"/>
      <point x="189" y="280"/>
      <point x="170" y="305"/>
      <point x="97" y="328" type="curve"/>
      <point x="168" y="342"/>
      <point x="187" y="368"/>
      <point x="186" y="450" type="curve" smooth="yes"/>
      <point x="186" y="629" type="line" smooth="yes"/>
      <point x="186" y="690"/>
      <point x="206" y="714"/>
      <point x="276" y="714" type="curve"/>
    </contour>
  </outline>
</glyph>
<glyph name="braceright" format="2">
  <advance width="319.88235"/>
  <unicode hex="007D"/>
  <outline>
    <contour>
      <point x="44" y="768" type="curve"/>
      <point x="44" y="714" type="line"/>
      <point x="114" y="714"/>
      <point x="134" y="690"/>
      <point x="134" y="629" type="curve" smooth="yes"/>
      <point x="134" y="450" type="line" smooth="yes"/>
      <point x="133" y="368"/>
      <point x="152" y="342"/>
      <point x="223" y="328" type="curve"/>
      <point x="150" y="305"/>
      <point x="131" y="280"/>
      <point x="130" y="210" type="curve" smooth="yes"/>
      <point x="130" y="-27" type="line" smooth="yes"/>
      <point x="130" y="-87"/>
      <point x="110" y="-111"/>
      <point x="40" y="-111" type="curve"/>
      <point x="40" y="-165" type="line"/>
      <point x="163" y="-174"/>
      <point x="212" y="-126"/>
      <point x="212" y="-32" type="curve" smooth="yes"/>
      <point x="212" y="224" type="line" smooth="yes"/>
      <point x="212" y="275"/>
      <point x="229" y="280"/>
      <point x="274" y="297" type="curve"/>
      <point x="274" y="359" type="line"/>
      <point x="226" y="374"/>
      <point x="216" y="374"/>
      <point x="216" y="436" type="curve" smooth="yes"/>
      <point x="216" y="635" type="line" smooth="yes"/>
      <point x="216" y="729"/>
      <point x="167" y="777"/>
    </contour>
  </outline>
</glyph>
<glyph name="asciitilde" format="2">
  <advance width="524.97647"/>
  <unicode hex="007E"/>
  <outline>
    <contour>
      <point x="154" y="348" type="curve" smooth="yes"/>
      <point x="104" y="350"/>
      <point x="67" y="311"/>
      <point x="77" y="228" type="curve"/>
      <point x="121" y="228" type="line"/>
      <point x="121" y="270"/>
      <point x="130" y="288"/>
      <point x="166" y="284" type="curve" smooth="yes"/>
      <point x="225" y="278"/>
      <point x="293" y="229"/>
      <point x="372" y="225" type="curve" smooth="yes"/>
      <point x="424" y="222"/>
      <point x="458" y="263"/>
      <point x="449" y="343" type="curve"/>
      <point x="405" y="343" type="line"/>
      <point x="405" y="301"/>
      <point x="395" y="285"/>
      <point x="360" y="289" type="curve" smooth="yes"/>
      <point x="297" y="295"/>
      <point x="224" y="344"/>
    </contour>
  </outline>
</glyph>
<glyph name="exclamdown" format="2">
  <advance width="256.34118"/>
  <unicode hex="00A1"/>
  <outline>
    <contour>
      <point x="162" y="282" type="line"/>
      <point x="94" y="282" type="line"/>
      <point x="86" y="104" type="line"/>
      <point x="86" y="-196" type="line"/>
      <point x="171" y="-196" type="line"/>
      <point x="171" y="104" type="line"/>
    </contour>
    <contour>
      <point x="140" y="493" type="curve" smooth="yes"/>
      <point x="118" y="493" type="line" smooth="yes"/>
      <point x="95" y="493"/>
      <point x="86" y="485"/>
      <point x="86" y="461" type="curve" smooth="yes"/>
      <point x="86" y="406" type="line" smooth="yes"/>
      <point x="86" y="383"/>
      <point x="95" y="375"/>
      <point x="118" y="375" type="curve" smooth="yes"/>
      <point x="140" y="375" type="line" smooth="yes"/>
      <point x="163" y="375"/>
      <point x="171" y="383"/>
      <point x="171" y="406" type="curve" smooth="yes"/>
      <point x="171" y="461" type="line" smooth="yes"/>
      <point x="171" y="485"/>
      <point x="163" y="493"/>
    </contour>
  </outline>
</glyph>
<glyph name="cent" format="2">
  <advance width="507.64706"/>
  <unicode hex="00A2"/>
  <outline>
    <contour>
      <point x="285" y="605" type="curve" smooth="yes"/>
      <point x="117" y="605"/>
      <point x="54" y="536"/>
      <point x="54" y="349" type="curve" smooth="yes"/>
      <point x="54" y="161"/>
      <point x="116" y="94"/>
      <point x="285" y="94" type="curve" smooth="yes"/>
      <point x="341" y="94"/>
      <point x="402" y="102"/>
      <point x="451" y="119" type="curve"/>
      <point x="442" y="176" type="line"/>
      <point x="393" y="168"/>
      <point x="329" y="165"/>
      <point x="299" y="165" type="curve" smooth="yes"/>
      <point x="180" y="165"/>
      <point x="138" y="207"/>
      <point x="138" y="349" type="curve" smooth="yes"/>
      <point x="138" y="491"/>
      <point x="180" y="532"/>
      <point x="299" y="532" type="curve" smooth="yes"/>
      <point x="334" y="532"/>
      <point x="387" y="530"/>
      <point x="431" y="524" type="curve"/>
      <point x="442" y="581" type="line"/>
      <point x="394" y="599"/>
      <point x="328" y="605"/>
    </contour>
    <contour>
      <point x="296" y="133" type="line"/>
      <point x="251" y="133" type="line"/>
      <point x="238" y="0" type="line"/>
      <point x="283" y="0" type="line"/>
    </contour>
    <contour>
      <point x="332" y="557" type="line"/>
      <point x="286" y="557" type="line"/>
      <point x="251" y="131" type="line"/>
      <point x="297" y="131" type="line"/>
    </contour>
    <contour>
      <point x="345" y="690" type="line"/>
      <point x="299" y="690" type="line"/>
      <point x="287" y="555" type="line"/>
      <point x="332" y="555" type="line"/>
    </contour>
  </outline>
</glyph>
<glyph name="sterling" format="2">
  <advance width="573"/>
  <unicode hex="00A3"/>
  <outline>
    <contour>
      <point x="314" y="702" type="curve" smooth="yes"/>
      <point x="185" y="702"/>
      <point x="112" y="675"/>
      <point x="120" y="519" type="curve" smooth="yes"/>
      <point x="135" y="270" type="line" smooth="yes"/>
      <point x="140" y="193"/>
      <point x="127" y="126"/>
      <point x="58" y="95" type="curve"/>
      <point x="58" y="0" type="line"/>
      <point x="524" y="0" type="line"/>
      <point x="524" y="95" type="line"/>
      <point x="243" y="95" type="line" smooth="yes"/>
      <point x="220" y="95"/>
      <point x="197" y="95"/>
      <point x="174" y="90" type="curve"/>
      <point x="227" y="135"/>
      <point x="250" y="177"/>
      <point x="245" y="270" type="curve" smooth="yes"/>
      <point x="229" y="516" type="line" smooth="yes"/>
      <point x="224" y="589"/>
      <point x="249" y="606"/>
      <point x="320" y="606" type="curve" smooth="yes"/>
      <point x="424" y="606"/>
      <point x="447" y="605"/>
      <point x="496" y="603" type="curve"/>
      <point x="502" y="692" type="line"/>
      <point x="428" y="699"/>
      <point x="355" y="702"/>
    </contour>
    <contour>
      <point x="435" y="397" type="line"/>
      <point x="53" y="397" type="line"/>
      <point x="54" y="329" type="line"/>
      <point x="432" y="329" type="line"/>
    </contour>
  </outline>
</glyph>
<glyph name="currency" format="2">
  <advance width="591"/>
  <unicode hex="00A4"/>
  <outline>
    <contour>
      <point x="295" y="487" type="curve" smooth="yes"/>
      <point x="367" y="487"/>
      <point x="428" y="427"/>
      <point x="428" y="352" type="curve" smooth="yes"/>
      <point x="428" y="277"/>
      <point x="367" y="216"/>
      <point x="295" y="217" type="curve" smooth="yes"/>
      <point x="221" y="216"/>
      <point x="160" y="277"/>
      <point x="160" y="352" type="curve" smooth="yes"/>
      <point x="160" y="427"/>
      <point x="221" y="487"/>
    </contour>
    <contour>
      <point x="109" y="584" type="line"/>
      <point x="63" y="538" type="line"/>
      <point x="147" y="454" type="line"/>
      <point x="193" y="499" type="line"/>
    </contour>
    <contour>
      <point x="483" y="584" type="line"/>
      <point x="401" y="502" type="line"/>
      <point x="446" y="456" type="line"/>
      <point x="529" y="538" type="line"/>
    </contour>
    <contour>
      <point x="150" y="258" type="line"/>
      <point x="60" y="168" type="line"/>
      <point x="109" y="119" type="line"/>
      <point x="199" y="209" type="line"/>
    </contour>
    <contour>
      <point x="440" y="252" type="line"/>
      <point x="394" y="206" type="line"/>
      <point x="482" y="118" type="line"/>
      <point x="529" y="164" type="line"/>
    </contour>
    <contour>
      <point x="295" y="550" type="curve" smooth="yes"/>
      <point x="185" y="550"/>
      <point x="96" y="461"/>
      <point x="96" y="351" type="curve" smooth="yes"/>
      <point x="96" y="242"/>
      <point x="185" y="153"/>
      <point x="295" y="153" type="curve" smooth="yes"/>
      <point x="404" y="153"/>
      <point x="493" y="242"/>
      <point x="493" y="351" type="curve" smooth="yes"/>
      <point x="493" y="461"/>
      <point x="405" y="550"/>
    </contour>
  </outline>
</glyph>
<glyph name="yen" format="2">
  <advance width="618.04706"/>
  <unicode hex="00A5"/>
  <outline>
    <contour>
      <point x="582" y="690" type="line"/>
      <point x="490" y="690" type="line"/>
      <point x="346" y="414" type="line" smooth="yes"/>
      <point x="335" y="391"/>
      <point x="323" y="362"/>
      <point x="313" y="337" type="curve"/>
      <point x="306" y="337" type="line"/>
      <point x="295" y="362"/>
      <point x="285" y="391"/>
      <point x="272" y="415" type="curve" smooth="yes"/>
      <point x="127" y="690" type="line"/>
      <point x="36" y="690" type="line"/>
      <point x="269" y="255" type="line"/>
      <point x="349" y="255" type="line"/>
    </contour>
    <contour>
      <point x="353" y="317" type="line"/>
      <point x="265" y="317" type="line"/>
      <point x="265" y="0" type="line"/>
      <point x="353" y="0" type="line"/>
    </contour>
    <contour>
      <point x="531" y="210" type="line"/>
      <point x="91" y="210" type="line"/>
      <point x="92" y="159" type="line"/>
      <point x="531" y="159" type="line"/>
    </contour>
    <contour>
      <point x="531" y="323" type="line"/>
      <point x="91" y="323" type="line"/>
      <point x="92" y="271" type="line"/>
      <point x="531" y="271" type="line"/>
    </contour>
  </outline>
</glyph>
<glyph name="brokenbar" format="2">
  <advance width="248.4"/>
  <unicode hex="00A6"/>
  <outline>
    <contour>
      <point x="155" y="781" type="line"/>
      <point x="93" y="781" type="line"/>
      <point x="93" y="381" type="line"/>
      <point x="155" y="381" type="line"/>
    </contour>
    <contour>
      <point x="155" y="231" type="line"/>
      <point x="93" y="231" type="line"/>
      <point x="93" y="-169" type="line"/>
      <point x="155" y="-169" type="line"/>
    </contour>
  </outline>
</glyph>
<glyph name="section" format="2">
  <advance width="544.45882"/>
  <unicode hex="00A7"/>
  <outline>
    <contour>
      <point x="140" y="388" type="curve"/>
      <point x="78" y="388" type="line"/>
      <point x="56" y="277"/>
      <point x="69" y="206"/>
      <point x="166" y="154" type="curve" smooth="yes"/>
      <point x="328" y="64" type="line" smooth="yes"/>
      <point x="365" y="43"/>
      <point x="394" y="19"/>
      <point x="392" y="-29" type="curve" smooth="yes"/>
      <point x="391" y="-89"/>
      <point x="342" y="-90"/>
      <point x="265" y="-90" type="curve" smooth="yes"/>
      <point x="192" y="-89"/>
      <point x="142" y="-87"/>
      <point x="75" y="-83" type="curve"/>
      <point x="68" y="-150" type="line"/>
      <point x="142" y="-157"/>
      <point x="225" y="-161"/>
      <point x="286" y="-162" type="curve" smooth="yes"/>
      <point x="404" y="-162"/>
      <point x="483" y="-149"/>
      <point x="483" y="-32" type="curve" smooth="yes"/>
      <point x="483" y="50"/>
      <point x="443" y="88"/>
      <point x="382" y="124" type="curve" smooth="yes"/>
      <point x="209" y="222" type="line" smooth="yes"/>
      <point x="146" y="258"/>
      <point x="133" y="302"/>
    </contour>
    <contour>
      <point x="260" y="703" type="curve" smooth="yes"/>
      <point x="134" y="703"/>
      <point x="62" y="682"/>
      <point x="62" y="575" type="curve" smooth="yes"/>
      <point x="62" y="494"/>
      <point x="100" y="457"/>
      <point x="163" y="421" type="curve" smooth="yes"/>
      <point x="336" y="322" type="line" smooth="yes"/>
      <point x="398" y="286"/>
      <point x="412" y="239"/>
      <point x="405" y="154" type="curve"/>
      <point x="467" y="154" type="line"/>
      <point x="490" y="264"/>
      <point x="478" y="337"/>
      <point x="381" y="389" type="curve" smooth="yes"/>
      <point x="219" y="480" type="line" smooth="yes"/>
      <point x="180" y="502"/>
      <point x="152" y="525"/>
      <point x="153" y="573" type="curve" smooth="yes"/>
      <point x="154" y="629"/>
      <point x="204" y="631"/>
      <point x="282" y="630" type="curve" smooth="yes"/>
      <point x="376" y="630"/>
      <point x="412" y="629"/>
      <point x="471" y="625" type="curve"/>
      <point x="477" y="691" type="line"/>
      <point x="412" y="698"/>
      <point x="322" y="702"/>
    </contour>
  </outline>
</glyph>
<glyph name="dieresis" format="2">
  <advance width="415.553"/>
  <unicode hex="00A8"/>
  <anchor x="208.947" y="557.079" name="_top"/>
  <outline>
    <contour>
      <point x="315" y="700" type="curve" smooth="yes"/>
      <point x="280" y="700" type="line" smooth="yes"/>
      <point x="260" y="700"/>
      <point x="251" y="689"/>
      <point x="251" y="671" type="curve" smooth="yes"/>
      <point x="251" y="617" type="line" smooth="yes"/>
      <point x="251" y="597"/>
      <point x="260" y="588"/>
      <point x="280" y="588" type="curve" smooth="yes"/>
      <point x="315" y="588" type="line" smooth="yes"/>
      <point x="333" y="588"/>
      <point x="344" y="597"/>
      <point x="344" y="617" type="curve" smooth="yes"/>
      <point x="344" y="671" type="line" smooth="yes"/>
      <point x="344" y="689"/>
      <point x="333" y="700"/>
    </contour>
    <contour>
      <point x="138" y="700" type="curve" smooth="yes"/>
      <point x="102" y="700" type="line" smooth="yes"/>
      <point x="83" y="700"/>
      <point x="74" y="689"/>
      <point x="74" y="671" type="curve" smooth="yes"/>
      <point x="74" y="617" type="line" smooth="yes"/>
      <point x="74" y="597"/>
      <point x="83" y="588"/>
      <point x="102" y="588" type="curve" smooth="yes"/>
      <point x="138" y="588" type="line" smooth="yes"/>
      <point x="157" y="588"/>
      <point x="166" y="597"/>
      <point x="166" y="617" type="curve" smooth="yes"/>
      <point x="166" y="671" type="line" smooth="yes"/>
      <point x="166" y="689"/>
      <point x="157" y="700"/>
    </contour>
  </outline>
</glyph>
<glyph name="copyright" format="2">
  <advance width="836.11765"/>
  <unicode hex="00A9"/>
  <outline>
    <contour>
      <point x="418" y="703" type="curve" smooth="yes"/>
      <point x="219" y="703"/>
      <point x="59" y="553"/>
      <point x="59" y="345" type="curve" smooth="yes"/>
      <point x="59" y="137"/>
      <point x="219" y="-13"/>
      <point x="418" y="-13" type="curve" smooth="yes"/>
      <point x="618" y="-13"/>
      <point x="777" y="137"/>
      <point x="777" y="345" type="curve" smooth="yes"/>
      <point x="777" y="553"/>
      <point x="618" y="703"/>
    </contour>
    <contour>
      <point x="423" y="568" type="curve" smooth="yes"/>
      <point x="280" y="568"/>
      <point x="228" y="509"/>
      <point x="228" y="347" type="curve" smooth="yes"/>
      <point x="228" y="185"/>
      <point x="280" y="127"/>
      <point x="423" y="127" type="curve" smooth="yes"/>
      <point x="488" y="127"/>
      <point x="527" y="132"/>
      <point x="568" y="142" type="curve"/>
      <point x="562" y="191" type="line"/>
      <point x="521" y="186"/>
      <point x="484" y="185"/>
      <point x="422" y="185" type="curve" smooth="yes"/>
      <point x="326" y="185"/>
      <point x="295" y="225"/>
      <point x="295" y="347" type="curve" smooth="yes"/>
      <point x="295" y="470"/>
      <point x="326" y="509"/>
      <point x="422" y="509" type="curve" smooth="yes"/>
      <point x="479" y="509"/>
      <point x="507" y="508"/>
      <point x="550" y="506" type="curve"/>
      <point x="558" y="554" type="line"/>
      <point x="518" y="564"/>
      <point x="486" y="568"/>
    </contour>
    <contour>
      <point x="418" y="657" type="curve" smooth="yes"/>
      <point x="590" y="657"/>
      <point x="730" y="525"/>
      <point x="730" y="345" type="curve" smooth="yes"/>
      <point x="730" y="165"/>
      <point x="590" y="33"/>
      <point x="418" y="33" type="curve" smooth="yes"/>
      <point x="247" y="33"/>
      <point x="106" y="165"/>
      <point x="106" y="345" type="curve" smooth="yes"/>
      <point x="106" y="525"/>
      <point x="247" y="657"/>
    </contour>
  </outline>
</glyph>
<glyph name="ordfeminine" format="2">
  <advance width="440"/>
  <unicode hex="00AA"/>
  <outline>
    <contour>
      <point x="252" y="610" type="curve" smooth="yes"/>
      <point x="190" y="610"/>
      <point x="122" y="602"/>
      <point x="74" y="595" type="curve"/>
      <point x="82" y="536" type="line"/>
      <point x="135" y="539"/>
      <point x="191" y="543"/>
      <point x="235" y="543" type="curve" smooth="yes"/>
      <point x="279" y="543"/>
      <point x="293" y="526"/>
      <point x="293" y="497" type="curve" smooth="yes"/>
      <point x="293" y="354" type="line"/>
      <point x="298" y="345" type="line"/>
      <point x="309" y="273" type="line"/>
      <point x="373" y="273" type="line"/>
      <point x="373" y="496" type="line" smooth="yes"/>
      <point x="373" y="582"/>
      <point x="329" y="610"/>
    </contour>
    <contour>
      <point x="339" y="474" type="line"/>
      <point x="155" y="474" type="line" smooth="yes"/>
      <point x="94" y="474"/>
      <point x="58" y="443"/>
      <point x="58" y="392" type="curve" smooth="yes"/>
      <point x="58" y="355" type="line" smooth="yes"/>
      <point x="58" y="297"/>
      <point x="100" y="266"/>
      <point x="160" y="266" type="curve" smooth="yes"/>
      <point x="241" y="266"/>
      <point x="297" y="324"/>
      <point x="317" y="354" type="curve"/>
      <point x="317" y="399" type="line"/>
      <point x="287" y="367"/>
      <point x="230" y="334"/>
      <point x="186" y="334" type="curve" smooth="yes"/>
      <point x="153" y="334"/>
      <point x="136" y="342"/>
      <point x="136" y="373" type="curve" smooth="yes"/>
      <point x="136" y="384" type="line" smooth="yes"/>
      <point x="136" y="405"/>
      <point x="146" y="418"/>
      <point x="181" y="420" type="curve" smooth="yes"/>
      <point x="338" y="433" type="line"/>
    </contour>
  </outline>
</glyph>
<glyph name="logicalnot" format="2">
  <advance width="590.08235"/>
  <unicode hex="00AC"/>
  <outline>
    <contour>
      <point x="512" y="330" type="line"/>
      <point x="74" y="330" type="line"/>
      <point x="74" y="265" type="line"/>
      <point x="512" y="265" type="line"/>
    </contour>
    <contour>
      <point x="512" y="321" type="line"/>
      <point x="446" y="321" type="line"/>
      <point x="446" y="132" type="line"/>
      <point x="512" y="132" type="line"/>
    </contour>
  </outline>
</glyph>
<glyph name="registered" format="2">
  <advance width="553.28235"/>
  <unicode hex="00AE"/>
  <outline>
    <contour>
      <point x="277" y="702" type="curve" smooth="yes"/>
      <point x="153" y="702"/>
      <point x="54" y="603"/>
      <point x="54" y="480" type="curve" smooth="yes"/>
      <point x="54" y="356"/>
      <point x="153" y="257"/>
      <point x="277" y="257" type="curve" smooth="yes"/>
      <point x="400" y="257"/>
      <point x="499" y="356"/>
      <point x="499" y="480" type="curve" smooth="yes"/>
      <point x="499" y="603"/>
      <point x="400" y="702"/>
    </contour>
    <contour>
      <point x="217" y="610" type="line"/>
      <point x="177" y="610" type="line"/>
      <point x="177" y="351" type="line"/>
      <point x="217" y="351" type="line"/>
    </contour>
    <contour>
      <point x="277" y="673" type="curve" smooth="yes"/>
      <point x="382" y="673"/>
      <point x="468" y="586"/>
      <point x="468" y="480" type="curve" smooth="yes"/>
      <point x="468" y="373"/>
      <point x="382" y="287"/>
      <point x="277" y="287" type="curve" smooth="yes"/>
      <point x="171" y="287"/>
      <point x="85" y="373"/>
      <point x="85" y="480" type="curve" smooth="yes"/>
      <point x="85" y="586"/>
      <point x="171" y="673"/>
    </contour>
    <contour>
      <point x="286" y="613" type="curve" smooth="yes"/>
      <point x="235" y="613"/>
      <point x="211" y="613"/>
      <point x="177" y="610" type="curve"/>
      <point x="184" y="580" type="line"/>
      <point x="197" y="581"/>
      <point x="236" y="581"/>
      <point x="285" y="581" type="curve" smooth="yes"/>
      <point x="332" y="581"/>
      <point x="349" y="573"/>
      <point x="348" y="534" type="curve" smooth="yes"/>
      <point x="349" y="499"/>
      <point x="332" y="488"/>
      <point x="285" y="487" type="curve" smooth="yes"/>
      <point x="183" y="487" type="line"/>
      <point x="182" y="459" type="line"/>
      <point x="198" y="458"/>
      <point x="229" y="458"/>
      <point x="287" y="458" type="curve" smooth="yes"/>
      <point x="308" y="458"/>
      <point x="321" y="451"/>
      <point x="329" y="431" type="curve" smooth="yes"/>
      <point x="357" y="351" type="line"/>
      <point x="399" y="351" type="line"/>
      <point x="369" y="433" type="line" smooth="yes"/>
      <point x="362" y="457"/>
      <point x="346" y="469"/>
      <point x="330" y="471" type="curve"/>
      <point x="330" y="473" type="line"/>
      <point x="373" y="478"/>
      <point x="389" y="499"/>
      <point x="389" y="538" type="curve" smooth="yes"/>
      <point x="389" y="596"/>
      <point x="359" y="613"/>
    </contour>
  </outline>
</glyph>
<glyph name="degree" format="2">
  <advance width="363.30588"/>
  <unicode hex="00B0"/>
  <outline>
    <contour>
      <point x="182" y="703" type="curve" smooth="yes"/>
      <point x="110" y="703"/>
      <point x="52" y="645"/>
      <point x="52" y="576" type="curve" smooth="yes"/>
      <point x="52" y="506"/>
      <point x="111" y="448"/>
      <point x="182" y="448" type="curve" smooth="yes"/>
      <point x="252" y="448"/>
      <point x="311" y="506"/>
      <point x="311" y="576" type="curve" smooth="yes"/>
      <point x="311" y="646"/>
      <point x="252" y="703"/>
    </contour>
    <contour>
      <point x="182" y="651" type="curve" smooth="yes"/>
      <point x="223" y="651"/>
      <point x="257" y="620"/>
      <point x="257" y="576" type="curve" smooth="yes"/>
      <point x="257" y="533"/>
      <point x="223" y="500"/>
      <point x="182" y="500" type="curve" smooth="yes"/>
      <point x="140" y="500"/>
      <point x="106" y="533"/>
      <point x="106" y="576" type="curve" smooth="yes"/>
      <point x="106" y="620"/>
      <point x="140" y="651"/>
    </contour>
  </outline>
</glyph>
<glyph name="plusminus" format="2">
  <advance width="588.05882"/>
  <unicode hex="00B1"/>
  <outline>
    <contour>
      <point x="513" y="391" type="line"/>
      <point x="75" y="391" type="line"/>
      <point x="75" y="327" type="line"/>
      <point x="513" y="327" type="line"/>
    </contour>
    <contour>
      <point x="513" y="134" type="line"/>
      <point x="75" y="134" type="line"/>
      <point x="75" y="70" type="line"/>
      <point x="513" y="70" type="line"/>
    </contour>
    <contour>
      <point x="327" y="524" type="line"/>
      <point x="261" y="524" type="line"/>
      <point x="261" y="193" type="line"/>
      <point x="326" y="193" type="line"/>
    </contour>
  </outline>
</glyph>
<glyph name="twosuperior" format="2">
  <advance width="433"/>
  <unicode hex="00B2"/>
  <outline>
    <contour>
      <point x="204" y="781" type="curve" smooth="yes"/>
      <point x="171" y="781"/>
      <point x="125" y="779"/>
      <point x="61" y="767" type="curve"/>
      <point x="65" y="704" type="line"/>
      <point x="123" y="709"/>
      <point x="155" y="710"/>
      <point x="198" y="710" type="curve" smooth="yes"/>
      <point x="243" y="710"/>
      <point x="271" y="706"/>
      <point x="269" y="673" type="curve" smooth="yes"/>
      <point x="267" y="641"/>
      <point x="240" y="603"/>
      <point x="188" y="554" type="curve" smooth="yes"/>
      <point x="70" y="442" type="line" smooth="yes"/>
      <point x="60" y="432"/>
      <point x="57" y="421"/>
      <point x="57" y="407" type="curve" smooth="yes"/>
      <point x="57" y="360" type="line"/>
      <point x="375" y="360" type="line"/>
      <point x="376" y="434" type="line"/>
      <point x="229" y="435" type="line" smooth="yes"/>
      <point x="205" y="435"/>
      <point x="188" y="435"/>
      <point x="164" y="432" type="curve"/>
      <point x="282" y="545" type="line" smooth="yes"/>
      <point x="335" y="597"/>
      <point x="360" y="640"/>
      <point x="360" y="682" type="curve" smooth="yes"/>
      <point x="360" y="765"/>
      <point x="307" y="781"/>
    </contour>
  </outline>
</glyph>
<glyph name="threesuperior" format="2">
  <advance width="414"/>
  <unicode hex="00B3"/>
  <outline>
    <contour>
      <point x="201" y="782" type="curve" smooth="yes"/>
      <point x="155" y="782"/>
      <point x="110" y="778"/>
      <point x="63" y="771" type="curve"/>
      <point x="67" y="710" type="line"/>
      <point x="99" y="712"/>
      <point x="143" y="713"/>
      <point x="188" y="713" type="curve" smooth="yes"/>
      <point x="251" y="713"/>
      <point x="269" y="703"/>
      <point x="269" y="665" type="curve" smooth="yes"/>
      <point x="269" y="636"/>
      <point x="263" y="606"/>
      <point x="198" y="606" type="curve" smooth="yes"/>
      <point x="113" y="606" type="line"/>
      <point x="113" y="544" type="line"/>
      <point x="198" y="544" type="line" smooth="yes"/>
      <point x="264" y="544"/>
      <point x="276" y="518"/>
      <point x="276" y="486" type="curve" smooth="yes"/>
      <point x="276" y="437"/>
      <point x="254" y="421"/>
      <point x="186" y="421" type="curve" smooth="yes"/>
      <point x="143" y="421"/>
      <point x="109" y="422"/>
      <point x="59" y="425" type="curve"/>
      <point x="55" y="363" type="line"/>
      <point x="103" y="357"/>
      <point x="155" y="352"/>
      <point x="207" y="352" type="curve" smooth="yes"/>
      <point x="322" y="352"/>
      <point x="363" y="389"/>
      <point x="361" y="475" type="curve" smooth="yes"/>
      <point x="360" y="535"/>
      <point x="340" y="570"/>
      <point x="274" y="579" type="curve"/>
      <point x="274" y="581" type="line"/>
      <point x="335" y="590"/>
      <point x="350" y="630"/>
      <point x="350" y="686" type="curve" smooth="yes"/>
      <point x="350" y="759"/>
      <point x="312" y="782"/>
    </contour>
  </outline>
</glyph>
<glyph name="acute" format="2">
  <advance width="314.2"/>
  <unicode hex="00B4"/>
  <anchor x="120" y="544" name="_top"/>
  <outline>
    <contour>
      <point x="221" y="731" type="line"/>
      <point x="49" y="584" type="line"/>
      <point x="78" y="545" type="line"/>
      <point x="270" y="665" type="line"/>
    </contour>
  </outline>
</glyph>
<glyph name="micro" format="2">
  <advance width="577.10588"/>
  <unicode hex="00B5"/>
  <outline>
    <contour>
      <point x="162" y="487" type="line"/>
      <point x="78" y="487" type="line"/>
      <point x="78" y="133" type="line"/>
      <point x="78" y="35"/>
      <point x="143" y="-12"/>
      <point x="229" y="-12" type="curve" smooth="yes"/>
      <point x="313" y="-12"/>
      <point x="379" y="39"/>
      <point x="412" y="102" type="curve"/>
      <point x="409" y="263" type="line"/>
      <point x="407" y="156"/>
      <point x="333" y="66"/>
      <point x="243" y="66" type="curve" smooth="yes"/>
      <point x="189" y="66"/>
      <point x="162" y="85"/>
      <point x="162" y="154" type="curve" smooth="yes"/>
    </contour>
    <contour>
      <point x="162" y="84" type="line"/>
      <point x="78" y="181" type="line"/>
      <point x="78" y="-201" type="line"/>
      <point x="151" y="-201" type="line"/>
      <point x="161" y="-76" type="line"/>
    </contour>
    <contour>
      <point x="494" y="487" type="line"/>
      <point x="409" y="487" type="line"/>
      <point x="409" y="118" type="line"/>
      <point x="412" y="102" type="line"/>
      <point x="412" y="77" type="line" smooth="yes"/>
      <point x="412" y="18"/>
      <point x="437" y="-10"/>
      <point x="484" y="-10" type="curve" smooth="yes"/>
      <point x="508" y="-10"/>
      <point x="534" y="-5"/>
      <point x="560" y="4" type="curve"/>
      <point x="554" y="55" type="line"/>
      <point x="522" y="55" type="line" smooth="yes"/>
      <point x="497" y="55"/>
      <point x="494" y="75"/>
      <point x="494" y="108" type="curve" smooth="yes"/>
    </contour>
  </outline>
</glyph>
<glyph name="paragraph" format="2">
  <advance width="593.35294"/>
  <unicode hex="00B6"/>
  <outline>
    <contour>
      <point x="346" y="702" type="curve" smooth="yes"/>
      <point x="126" y="702"/>
      <point x="40" y="635"/>
      <point x="40" y="450" type="curve" smooth="yes"/>
      <point x="40" y="284"/>
      <point x="108" y="213"/>
      <point x="279" y="200" type="curve"/>
      <point x="322" y="646" type="line"/>
      <point x="365" y="646"/>
      <point x="443" y="643"/>
      <point x="491" y="634" type="curve"/>
      <point x="497" y="685" type="line"/>
      <point x="450" y="698"/>
      <point x="387" y="702"/>
    </contour>
    <contour>
      <point x="334" y="685" type="line"/>
      <point x="269" y="685" type="line"/>
      <point x="269" y="-210" type="line"/>
      <point x="334" y="-210" type="line"/>
    </contour>
    <contour>
      <point x="497" y="685" type="line"/>
      <point x="432" y="685" type="line"/>
      <point x="432" y="0" type="line"/>
      <point x="497" y="0" type="line"/>
    </contour>
  </outline>
</glyph>
<glyph name="cedilla" format="2">
  <advance width="239"/>
  <unicode hex="00B8"/>
  <guideline x="50" y="-104" angle="74.6443"/>
  <anchor x="133" y="0" name="_bottom"/>
  <outline>
    <contour>
      <point x="85" y="-41" type="curve"/>
      <point x="74" y="-91" type="line"/>
      <point x="123" y="-91"/>
      <point x="134" y="-96"/>
      <point x="133" y="-115" type="curve" smooth="yes"/>
      <point x="131" y="-153"/>
      <point x="96" y="-178"/>
      <point x="48" y="-177" type="curve"/>
      <point x="31" y="-233" type="line"/>
      <point x="130" y="-246"/>
      <point x="206" y="-197"/>
      <point x="209" y="-106" type="curve" smooth="yes"/>
      <point x="211" y="-41"/>
      <point x="172" y="-32"/>
    </contour>
  </outline>
</glyph>
<glyph name="onesuperior" format="2">
  <advance width="294.29412"/>
  <unicode hex="00B9"/>
  <outline>
    <contour>
      <point x="210" y="767" type="line"/>
      <point x="144" y="767" type="line"/>
      <point x="30" y="725" type="line"/>
      <point x="38" y="678" type="line"/>
      <point x="146" y="707" type="line"/>
      <point x="144" y="694"/>
      <point x="144" y="681"/>
      <point x="144" y="669" type="curve" smooth="yes"/>
      <point x="144" y="359" type="line"/>
      <point x="210" y="359" type="line"/>
    </contour>
  </outline>
</glyph>
<glyph name="ordmasculine" format="2">
  <advance width="443.89412"/>
  <unicode hex="00BA"/>
  <outline>
    <contour>
      <point x="222" y="607" type="curve" smooth="yes"/>
      <point x="102" y="607"/>
      <point x="59" y="562"/>
      <point x="59" y="435" type="curve" smooth="yes"/>
      <point x="59" y="310"/>
      <point x="102" y="264"/>
      <point x="222" y="264" type="curve" smooth="yes"/>
      <point x="342" y="264"/>
      <point x="385" y="310"/>
      <point x="385" y="435" type="curve" smooth="yes"/>
      <point x="385" y="562"/>
      <point x="342" y="607"/>
    </contour>
    <contour>
      <point x="222" y="554" type="curve" smooth="yes"/>
      <point x="294" y="554"/>
      <point x="317" y="527"/>
      <point x="317" y="435" type="curve" smooth="yes"/>
      <point x="317" y="344"/>
      <point x="294" y="318"/>
      <point x="222" y="318" type="curve" smooth="yes"/>
      <point x="150" y="318"/>
      <point x="126" y="344"/>
      <point x="126" y="435" type="curve" smooth="yes"/>
      <point x="126" y="527"/>
      <point x="150" y="554"/>
    </contour>
  </outline>
</glyph>
<glyph name="onequarter" format="2">
  <advance width="862.61176"/>
  <unicode hex="00BC"/>
  <outline>
    <contour>
      <point x="645" y="690" type="line"/>
      <point x="584" y="690" type="line"/>
      <point x="137" y="0" type="line"/>
      <point x="198" y="0" type="line"/>
    </contour>
    <contour>
      <point x="221" y="690" type="line"/>
      <point x="155" y="690" type="line"/>
      <point x="38" y="647" type="line"/>
      <point x="46" y="601" type="line"/>
      <point x="159" y="630" type="line"/>
      <point x="156" y="617"/>
      <point x="155" y="604"/>
      <point x="155" y="591" type="curve" smooth="yes"/>
      <point x="155" y="276" type="line"/>
      <point x="221" y="276" type="line"/>
    </contour>
    <contour>
      <point x="667" y="414" type="line"/>
      <point x="603" y="414" type="line"/>
      <point x="476" y="162" type="line" smooth="yes"/>
      <point x="456" y="122"/>
      <point x="482" y="97"/>
      <point x="515" y="97" type="curve" smooth="yes"/>
      <point x="763" y="97" type="line"/>
      <point x="821" y="103" type="line"/>
      <point x="821" y="150" type="line"/>
      <point x="562" y="150" type="line" smooth="yes"/>
      <point x="547" y="150"/>
      <point x="539" y="160"/>
      <point x="545" y="172" type="curve" smooth="yes"/>
    </contour>
    <contour>
      <point x="773" y="335" type="line"/>
      <point x="722" y="335" type="line"/>
      <point x="710" y="267" type="line"/>
      <point x="710" y="0" type="line"/>
      <point x="773" y="0" type="line"/>
    </contour>
  </outline>
</glyph>
<glyph name="onehalf" format="2">
  <advance width="887.04706"/>
  <unicode hex="00BD"/>
  <outline>
    <contour>
      <point x="639" y="690" type="line"/>
      <point x="578" y="690" type="line"/>
      <point x="130" y="0" type="line"/>
      <point x="192" y="0" type="line"/>
    </contour>
    <contour>
      <point x="221" y="690" type="line"/>
      <point x="155" y="690" type="line"/>
      <point x="38" y="647" type="line"/>
      <point x="46" y="601" type="line"/>
      <point x="159" y="630" type="line"/>
      <point x="156" y="617"/>
      <point x="155" y="604"/>
      <point x="155" y="591" type="curve" smooth="yes"/>
      <point x="155" y="276" type="line"/>
      <point x="221" y="276" type="line"/>
    </contour>
    <contour>
      <point x="670" y="421" type="curve" smooth="yes"/>
      <point x="636" y="421"/>
      <point x="594" y="419"/>
      <point x="530" y="406" type="curve"/>
      <point x="534" y="356" type="line"/>
      <point x="591" y="363"/>
      <point x="623" y="364"/>
      <point x="666" y="364" type="curve" smooth="yes"/>
      <point x="716" y="364"/>
      <point x="748" y="360"/>
      <point x="748" y="320" type="curve" smooth="yes"/>
      <point x="747" y="284"/>
      <point x="719" y="244"/>
      <point x="665" y="191" type="curve" smooth="yes"/>
      <point x="536" y="66" type="line" smooth="yes"/>
      <point x="528" y="58"/>
      <point x="526" y="49"/>
      <point x="526" y="38" type="curve" smooth="yes"/>
      <point x="526" y="0" type="line"/>
      <point x="837" y="0" type="line"/>
      <point x="838" y="59" type="line"/>
      <point x="680" y="60" type="line" smooth="yes"/>
      <point x="655" y="60"/>
      <point x="636" y="60"/>
      <point x="611" y="58" type="curve"/>
      <point x="738" y="182" type="line" smooth="yes"/>
      <point x="794" y="238"/>
      <point x="820" y="281"/>
      <point x="820" y="326" type="curve" smooth="yes"/>
      <point x="820" y="406"/>
      <point x="768" y="421"/>
    </contour>
  </outline>
</glyph>
<glyph name="threequarters" format="2">
  <advance width="954.07059"/>
  <unicode hex="00BE"/>
  <outline>
    <contour>
      <point x="746" y="690" type="line"/>
      <point x="685" y="690" type="line"/>
      <point x="238" y="0" type="line"/>
      <point x="299" y="0" type="line"/>
    </contour>
    <contour>
      <point x="197" y="695" type="curve" smooth="yes"/>
      <point x="153" y="695"/>
      <point x="110" y="692"/>
      <point x="64" y="685" type="curve"/>
      <point x="68" y="636" type="line"/>
      <point x="100" y="639"/>
      <point x="143" y="640"/>
      <point x="187" y="640" type="curve" smooth="yes"/>
      <point x="257" y="640"/>
      <point x="279" y="628"/>
      <point x="279" y="583" type="curve" smooth="yes"/>
      <point x="279" y="552"/>
      <point x="272" y="516"/>
      <point x="200" y="515" type="curve" smooth="yes"/>
      <point x="114" y="512" type="line"/>
      <point x="114" y="467" type="line"/>
      <point x="200" y="465" type="line" smooth="yes"/>
      <point x="273" y="465"/>
      <point x="287" y="434"/>
      <point x="287" y="397" type="curve" smooth="yes"/>
      <point x="287" y="341"/>
      <point x="261" y="322"/>
      <point x="189" y="322" type="curve" smooth="yes"/>
      <point x="145" y="322"/>
      <point x="107" y="323"/>
      <point x="60" y="327" type="curve"/>
      <point x="56" y="277" type="line"/>
      <point x="103" y="271"/>
      <point x="155" y="266"/>
      <point x="205" y="266" type="curve" smooth="yes"/>
      <point x="317" y="266"/>
      <point x="357" y="304"/>
      <point x="355" y="389" type="curve" smooth="yes"/>
      <point x="354" y="447"/>
      <point x="334" y="484"/>
      <point x="268" y="493" type="curve"/>
      <point x="268" y="495" type="line"/>
      <point x="328" y="504"/>
      <point x="344" y="545"/>
      <point x="344" y="600" type="curve" smooth="yes"/>
      <point x="344" y="672"/>
      <point x="307" y="695"/>
    </contour>
    <contour>
      <point x="758" y="414" type="line"/>
      <point x="694" y="414" type="line"/>
      <point x="567" y="162" type="line" smooth="yes"/>
      <point x="547" y="122"/>
      <point x="573" y="97"/>
      <point x="606" y="97" type="curve" smooth="yes"/>
      <point x="855" y="97" type="line"/>
      <point x="912" y="103" type="line"/>
      <point x="912" y="150" type="line"/>
      <point x="654" y="150" type="line" smooth="yes"/>
      <point x="638" y="150"/>
      <point x="631" y="160"/>
      <point x="636" y="172" type="curve" smooth="yes"/>
    </contour>
    <contour>
      <point x="861" y="335" type="line"/>
      <point x="810" y="335" type="line"/>
      <point x="799" y="267" type="line"/>
      <point x="799" y="0" type="line"/>
      <point x="861" y="0" type="line"/>
    </contour>
  </outline>
</glyph>
<glyph name="questiondown" format="2">
  <advance width="500.35294"/>
  <unicode hex="00BF"/>
  <outline>
    <contour>
      <point x="296" y="288" type="curve"/>
      <point x="223" y="288" type="line"/>
      <point x="217" y="116"/>
      <point x="41" y="93"/>
      <point x="41" y="-58" type="curve" smooth="yes"/>
      <point x="41" y="-164"/>
      <point x="109" y="-213"/>
      <point x="243" y="-213" type="curve" smooth="yes"/>
      <point x="362" y="-213"/>
      <point x="394" y="-204"/>
      <point x="463" y="-192" type="curve"/>
      <point x="458" y="-131" type="line"/>
      <point x="391" y="-137"/>
      <point x="360" y="-140"/>
      <point x="261" y="-140" type="curve" smooth="yes"/>
      <point x="169" y="-140"/>
      <point x="128" y="-109"/>
      <point x="131" y="-44" type="curve" smooth="yes"/>
      <point x="134" y="68"/>
      <point x="299" y="103"/>
    </contour>
    <contour>
      <point x="271" y="499" type="curve" smooth="yes"/>
      <point x="250" y="499" type="line" smooth="yes"/>
      <point x="226" y="499"/>
      <point x="218" y="491"/>
      <point x="218" y="468" type="curve" smooth="yes"/>
      <point x="218" y="412" type="line" smooth="yes"/>
      <point x="218" y="389"/>
      <point x="226" y="381"/>
      <point x="250" y="381" type="curve" smooth="yes"/>
      <point x="271" y="381" type="line" smooth="yes"/>
      <point x="295" y="381"/>
      <point x="303" y="389"/>
      <point x="303" y="412" type="curve" smooth="yes"/>
      <point x="303" y="468" type="line" smooth="yes"/>
      <point x="303" y="491"/>
      <point x="295" y="499"/>
    </contour>
  </outline>
</glyph>
<glyph name="AE" format="2">
  <advance width="913.02353"/>
  <unicode hex="00C6"/>
  <anchor x="565" y="734" name="top"/>
  <outline>
    <contour>
      <point x="567" y="691" type="curve" smooth="yes"/>
      <point x="446" y="691"/>
      <point x="390" y="668"/>
      <point x="342" y="582" type="curve" smooth="yes"/>
      <point x="-1" y="0" type="line"/>
      <point x="91" y="0" type="line"/>
      <point x="419" y="567" type="line" smooth="yes"/>
      <point x="438" y="598"/>
      <point x="459" y="620"/>
      <point x="477" y="630" type="curve"/>
      <point x="485" y="630" type="line"/>
      <point x="468" y="618"/>
      <point x="453" y="586"/>
      <point x="453" y="558" type="curve" smooth="yes"/>
      <point x="453" y="119" type="line" smooth="yes"/>
      <point x="453" y="49"/>
      <point x="500" y="-1"/>
      <point x="569" y="-1" type="curve" smooth="yes"/>
      <point x="667" y="-1"/>
      <point x="767" y="-1"/>
      <point x="862" y="5" type="curve"/>
      <point x="859" y="74" type="line"/>
      <point x="604" y="74" type="line" smooth="yes"/>
      <point x="557" y="74"/>
      <point x="536" y="95"/>
      <point x="536" y="141" type="curve" smooth="yes"/>
      <point x="536" y="546" type="line" smooth="yes"/>
      <point x="536" y="589"/>
      <point x="563" y="615"/>
      <point x="604" y="615" type="curve" smooth="yes"/>
      <point x="859" y="615" type="line"/>
      <point x="862" y="685" type="line"/>
      <point x="774" y="690"/>
      <point x="691" y="691"/>
    </contour>
    <contour>
      <point x="477" y="298" type="line"/>
      <point x="185" y="298" type="line"/>
      <point x="177" y="225" type="line"/>
      <point x="477" y="225" type="line"/>
    </contour>
    <contour>
      <point x="467" y="401" type="line"/>
      <point x="467" y="328" type="line"/>
      <point x="819" y="329" type="line"/>
      <point x="819" y="400" type="line"/>
    </contour>
  </outline>
</glyph>
<glyph name="Eth" format="2">
  <advance width="668.56471"/>
  <unicode hex="00D0"/>
  <outline>
    <contour>
      <point x="331" y="391" type="line"/>
      <point x="22" y="391" type="line"/>
      <point x="22" y="342" type="line"/>
      <point x="331" y="342" type="line"/>
    </contour>
    <component base="D" xOffset="4"/>
  </outline>
</glyph>
<glyph name="multiply" format="2">
  <advance width="484.35294"/>
  <unicode hex="00D7"/>
  <outline>
    <contour>
      <point x="402" y="475" type="line"/>
      <point x="444" y="425" type="line"/>
      <point x="88" y="104" type="line"/>
      <point x="46" y="155" type="line"/>
    </contour>
    <contour>
      <point x="88" y="475" type="line"/>
      <point x="444" y="155" type="line"/>
      <point x="402" y="104" type="line"/>
      <point x="46" y="424" type="line"/>
    </contour>
  </outline>
</glyph>
<glyph name="Oslash" format="2">
  <advance width="670"/>
  <unicode hex="00D8"/>
  <anchor x="326" y="0" name="bottom"/>
  <anchor x="330" y="732" name="top"/>
  <outline>
    <contour>
      <point x="492" y="753" type="line"/>
      <point x="122" y="-37" type="line"/>
      <point x="177" y="-60" type="line"/>
      <point x="547" y="731" type="line"/>
    </contour>
    <component base="O"/>
  </outline>
</glyph>
<glyph name="Thorn" format="2">
  <advance width="592.48235"/>
  <unicode hex="00DE"/>
  <outline>
    <contour>
      <point x="325" y="567" type="curve" smooth="yes"/>
      <point x="213" y="567"/>
      <point x="162" y="566"/>
      <point x="87" y="559" type="curve"/>
      <point x="101" y="488" type="line"/>
      <point x="129" y="491"/>
      <point x="214" y="492"/>
      <point x="323" y="492" type="curve" smooth="yes"/>
      <point x="423" y="492"/>
      <point x="457" y="464"/>
      <point x="457" y="349" type="curve" smooth="yes"/>
      <point x="457" y="235"/>
      <point x="423" y="208"/>
      <point x="323" y="207" type="curve" smooth="yes"/>
      <point x="248" y="207"/>
      <point x="170" y="207"/>
      <point x="100" y="207" type="curve"/>
      <point x="97" y="153" type="line"/>
      <point x="122" y="144"/>
      <point x="222" y="131"/>
      <point x="334" y="131" type="curve" smooth="yes"/>
      <point x="490" y="131"/>
      <point x="546" y="177"/>
      <point x="546" y="349" type="curve" smooth="yes"/>
      <point x="546" y="520"/>
      <point x="490" y="567"/>
    </contour>
    <contour>
      <point x="175" y="690" type="line"/>
      <point x="87" y="690" type="line"/>
      <point x="87" y="0" type="line"/>
      <point x="175" y="0" type="line"/>
    </contour>
  </outline>
</glyph>
<glyph name="germandbls" format="2">
  <advance width="675.07059"/>
  <unicode hex="00DF"/>
  <outline>
    <contour>
      <point x="341" y="721" type="curve" smooth="yes"/>
      <point x="200" y="721"/>
      <point x="116" y="699"/>
      <point x="116" y="543" type="curve" smooth="yes"/>
      <point x="116" y="0" type="line"/>
      <point x="201" y="0" type="line"/>
      <point x="201" y="534" type="line" smooth="yes"/>
      <point x="201" y="629"/>
      <point x="234" y="651"/>
      <point x="345" y="651" type="curve" smooth="yes"/>
      <point x="458" y="651"/>
      <point x="487" y="629"/>
      <point x="487" y="586" type="curve" smooth="yes"/>
      <point x="487" y="544"/>
      <point x="471" y="525"/>
      <point x="423" y="498" type="curve" smooth="yes"/>
      <point x="356" y="461"/>
      <point x="300" y="441"/>
      <point x="300" y="365" type="curve" smooth="yes"/>
      <point x="300" y="309"/>
      <point x="332" y="276"/>
      <point x="382" y="253" type="curve" smooth="yes"/>
      <point x="488" y="206" type="line" smooth="yes"/>
      <point x="532" y="186"/>
      <point x="555" y="175"/>
      <point x="555" y="130" type="curve" smooth="yes"/>
      <point x="555" y="66"/>
      <point x="523" y="60"/>
      <point x="445" y="59" type="curve" smooth="yes"/>
      <point x="406" y="59"/>
      <point x="357" y="60"/>
      <point x="306" y="64" type="curve"/>
      <point x="301" y="0" type="line"/>
      <point x="365" y="-9"/>
      <point x="420" y="-11"/>
      <point x="461" y="-11" type="curve" smooth="yes"/>
      <point x="577" y="-11"/>
      <point x="638" y="12"/>
      <point x="638" y="126" type="curve" smooth="yes"/>
      <point x="638" y="199"/>
      <point x="611" y="228"/>
      <point x="550" y="256" type="curve" smooth="yes"/>
      <point x="446" y="302" type="line" smooth="yes"/>
      <point x="405" y="320"/>
      <point x="381" y="332"/>
      <point x="381" y="367" type="curve" smooth="yes"/>
      <point x="381" y="415"/>
      <point x="417" y="421"/>
      <point x="480" y="458" type="curve" smooth="yes"/>
      <point x="551" y="500"/>
      <point x="567" y="535"/>
      <point x="567" y="589" type="curve" smooth="yes"/>
      <point x="567" y="690"/>
      <point x="501" y="721"/>
    </contour>
    <contour>
      <point x="160" y="487" type="line"/>
      <point x="120" y="487" type="line"/>
      <point x="28" y="485" type="line"/>
      <point x="28" y="419" type="line"/>
      <point x="160" y="419" type="line"/>
    </contour>
  </outline>
</glyph>
<glyph name="ae" format="2">
  <advance width="868"/>
  <unicode hex="00E6"/>
  <anchor x="448" y="552" name="top"/>
  <outline>
    <contour>
      <point x="606" y="502" type="curve" smooth="yes"/>
      <point x="446" y="502"/>
      <point x="376" y="440"/>
      <point x="376" y="246" type="curve" smooth="yes"/>
      <point x="376" y="57"/>
      <point x="442" y="-12"/>
      <point x="615" y="-12" type="curve" smooth="yes"/>
      <point x="673" y="-12"/>
      <point x="761" y="-4"/>
      <point x="811" y="19" type="curve"/>
      <point x="801" y="90" type="line"/>
      <point x="746" y="83"/>
      <point x="677" y="78"/>
      <point x="629" y="78" type="curve" smooth="yes"/>
      <point x="525" y="78"/>
      <point x="488" y="102"/>
      <point x="488" y="252" type="curve" smooth="yes"/>
      <point x="488" y="380"/>
      <point x="515" y="412"/>
      <point x="611" y="412" type="curve" smooth="yes"/>
      <point x="691" y="412"/>
      <point x="715" y="390"/>
      <point x="715" y="335" type="curve" smooth="yes"/>
      <point x="715" y="310"/>
      <point x="710" y="275"/>
      <point x="672" y="275" type="curve" smooth="yes"/>
      <point x="415" y="275" type="line"/>
      <point x="415" y="193" type="line"/>
      <point x="702" y="193" type="line" smooth="yes"/>
      <point x="784" y="193"/>
      <point x="823" y="246"/>
      <point x="823" y="334" type="curve" smooth="yes"/>
      <point x="823" y="444"/>
      <point x="761" y="502"/>
    </contour>
    <contour>
      <point x="438" y="304" type="line"/>
      <point x="188" y="304" type="line" smooth="yes"/>
      <point x="98" y="304"/>
      <point x="46" y="259"/>
      <point x="46" y="181" type="curve" smooth="yes"/>
      <point x="46" y="131" type="line" smooth="yes"/>
      <point x="46" y="40"/>
      <point x="109" y="-10"/>
      <point x="199" y="-10" type="curve" smooth="yes"/>
      <point x="309" y="-10"/>
      <point x="385" y="64"/>
      <point x="410" y="101" type="curve"/>
      <point x="410" y="178" type="line"/>
      <point x="348" y="105"/>
      <point x="270" y="81"/>
      <point x="222" y="81" type="curve" smooth="yes"/>
      <point x="175" y="81"/>
      <point x="155" y="99"/>
      <point x="155" y="145" type="curve" smooth="yes"/>
      <point x="155" y="165" type="line" smooth="yes"/>
      <point x="155" y="200"/>
      <point x="166" y="221"/>
      <point x="209" y="223" type="curve" smooth="yes"/>
      <point x="437" y="223" type="line"/>
    </contour>
    <contour>
      <point x="306" y="502" type="curve" smooth="yes"/>
      <point x="243" y="502"/>
      <point x="137" y="491"/>
      <point x="68" y="479" type="curve"/>
      <point x="78" y="400" type="line"/>
      <point x="154" y="406"/>
      <point x="238" y="411"/>
      <point x="282" y="411" type="curve" smooth="yes"/>
      <point x="356" y="411"/>
      <point x="377" y="397"/>
      <point x="377" y="337" type="curve" smooth="yes"/>
      <point x="377" y="247" type="line"/>
      <point x="485" y="247" type="line"/>
      <point x="485" y="337" type="line" smooth="yes"/>
      <point x="485" y="464"/>
      <point x="424" y="502"/>
    </contour>
  </outline>
</glyph>
<glyph name="eth" format="2">
  <advance width="563"/>
  <unicode hex="00F0"/>
  <outline>
    <contour>
      <point x="131" y="698" type="curve"/>
      <point x="120" y="620" type="line"/>
      <point x="266" y="626"/>
      <point x="394" y="575"/>
      <point x="394" y="288" type="curve" smooth="yes"/>
      <point x="394" y="147"/>
      <point x="380" y="77"/>
      <point x="278" y="77" type="curve" smooth="yes"/>
      <point x="197" y="77"/>
      <point x="163" y="113"/>
      <point x="163" y="219" type="curve" smooth="yes"/>
      <point x="163" y="312"/>
      <point x="190" y="359"/>
      <point x="276" y="359" type="curve" smooth="yes"/>
      <point x="332" y="359"/>
      <point x="379" y="351"/>
      <point x="428" y="331" type="curve"/>
      <point x="435" y="377" type="line"/>
      <point x="381" y="437"/>
      <point x="309" y="449"/>
      <point x="256" y="449" type="curve" smooth="yes"/>
      <point x="104" y="449"/>
      <point x="50" y="367"/>
      <point x="50" y="218" type="curve" smooth="yes"/>
      <point x="50" y="57"/>
      <point x="122" y="-13"/>
      <point x="277" y="-13" type="curve" smooth="yes"/>
      <point x="459" y="-13"/>
      <point x="506" y="99"/>
      <point x="506" y="284" type="curve" smooth="yes"/>
      <point x="506" y="600"/>
      <point x="333" y="709"/>
    </contour>
    <contour>
      <point x="412" y="717" type="line"/>
      <point x="203" y="550" type="line"/>
      <point x="241" y="504" type="line"/>
      <point x="450" y="670" type="line"/>
    </contour>
  </outline>
</glyph>
<glyph name="divide" format="2">
  <advance width="570.76471"/>
  <unicode hex="00F7"/>
  <outline>
    <contour>
      <point x="504" y="327" type="line"/>
      <point x="66" y="327" type="line"/>
      <point x="66" y="263" type="line"/>
      <point x="504" y="263" type="line"/>
    </contour>
    <contour>
      <point x="295" y="176" type="curve" smooth="yes"/>
      <point x="273" y="176" type="line" smooth="yes"/>
      <point x="249" y="176"/>
      <point x="242" y="168"/>
      <point x="242" y="144" type="curve" smooth="yes"/>
      <point x="242" y="96" type="line" smooth="yes"/>
      <point x="242" y="72"/>
      <point x="249" y="64"/>
      <point x="273" y="64" type="curve" smooth="yes"/>
      <point x="295" y="64" type="line" smooth="yes"/>
      <point x="318" y="64"/>
      <point x="327" y="72"/>
      <point x="327" y="96" type="curve" smooth="yes"/>
      <point x="327" y="144" type="line" smooth="yes"/>
      <point x="327" y="168"/>
      <point x="318" y="176"/>
    </contour>
    <contour>
      <point x="295" y="525" type="curve" smooth="yes"/>
      <point x="273" y="525" type="line" smooth="yes"/>
      <point x="249" y="525"/>
      <point x="242" y="516"/>
      <point x="242" y="493" type="curve" smooth="yes"/>
      <point x="242" y="444" type="line" smooth="yes"/>
      <point x="242" y="421"/>
      <point x="249" y="413"/>
      <point x="273" y="413" type="curve" smooth="yes"/>
      <point x="295" y="413" type="line" smooth="yes"/>
      <point x="318" y="413"/>
      <point x="327" y="421"/>
      <point x="327" y="444" type="curve" smooth="yes"/>
      <point x="327" y="493" type="line" smooth="yes"/>
      <point x="327" y="516"/>
      <point x="318" y="525"/>
    </contour>
  </outline>
</glyph>
<glyph name="oslash" format="2">
  <advance width="568.02353"/>
  <unicode hex="00F8"/>
  <anchor x="282" y="-9" name="bottom"/>
  <anchor x="286" y="550" name="top"/>
  <outline>
    <contour>
      <point x="405" y="560" type="line"/>
      <point x="118" y="-56" type="line"/>
      <point x="157" y="-75" type="line"/>
      <point x="444" y="541" type="line"/>
    </contour>
    <component base="o"/>
  </outline>
</glyph>
<glyph name="thorn" format="2">
  <advance width="578"/>
  <unicode hex="00FE"/>
  <outline>
    <contour>
      <point x="351" y="501" type="curve" smooth="yes"/>
      <point x="267" y="501"/>
      <point x="202" y="466"/>
      <point x="149" y="416" type="curve"/>
      <point x="176" y="348" type="line"/>
      <point x="226" y="385"/>
      <point x="271" y="410"/>
      <point x="315" y="410" type="curve" smooth="yes"/>
      <point x="386" y="410"/>
      <point x="416" y="373"/>
      <point x="416" y="241" type="curve" smooth="yes"/>
      <point x="416" y="112"/>
      <point x="387" y="75"/>
      <point x="310" y="75" type="curve" smooth="yes"/>
      <point x="269" y="75"/>
      <point x="222" y="90"/>
      <point x="167" y="112" type="curve"/>
      <point x="145" y="46" type="line"/>
      <point x="204" y="6"/>
      <point x="278" y="-13"/>
      <point x="347" y="-13" type="curve" smooth="yes"/>
      <point x="471" y="-13"/>
      <point x="527" y="48"/>
      <point x="527" y="240" type="curve" smooth="yes"/>
      <point x="527" y="420"/>
      <point x="479" y="501"/>
    </contour>
    <contour>
      <point x="180" y="700" type="line"/>
      <point x="72" y="700" type="line"/>
      <point x="72" y="-197" type="line"/>
      <point x="180" y="-197" type="line"/>
      <point x="180" y="-64" type="line" smooth="yes"/>
      <point x="180" y="-24"/>
      <point x="179" y="12"/>
      <point x="175" y="51" type="curve"/>
      <point x="180" y="63" type="line"/>
      <point x="180" y="415" type="line"/>
      <point x="175" y="427" type="line"/>
      <point x="179" y="466"/>
      <point x="180" y="502"/>
      <point x="180" y="543" type="curve"/>
    </contour>
  </outline>
</glyph>
<glyph name="dcroat" format="2">
  <advance width="567.58824"/>
  <unicode hex="0111"/>
  <outline>
    <contour>
      <point x="562" y="622" type="line"/>
      <point x="256" y="622" type="line"/>
      <point x="256" y="573" type="line"/>
      <point x="562" y="573" type="line"/>
    </contour>
    <component base="d"/>
  </outline>
</glyph>
<glyph name="Hbar" format="2">
  <advance width="675.94118"/>
  <unicode hex="0126"/>
  <outline>
    <contour>
      <point x="655" y="566" type="line"/>
      <point x="20" y="566" type="line"/>
      <point x="20" y="519" type="line"/>
      <point x="655" y="519" type="line"/>
    </contour>
    <component base="H" xOffset="4"/>
  </outline>
</glyph>
<glyph name="hbar" format="2">
  <advance width="584.67059"/>
  <unicode hex="0127"/>
  <outline>
    <contour>
      <point x="313" y="622" type="line"/>
      <point x="6" y="622" type="line"/>
      <point x="6" y="573" type="line"/>
      <point x="313" y="573" type="line"/>
    </contour>
    <component base="h" xOffset="4"/>
  </outline>
</glyph>
<glyph name="kgreenlandic" format="2">
  <advance width="509.47059"/>
  <unicode hex="0138"/>
  <outline>
    <contour>
      <point x="476" y="487" type="line"/>
      <point x="377" y="487" type="line"/>
      <point x="200" y="252" type="line"/>
      <point x="393" y="0" type="line"/>
      <point x="492" y="0" type="line"/>
      <point x="322" y="216" type="line" smooth="yes"/>
      <point x="311" y="230"/>
      <point x="296" y="249"/>
      <point x="288" y="255" type="curve"/>
      <point x="288" y="257" type="line"/>
      <point x="296" y="263"/>
      <point x="313" y="279"/>
      <point x="322" y="291" type="curve" smooth="yes"/>
    </contour>
    <contour>
      <point x="163" y="487" type="line"/>
      <point x="78" y="487" type="line"/>
      <point x="78" y="0" type="line"/>
      <point x="163" y="0" type="line"/>
      <point x="163" y="139" type="line" smooth="yes"/>
      <point x="163" y="173"/>
      <point x="160" y="211"/>
      <point x="154" y="249" type="curve"/>
      <point x="161" y="288"/>
      <point x="165" y="321"/>
      <point x="164" y="362" type="curve" smooth="yes"/>
    </contour>
    <contour>
      <point x="246" y="278" type="line"/>
      <point x="133" y="278" type="line"/>
      <point x="133" y="217" type="line"/>
      <point x="246" y="217" type="line"/>
    </contour>
  </outline>
</glyph>
<glyph name="Lslash" format="2">
  <advance width="519.75294"/>
  <unicode hex="0141"/>
  <outline>
    <contour>
      <point x="294" y="474" type="line"/>
      <point x="20" y="360" type="line"/>
      <point x="20" y="305" type="line"/>
      <point x="294" y="420" type="line"/>
    </contour>
    <component base="L" xOffset="6"/>
  </outline>
</glyph>
<glyph name="lslash" format="2">
  <advance width="337"/>
  <unicode hex="0142"/>
  <outline>
    <contour>
      <point x="306" y="479" type="line"/>
      <point x="17" y="360" type="line"/>
      <point x="17" y="292" type="line"/>
      <point x="306" y="411" type="line"/>
    </contour>
    <component base="l" xOffset="21"/>
  </outline>
</glyph>
<glyph name="Eng" format="2">
  <advance width="711"/>
  <unicode hex="014A"/>
  <outline>
    <contour>
      <point x="630" y="690" type="line"/>
      <point x="519" y="690" type="line"/>
      <point x="519" y="236" type="line" smooth="yes"/>
      <point x="519" y="200"/>
      <point x="521" y="165"/>
      <point x="524" y="129" type="curve"/>
      <point x="511" y="129" type="line"/>
      <point x="496" y="165"/>
      <point x="477" y="209"/>
      <point x="463" y="236" type="curve" smooth="yes"/>
      <point x="249" y="656" type="line" smooth="yes"/>
      <point x="237" y="679"/>
      <point x="226" y="690"/>
      <point x="201" y="690" type="curve" smooth="yes"/>
      <point x="123" y="690" type="line" smooth="yes"/>
      <point x="95" y="690"/>
      <point x="81" y="676"/>
      <point x="81" y="648" type="curve" smooth="yes"/>
      <point x="81" y="0" type="line"/>
      <point x="192" y="0" type="line"/>
      <point x="192" y="465" type="line" smooth="yes"/>
      <point x="192" y="499"/>
      <point x="192" y="532"/>
      <point x="187" y="566" type="curve"/>
      <point x="197" y="566" type="line"/>
      <point x="209" y="534"/>
      <point x="226" y="491"/>
      <point x="239" y="466" type="curve" smooth="yes"/>
      <point x="460" y="30" type="line" smooth="yes"/>
      <point x="468" y="15"/>
      <point x="476" y="0"/>
      <point x="490" y="0" type="curve" smooth="yes"/>
      <point x="526" y="0" type="line"/>
      <point x="526" y="-62" type="line" smooth="yes"/>
      <point x="526" y="-108"/>
      <point x="501" y="-129"/>
      <point x="451" y="-129" type="curve" smooth="yes"/>
      <point x="405" y="-129" type="line"/>
      <point x="393" y="-199" type="line"/>
      <point x="420" y="-209"/>
      <point x="464" y="-214"/>
      <point x="491" y="-214" type="curve" smooth="yes"/>
      <point x="574" y="-215"/>
      <point x="630" y="-163"/>
      <point x="630" y="-71" type="curve" smooth="yes"/>
    </contour>
  </outline>
</glyph>
<glyph name="eng" format="2">
  <advance width="585"/>
  <unicode hex="014B"/>
  <outline>
    <contour>
      <point x="382" y="502" type="curve" smooth="yes"/>
      <point x="312" y="502"/>
      <point x="239" y="471"/>
      <point x="165" y="412" type="curve"/>
      <point x="156" y="489" type="line"/>
      <point x="72" y="489" type="line"/>
      <point x="72" y="0" type="line"/>
      <point x="180" y="0" type="line"/>
      <point x="179" y="342" type="line"/>
      <point x="244" y="377"/>
      <point x="303" y="403"/>
      <point x="350" y="403" type="curve" smooth="yes"/>
      <point x="396" y="403"/>
      <point x="408" y="385"/>
      <point x="408" y="335" type="curve" smooth="yes"/>
      <point x="408" y="-51" type="line" smooth="yes"/>
      <point x="408" y="-97"/>
      <point x="386" y="-119"/>
      <point x="343" y="-119" type="curve" smooth="yes"/>
      <point x="302" y="-119" type="line"/>
      <point x="290" y="-188" type="line"/>
      <point x="317" y="-198"/>
      <point x="360" y="-203"/>
      <point x="387" y="-203" type="curve" smooth="yes"/>
      <point x="471" y="-204"/>
      <point x="516" y="-152"/>
      <point x="516" y="-60" type="curve" smooth="yes"/>
      <point x="516" y="367" type="line" smooth="yes"/>
      <point x="516" y="456"/>
      <point x="470" y="502"/>
    </contour>
  </outline>
</glyph>
<glyph name="OE" format="2">
  <advance width="913.07059"/>
  <unicode hex="0152"/>
  <outline>
    <contour>
      <point x="334" y="703" type="curve" smooth="yes"/>
      <point x="133" y="703"/>
      <point x="61" y="615"/>
      <point x="61" y="345" type="curve" smooth="yes"/>
      <point x="61" y="75"/>
      <point x="133" y="-13"/>
      <point x="334" y="-13" type="curve" smooth="yes"/>
      <point x="411" y="-13"/>
      <point x="451" y="-2"/>
      <point x="509" y="26" type="curve"/>
      <point x="478" y="89" type="line"/>
      <point x="430" y="74"/>
      <point x="403" y="66"/>
      <point x="334" y="66" type="curve" smooth="yes"/>
      <point x="198" y="66"/>
      <point x="154" y="134"/>
      <point x="154" y="345" type="curve" smooth="yes"/>
      <point x="154" y="558"/>
      <point x="198" y="624"/>
      <point x="334" y="624" type="curve" smooth="yes"/>
      <point x="400" y="624"/>
      <point x="429" y="616"/>
      <point x="475" y="603" type="curve"/>
      <point x="507" y="669" type="line"/>
      <point x="448" y="693"/>
      <point x="409" y="703"/>
    </contour>
    <contour>
      <point x="573" y="691" type="curve" smooth="yes"/>
      <point x="500" y="691"/>
      <point x="447" y="638"/>
      <point x="447" y="561" type="curve" smooth="yes"/>
      <point x="447" y="129" type="line" smooth="yes"/>
      <point x="447" y="52"/>
      <point x="497" y="-1"/>
      <point x="566" y="-1" type="curve" smooth="yes"/>
      <point x="665" y="-1"/>
      <point x="770" y="-1"/>
      <point x="862" y="5" type="curve"/>
      <point x="859" y="73" type="line"/>
      <point x="602" y="73" type="line" smooth="yes"/>
      <point x="556" y="73"/>
      <point x="535" y="93"/>
      <point x="535" y="140" type="curve" smooth="yes"/>
      <point x="535" y="550" type="line" smooth="yes"/>
      <point x="535" y="596"/>
      <point x="556" y="616"/>
      <point x="602" y="616" type="curve" smooth="yes"/>
      <point x="859" y="616" type="line"/>
      <point x="862" y="685" type="line"/>
      <point x="772" y="691"/>
      <point x="670" y="691"/>
    </contour>
    <contour>
      <point x="464" y="401" type="line"/>
      <point x="464" y="328" type="line"/>
      <point x="819" y="329" type="line"/>
      <point x="819" y="400" type="line"/>
    </contour>
  </outline>
</glyph>
<glyph name="oe" format="2">
  <advance width="907.41176"/>
  <unicode hex="0153"/>
  <anchor x="473" y="547" name="top"/>
  <outline>
    <contour>
      <point x="284" y="-13" type="curve" smooth="yes"/>
      <point x="452" y="-13"/>
      <point x="513" y="56"/>
      <point x="513" y="243" type="curve" smooth="yes"/>
      <point x="513" y="429"/>
      <point x="452" y="499"/>
      <point x="284" y="499" type="curve" smooth="yes"/>
      <point x="117" y="499"/>
      <point x="55" y="429"/>
      <point x="55" y="243" type="curve" smooth="yes"/>
      <point x="55" y="56"/>
      <point x="117" y="-13"/>
    </contour>
    <contour>
      <point x="284" y="59" type="curve" smooth="yes"/>
      <point x="178" y="59"/>
      <point x="144" y="101"/>
      <point x="144" y="243" type="curve" smooth="yes"/>
      <point x="144" y="385"/>
      <point x="178" y="427"/>
      <point x="284" y="427" type="curve" smooth="yes"/>
      <point x="390" y="427"/>
      <point x="425" y="385"/>
      <point x="425" y="243" type="curve" smooth="yes"/>
      <point x="425" y="101"/>
      <point x="390" y="59"/>
    </contour>
    <contour>
      <point x="656" y="-12" type="curve" smooth="yes"/>
      <point x="713" y="-12"/>
      <point x="800" y="-4"/>
      <point x="845" y="15" type="curve"/>
      <point x="837" y="72" type="line"/>
      <point x="787" y="65"/>
      <point x="719" y="60"/>
      <point x="669" y="60" type="curve" smooth="yes"/>
      <point x="555" y="60"/>
      <point x="513" y="93"/>
      <point x="513" y="250" type="curve" smooth="yes"/>
      <point x="513" y="385"/>
      <point x="545" y="427"/>
      <point x="645" y="427" type="curve" smooth="yes"/>
      <point x="732" y="427"/>
      <point x="769" y="402"/>
      <point x="772" y="350" type="curve" smooth="yes"/>
      <point x="775" y="290"/>
      <point x="755" y="269"/>
      <point x="701" y="269" type="curve" smooth="yes"/>
      <point x="456" y="269" type="line"/>
      <point x="456" y="206" type="line"/>
      <point x="706" y="206" type="line" smooth="yes"/>
      <point x="815" y="206"/>
      <point x="858" y="239"/>
      <point x="858" y="349" type="curve" smooth="yes"/>
      <point x="857" y="442"/>
      <point x="795" y="499"/>
      <point x="643" y="499" type="curve" smooth="yes"/>
      <point x="486" y="499"/>
      <point x="424" y="432"/>
      <point x="424" y="247" type="curve" smooth="yes"/>
      <point x="424" y="58"/>
      <point x="488" y="-12"/>
    </contour>
  </outline>
</glyph>
<glyph name="Tbar" format="2">
  <advance width="580.77647"/>
  <unicode hex="0166"/>
  <outline>
    <contour>
      <point x="474" y="401" type="line"/>
      <point x="105" y="401" type="line"/>
      <point x="105" y="351" type="line"/>
      <point x="474" y="351" type="line"/>
    </contour>
    <component base="T"/>
  </outline>
</glyph>
<glyph name="tbar" format="2">
  <advance width="394"/>
  <unicode hex="0167"/>
  <outline>
    <contour>
      <point x="341" y="299" type="line"/>
      <point x="51" y="299" type="line"/>
      <point x="51" y="241" type="line"/>
      <point x="341" y="241" type="line"/>
    </contour>
    <component base="t"/>
  </outline>
</glyph>
<glyph name="Schwa" format="2">
  <advance width="633.48235"/>
  <unicode hex="018F"/>
  <outline>
    <contour>
      <point x="313" y="-12" type="curve" smooth="yes"/>
      <point x="514" y="-12"/>
      <point x="572" y="94"/>
      <point x="572" y="343" type="curve" smooth="yes"/>
      <point x="572" y="594"/>
      <point x="519" y="703"/>
      <point x="297" y="703" type="curve" smooth="yes"/>
      <point x="218" y="703"/>
      <point x="138" y="691"/>
      <point x="72" y="668" type="curve"/>
      <point x="83" y="607" type="line"/>
      <point x="153" y="617"/>
      <point x="219" y="624"/>
      <point x="291" y="624" type="curve" smooth="yes"/>
      <point x="442" y="624"/>
      <point x="480" y="550"/>
      <point x="480" y="337" type="curve" smooth="yes"/>
      <point x="480" y="156"/>
      <point x="443" y="66"/>
      <point x="306" y="66" type="curve" smooth="yes"/>
      <point x="187" y="66"/>
      <point x="149" y="122"/>
      <point x="148" y="206" type="curve" smooth="yes"/>
      <point x="147" y="259"/>
      <point x="168" y="309"/>
      <point x="229" y="309" type="curve" smooth="yes"/>
      <point x="542" y="309" type="line"/>
      <point x="542" y="389" type="line"/>
      <point x="224" y="389" type="line" smooth="yes"/>
      <point x="112" y="389"/>
      <point x="55" y="327"/>
      <point x="56" y="207" type="curve" smooth="yes"/>
      <point x="56" y="79"/>
      <point x="125" y="-12"/>
    </contour>
  </outline>
</glyph>
<glyph name="florin" format="2">
  <advance width="456"/>
  <unicode hex="0192"/>
  <outline>
    <contour>
      <point x="332" y="701" type="curve" smooth="yes"/>
      <point x="231" y="701"/>
      <point x="179" y="646"/>
      <point x="171" y="555" type="curve" smooth="yes"/>
      <point x="120" y="7" type="line" smooth="yes"/>
      <point x="115" y="-44"/>
      <point x="94" y="-63"/>
      <point x="40" y="-63" type="curve" smooth="yes"/>
      <point x="-26" y="-63" type="line"/>
      <point x="-40" y="-144" type="line"/>
      <point x="-10" y="-150"/>
      <point x="45" y="-152"/>
      <point x="71" y="-152" type="curve" smooth="yes"/>
      <point x="177" y="-152"/>
      <point x="219" y="-97"/>
      <point x="227" y="-6" type="curve" smooth="yes"/>
      <point x="278" y="542" type="line" smooth="yes"/>
      <point x="283" y="601"/>
      <point x="305" y="612"/>
      <point x="357" y="612" type="curve" smooth="yes"/>
      <point x="429" y="612" type="line"/>
      <point x="444" y="693" type="line"/>
      <point x="414" y="699"/>
      <point x="359" y="701"/>
    </contour>
    <contour>
      <point x="399" y="403" type="line"/>
      <point x="163" y="403" type="line"/>
      <point x="55" y="399" type="line"/>
      <point x="50" y="320" type="line"/>
      <point x="391" y="320" type="line"/>
    </contour>
  </outline>
</glyph>
<glyph name="Ohorn" format="2">
  <advance width="667.83529"/>
  <unicode hex="01A0"/>
  <anchor x="332" y="0" name="bottom"/>
  <anchor x="336" y="734" name="top"/>
  <outline>
    <contour>
      <point x="334" y="703" type="curve" smooth="yes"/>
      <point x="133" y="703"/>
      <point x="61" y="614"/>
      <point x="61" y="345" type="curve" smooth="yes"/>
      <point x="61" y="75"/>
      <point x="133" y="-13"/>
      <point x="334" y="-13" type="curve" smooth="yes"/>
      <point x="535" y="-13"/>
      <point x="606" y="75"/>
      <point x="606" y="345" type="curve" smooth="yes"/>
      <point x="606" y="615"/>
      <point x="535" y="703"/>
    </contour>
    <contour>
      <point x="334" y="624" type="curve" smooth="yes"/>
      <point x="470" y="624"/>
      <point x="514" y="556"/>
      <point x="514" y="345" type="curve" smooth="yes"/>
      <point x="514" y="134"/>
      <point x="470" y="66"/>
      <point x="334" y="66" type="curve" smooth="yes"/>
      <point x="198" y="66"/>
      <point x="154" y="134"/>
      <point x="154" y="345" type="curve" smooth="yes"/>
      <point x="154" y="556"/>
      <point x="198" y="624"/>
    </contour>
    <component base="horncomb" xOffset="774" yOffset="179"/>
  </outline>
</glyph>
<glyph name="ohorn" format="2">
  <advance width="579.69412"/>
  <unicode hex="01A1"/>
  <anchor x="282" y="-9" name="bottom"/>
  <anchor x="284" y="550" name="top"/>
  <outline>
    <contour>
      <point x="284" y="499" type="curve" smooth="yes"/>
      <point x="117" y="499"/>
      <point x="55" y="429"/>
      <point x="55" y="243" type="curve" smooth="yes"/>
      <point x="55" y="56"/>
      <point x="117" y="-13"/>
      <point x="284" y="-13" type="curve" smooth="yes"/>
      <point x="452" y="-13"/>
      <point x="513" y="56"/>
      <point x="513" y="243" type="curve" smooth="yes"/>
      <point x="513" y="429"/>
      <point x="452" y="499"/>
    </contour>
    <contour>
      <point x="284" y="427" type="curve" smooth="yes"/>
      <point x="390" y="427"/>
      <point x="425" y="385"/>
      <point x="425" y="243" type="curve" smooth="yes"/>
      <point x="425" y="101"/>
      <point x="390" y="59"/>
      <point x="284" y="59" type="curve" smooth="yes"/>
      <point x="178" y="59"/>
      <point x="144" y="101"/>
      <point x="144" y="243" type="curve" smooth="yes"/>
      <point x="144" y="385"/>
      <point x="178" y="427"/>
    </contour>
    <component base="horncomb" xOffset="689" yOffset="2"/>
  </outline>
</glyph>
<glyph name="Aringacute" format="2">
  <advance width="621.96471"/>
  <unicode hex="01FA"/>
  <outline>
    <contour>
      <point x="357" y="630" type="curve" smooth="yes"/>
      <point x="265" y="630" type="line" smooth="yes"/>
      <point x="249" y="630"/>
      <point x="238" y="621"/>
      <point x="232" y="606" type="curve" smooth="yes"/>
      <point x="10" y="0" type="line"/>
      <point x="101" y="0" type="line"/>
      <point x="280" y="506" type="line" smooth="yes"/>
      <point x="287" y="524"/>
      <point x="292" y="544"/>
      <point x="297" y="562" type="curve"/>
      <point x="325" y="562" type="line"/>
      <point x="330" y="544"/>
      <point x="335" y="524"/>
      <point x="342" y="506" type="curve" smooth="yes"/>
      <point x="521" y="0" type="line"/>
      <point x="612" y="0" type="line"/>
      <point x="390" y="606" type="line" smooth="yes"/>
      <point x="384" y="621"/>
      <point x="373" y="630"/>
    </contour>
    <contour>
      <point x="488" y="251" type="line"/>
      <point x="133" y="251" type="line"/>
      <point x="133" y="175" type="line"/>
      <point x="488" y="175" type="line"/>
    </contour>
    <contour>
      <point x="372" y="1023" type="line"/>
      <point x="227" y="907" type="line"/>
      <point x="254" y="869" type="line"/>
      <point x="417" y="959" type="line"/>
    </contour>
    <component base="ring" xOffset="162" yOffset="113"/>
  </outline>
</glyph>
<glyph name="aringacute" format="2">
  <advance width="553"/>
  <unicode hex="01FB"/>
  <outline>
    <contour>
      <point x="331" y="926" type="line"/>
      <point x="182" y="801" type="line"/>
      <point x="214" y="755" type="line"/>
      <point x="388" y="847" type="line"/>
    </contour>
    <component base="a"/>
    <component base="ring" xOffset="124" yOffset="-13"/>
  </outline>
</glyph>
<glyph name="jdotless" format="2">
  <advance width="261"/>
  <unicode hex="0237"/>
  <anchor x="131" y="-12" name="bottom"/>
  <anchor x="131" y="553" name="top"/>
  <outline>
    <contour>
      <point x="185" y="489" type="line"/>
      <point x="77" y="489" type="line"/>
      <point x="77" y="1" type="line" smooth="yes"/>
      <point x="77" y="-61"/>
      <point x="60" y="-106"/>
      <point x="21" y="-154" type="curve"/>
      <point x="81" y="-201" type="line"/>
      <point x="145" y="-158"/>
      <point x="185" y="-82"/>
      <point x="185" y="1" type="curve" smooth="yes"/>
    </contour>
  </outline>
</glyph>
<glyph name="schwa" format="2">
  <advance width="536.94118"/>
  <unicode hex="0259"/>
  <outline>
    <contour>
      <point x="259" y="-12" type="curve" smooth="yes"/>
      <point x="416" y="-12"/>
      <point x="483" y="51"/>
      <point x="483" y="242" type="curve" smooth="yes"/>
      <point x="483" y="430"/>
      <point x="418" y="499"/>
      <point x="250" y="499" type="curve" smooth="yes"/>
      <point x="194" y="499"/>
      <point x="106" y="491"/>
      <point x="61" y="472" type="curve"/>
      <point x="70" y="415" type="line"/>
      <point x="120" y="422"/>
      <point x="187" y="427"/>
      <point x="239" y="427" type="curve" smooth="yes"/>
      <point x="351" y="427"/>
      <point x="394" y="394"/>
      <point x="394" y="238" type="curve" smooth="yes"/>
      <point x="394" y="99"/>
      <point x="361" y="60"/>
      <point x="255" y="60" type="curve" smooth="yes"/>
      <point x="168" y="60"/>
      <point x="136" y="85"/>
      <point x="135" y="147" type="curve" smooth="yes"/>
      <point x="135" y="184"/>
      <point x="144" y="219"/>
      <point x="188" y="219" type="curve" smooth="yes"/>
      <point x="450" y="219" type="line"/>
      <point x="450" y="285" type="line"/>
      <point x="166" y="285" type="line" smooth="yes"/>
      <point x="85" y="285"/>
      <point x="49" y="235"/>
      <point x="50" y="147" type="curve" smooth="yes"/>
      <point x="50" y="42"/>
      <point x="112" y="-12"/>
    </contour>
  </outline>
</glyph>
<glyph name="primemod" format="2">
  <advance width="259.07059"/>
  <unicode hex="02B9"/>
  <anchor x="142" y="544" name="_top"/>
  <outline>
    <contour>
      <point x="200" y="754" type="line"/>
      <point x="131" y="754" type="line"/>
      <point x="79" y="539" type="line"/>
      <point x="137" y="539" type="line"/>
    </contour>
  </outline>
</glyph>
<glyph name="doubleprimemod" format="2">
  <advance width="409"/>
  <unicode hex="02BA"/>
  <anchor x="180" y="540" name="_top"/>
  <outline>
    <contour>
      <point x="356" y="757" type="line"/>
      <point x="270" y="757" type="line"/>
      <point x="219" y="540" type="line"/>
      <point x="291" y="540" type="line"/>
    </contour>
    <contour>
      <point x="216" y="757" type="line"/>
      <point x="130" y="757" type="line"/>
      <point x="78" y="540" type="line"/>
      <point x="151" y="540" type="line"/>
    </contour>
  </outline>
</glyph>
<glyph name="commaturnedmod" format="2">
  <advance width="227.69412"/>
  <unicode hex="02BB"/>
  <anchor x="111" y="552" name="_top"/>
  <outline>
    <contour>
      <point x="100" y="540" type="curve" smooth="yes"/>
      <point x="126" y="540" type="line" smooth="yes"/>
      <point x="148" y="540"/>
      <point x="158" y="548"/>
      <point x="158" y="572" type="curve" smooth="yes"/>
      <point x="159" y="630" type="line" smooth="yes"/>
      <point x="159" y="647"/>
      <point x="150" y="658"/>
      <point x="135" y="658" type="curve"/>
      <point x="135" y="707"/>
      <point x="138" y="737"/>
      <point x="145" y="778" type="curve"/>
      <point x="104" y="789" type="line"/>
      <point x="83" y="745"/>
      <point x="69" y="693"/>
      <point x="69" y="636" type="curve" smooth="yes"/>
      <point x="70" y="572" type="line" smooth="yes"/>
      <point x="70" y="548"/>
      <point x="77" y="540"/>
    </contour>
  </outline>
</glyph>
<glyph name="ringhalfright" format="2">
  <advance width="182"/>
  <unicode hex="02BE"/>
  <anchor x="86" y="547" name="_top"/>
  <outline>
    <contour>
      <point x="84" y="646" type="curve" smooth="yes"/>
      <point x="84" y="611"/>
      <point x="60" y="591"/>
      <point x="30" y="591" type="curve"/>
      <point x="30" y="538" type="line"/>
      <point x="92" y="538"/>
      <point x="141" y="584"/>
      <point x="141" y="646" type="curve" smooth="yes"/>
      <point x="141" y="708"/>
      <point x="91" y="755"/>
      <point x="30" y="755" type="curve"/>
      <point x="30" y="702" type="line"/>
      <point x="61" y="702"/>
      <point x="84" y="681"/>
    </contour>
  </outline>
</glyph>
<glyph name="ringhalfleft" format="2">
  <advance width="183.08235"/>
  <unicode hex="02BF"/>
  <anchor x="97" y="552" name="_top"/>
  <outline>
    <contour>
      <point x="150" y="705" type="curve"/>
      <point x="150" y="749" type="line"/>
      <point x="92" y="749"/>
      <point x="43" y="703"/>
      <point x="43" y="644" type="curve" smooth="yes"/>
      <point x="43" y="584"/>
      <point x="91" y="539"/>
      <point x="150" y="539" type="curve"/>
      <point x="150" y="583" type="line"/>
      <point x="117" y="583"/>
      <point x="91" y="606"/>
      <point x="91" y="644" type="curve" smooth="yes"/>
      <point x="91" y="681"/>
      <point x="116" y="705"/>
    </contour>
  </outline>
</glyph>
<glyph name="circumflex" format="2">
  <advance width="419.73661"/>
  <unicode hex="02C6"/>
  <anchor x="211" y="551" name="_top"/>
  <outline>
    <contour>
      <point x="241" y="713" type="line"/>
      <point x="180" y="713" type="line"/>
      <point x="48" y="586" type="line"/>
      <point x="77" y="549" type="line"/>
      <point x="207" y="646" type="line"/>
      <point x="215" y="646" type="line"/>
      <point x="344" y="549" type="line"/>
      <point x="374" y="586" type="line"/>
    </contour>
  </outline>
</glyph>
<glyph name="caron" format="2">
  <advance width="430.026"/>
  <unicode hex="02C7"/>
  <anchor x="215" y="541" name="_top"/>
  <outline>
    <contour>
      <point x="349" y="732" type="line"/>
      <point x="220" y="650" type="line"/>
      <point x="212" y="650" type="line"/>
      <point x="82" y="732" type="line"/>
      <point x="47" y="686" type="line"/>
      <point x="192" y="555" type="line"/>
      <point x="240" y="555" type="line"/>
      <point x="386" y="686" type="line"/>
    </contour>
  </outline>
</glyph>
<glyph name="verticallinemod" format="2">
  <advance width="191"/>
  <unicode hex="02C8"/>
  <anchor x="96" y="551" name="_top"/>
  <outline>
    <contour>
      <point x="55" y="703" type="line"/>
      <point x="55" y="569" type="line"/>
      <point x="136" y="569" type="line"/>
      <point x="136" y="703" type="line"/>
    </contour>
  </outline>
</glyph>
<glyph name="firsttonechinese" format="2">
  <advance width="400"/>
  <unicode hex="02C9"/>
  <anchor x="200" y="557" name="_top"/>
  <outline>
    <contour>
      <point x="339" y="672" type="line"/>
      <point x="61" y="672" type="line"/>
      <point x="61" y="609" type="line"/>
      <point x="339" y="609" type="line"/>
    </contour>
  </outline>
</glyph>
<glyph name="secondtonechinese" format="2">
  <advance width="314.2"/>
  <unicode hex="02CA"/>
  <anchor x="120" y="544" name="_top"/>
  <outline>
    <contour>
      <point x="221" y="731" type="line"/>
      <point x="49" y="584" type="line"/>
      <point x="78" y="545" type="line"/>
      <point x="270" y="665" type="line"/>
    </contour>
  </outline>
</glyph>
<glyph name="fourthtonechinese" format="2">
  <advance width="314.2"/>
  <unicode hex="02CB"/>
  <anchor x="200" y="544" name="_top"/>
  <outline>
    <contour>
      <point x="85" y="723" type="line"/>
      <point x="36" y="658" type="line"/>
      <point x="228" y="538" type="line"/>
      <point x="257" y="577" type="line"/>
    </contour>
  </outline>
</glyph>
<glyph name="verticallinelowmod" format="2">
  <advance width="191.81176"/>
  <unicode hex="02CC"/>
  <anchor x="95" y="0" name="_bottom"/>
  <outline>
    <contour>
      <point x="128" y="-176" type="line"/>
      <point x="128" y="-52" type="line"/>
      <point x="63" y="-52" type="line"/>
      <point x="63" y="-176" type="line"/>
    </contour>
  </outline>
</glyph>
<glyph name="breve" format="2">
  <advance width="374.50588"/>
  <unicode hex="02D8"/>
  <anchor x="188" y="547" name="_top"/>
  <outline>
    <contour>
      <point x="294" y="696" type="line"/>
      <point x="294" y="649"/>
      <point x="255" y="621"/>
      <point x="189" y="621" type="curve" smooth="yes"/>
      <point x="119" y="621"/>
      <point x="81" y="649"/>
      <point x="82" y="696" type="curve"/>
      <point x="38" y="690" type="line"/>
      <point x="33" y="612"/>
      <point x="92" y="558"/>
      <point x="188" y="558" type="curve" smooth="yes"/>
      <point x="285" y="558"/>
      <point x="343" y="612"/>
      <point x="338" y="690" type="curve"/>
    </contour>
  </outline>
</glyph>
<glyph name="dotaccent" format="2">
  <advance width="220.68452"/>
  <unicode hex="02D9"/>
  <anchor x="110" y="552" name="_top"/>
  <outline>
    <contour>
      <point x="124" y="685" type="curve" smooth="yes"/>
      <point x="97" y="685" type="line" smooth="yes"/>
      <point x="80" y="685"/>
      <point x="71" y="676"/>
      <point x="71" y="660" type="curve" smooth="yes"/>
      <point x="71" y="603" type="line" smooth="yes"/>
      <point x="71" y="586"/>
      <point x="80" y="577"/>
      <point x="97" y="577" type="curve" smooth="yes"/>
      <point x="124" y="577" type="line" smooth="yes"/>
      <point x="141" y="577"/>
      <point x="150" y="586"/>
      <point x="150" y="603" type="curve" smooth="yes"/>
      <point x="150" y="660" type="line" smooth="yes"/>
      <point x="150" y="676"/>
      <point x="141" y="685"/>
    </contour>
  </outline>
</glyph>
<glyph name="ring" format="2">
  <advance width="300.48452"/>
  <unicode hex="02DA"/>
  <anchor x="150" y="552" name="_top"/>
  <outline>
    <contour>
      <point x="150" y="749" type="curve" smooth="yes"/>
      <point x="92" y="749"/>
      <point x="43" y="703"/>
      <point x="43" y="644" type="curve" smooth="yes"/>
      <point x="43" y="584"/>
      <point x="91" y="539"/>
      <point x="150" y="539" type="curve" smooth="yes"/>
      <point x="209" y="539"/>
      <point x="257" y="585"/>
      <point x="257" y="644" type="curve" smooth="yes"/>
      <point x="257" y="703"/>
      <point x="208" y="749"/>
    </contour>
    <contour>
      <point x="150" y="705" type="curve" smooth="yes"/>
      <point x="184" y="705"/>
      <point x="210" y="681"/>
      <point x="210" y="644" type="curve" smooth="yes"/>
      <point x="210" y="606"/>
      <point x="184" y="583"/>
      <point x="150" y="583" type="curve" smooth="yes"/>
      <point x="117" y="583"/>
      <point x="91" y="606"/>
      <point x="91" y="644" type="curve" smooth="yes"/>
      <point x="91" y="681"/>
      <point x="116" y="705"/>
    </contour>
  </outline>
</glyph>
<glyph name="ogonek" format="2">
  <advance width="252.02113"/>
  <unicode hex="02DB"/>
  <anchor x="182" y="0" name="_ogonek"/>
  <outline>
    <contour>
      <point x="144" y="2" type="line"/>
      <point x="87" y="-43"/>
      <point x="59" y="-84"/>
      <point x="48" y="-117" type="curve" smooth="yes"/>
      <point x="23" y="-187"/>
      <point x="71" y="-246"/>
      <point x="196" y="-193" type="curve"/>
      <point x="186" y="-158" type="line"/>
      <point x="123" y="-178"/>
      <point x="88" y="-163"/>
      <point x="108" y="-114" type="curve" smooth="yes"/>
      <point x="125" y="-69"/>
      <point x="152" y="-34"/>
      <point x="182" y="0" type="curve"/>
    </contour>
  </outline>
</glyph>
<glyph name="tilde" format="2">
  <advance width="419.42353"/>
  <unicode hex="02DC"/>
  <anchor x="210" y="554" name="_top"/>
  <outline>
    <contour>
      <point x="130" y="699" type="curve" smooth="yes"/>
      <point x="81" y="703"/>
      <point x="44" y="665"/>
      <point x="52" y="585" type="curve"/>
      <point x="92" y="585" type="line"/>
      <point x="92" y="625"/>
      <point x="102" y="643"/>
      <point x="139" y="639" type="curve" smooth="yes"/>
      <point x="188" y="634"/>
      <point x="222" y="588"/>
      <point x="290" y="582" type="curve" smooth="yes"/>
      <point x="342" y="578"/>
      <point x="376" y="619"/>
      <point x="368" y="694" type="curve"/>
      <point x="328" y="694" type="line"/>
      <point x="328" y="656"/>
      <point x="317" y="639"/>
      <point x="279" y="644" type="curve" smooth="yes"/>
      <point x="223" y="651"/>
      <point x="192" y="694"/>
    </contour>
  </outline>
</glyph>
<glyph name="hungarumlaut" format="2">
  <advance width="454.70492"/>
  <unicode hex="02DD"/>
  <anchor x="188" y="544" name="_top"/>
  <outline>
    <contour>
      <point x="159" y="741" type="line"/>
      <point x="49" y="567" type="line"/>
      <point x="87" y="539" type="line"/>
      <point x="221" y="699" type="line"/>
    </contour>
    <contour>
      <point x="323" y="741" type="line"/>
      <point x="213" y="567" type="line"/>
      <point x="251" y="539" type="line"/>
      <point x="385" y="699" type="line"/>
    </contour>
  </outline>
</glyph>
<glyph name="acutecomb" format="2">
  <unicode hex="0301"/>
  <anchor x="-238" y="544" name="_top"/>
  <outline>
    <contour>
      <point x="-131" y="723" type="line"/>
      <point x="-304" y="577" type="line"/>
      <point x="-274" y="538" type="line"/>
      <point x="-83" y="658" type="line"/>
    </contour>
  </outline>
</glyph>
<glyph name="circumflexcomb" format="2">
  <unicode hex="0302"/>
  <anchor x="-216" y="551" name="_top"/>
  <outline>
    <contour>
      <point x="-186" y="713" type="line"/>
      <point x="-248" y="713" type="line"/>
      <point x="-379" y="586" type="line"/>
      <point x="-350" y="549" type="line"/>
      <point x="-221" y="646" type="line"/>
      <point x="-213" y="646" type="line"/>
      <point x="-83" y="549" type="line"/>
      <point x="-53" y="586" type="line"/>
    </contour>
  </outline>
</glyph>
<glyph name="tildecomb" format="2">
  <unicode hex="0303"/>
  <anchor x="-221" y="554" name="_top"/>
  <outline>
    <contour>
      <point x="-301" y="699" type="curve" smooth="yes"/>
      <point x="-350" y="703"/>
      <point x="-388" y="665"/>
      <point x="-379" y="585" type="curve"/>
      <point x="-339" y="585" type="line"/>
      <point x="-339" y="625"/>
      <point x="-329" y="643"/>
      <point x="-292" y="639" type="curve" smooth="yes"/>
      <point x="-243" y="634"/>
      <point x="-209" y="588"/>
      <point x="-141" y="582" type="curve" smooth="yes"/>
      <point x="-89" y="578"/>
      <point x="-55" y="619"/>
      <point x="-64" y="694" type="curve"/>
      <point x="-103" y="694" type="line"/>
      <point x="-103" y="656"/>
      <point x="-114" y="639"/>
      <point x="-152" y="644" type="curve" smooth="yes"/>
      <point x="-208" y="651"/>
      <point x="-239" y="694"/>
    </contour>
  </outline>
</glyph>
<glyph name="macroncomb" format="2">
  <unicode hex="0304"/>
  <anchor x="-205" y="557" name="_top"/>
  <outline>
    <contour>
      <point x="-66" y="672" type="line"/>
      <point x="-345" y="672" type="line"/>
      <point x="-345" y="609" type="line"/>
      <point x="-66" y="609" type="line"/>
    </contour>
  </outline>
</glyph>
<glyph name="brevecomb" format="2">
  <unicode hex="0306"/>
  <anchor x="-193" y="544" name="_top"/>
  <outline>
    <contour>
      <point x="-92" y="700" type="line"/>
      <point x="-92" y="657"/>
      <point x="-128" y="632"/>
      <point x="-193" y="632" type="curve" smooth="yes"/>
      <point x="-261" y="632"/>
      <point x="-296" y="657"/>
      <point x="-296" y="700" type="curve"/>
      <point x="-349" y="692" type="line"/>
      <point x="-356" y="612"/>
      <point x="-295" y="554"/>
      <point x="-193" y="554" type="curve" smooth="yes"/>
      <point x="-92" y="554"/>
      <point x="-32" y="612"/>
      <point x="-39" y="692" type="curve"/>
    </contour>
  </outline>
</glyph>
<glyph name="dotaccentcomb" format="2">
  <unicode hex="0307"/>
  <anchor x="-122" y="551" name="_top"/>
  <outline>
    <contour>
      <point x="-105" y="689" type="curve" smooth="yes"/>
      <point x="-139" y="689" type="line" smooth="yes"/>
      <point x="-159" y="689"/>
      <point x="-170" y="678"/>
      <point x="-170" y="658" type="curve" smooth="yes"/>
      <point x="-170" y="603" type="line" smooth="yes"/>
      <point x="-170" y="583"/>
      <point x="-159" y="572"/>
      <point x="-139" y="572" type="curve" smooth="yes"/>
      <point x="-105" y="572" type="line" smooth="yes"/>
      <point x="-85" y="572"/>
      <point x="-74" y="583"/>
      <point x="-74" y="603" type="curve" smooth="yes"/>
      <point x="-74" y="658" type="line" smooth="yes"/>
      <point x="-74" y="678"/>
      <point x="-85" y="689"/>
    </contour>
  </outline>
</glyph>
<glyph name="dieresiscomb" format="2">
  <unicode hex="0308"/>
  <anchor x="-218" y="557" name="_top"/>
  <outline>
    <contour>
      <point x="-115" y="693" type="curve" smooth="yes"/>
      <point x="-144" y="693" type="line" smooth="yes"/>
      <point x="-160" y="693"/>
      <point x="-168" y="684"/>
      <point x="-168" y="669" type="curve" smooth="yes"/>
      <point x="-168" y="614" type="line" smooth="yes"/>
      <point x="-168" y="598"/>
      <point x="-160" y="590"/>
      <point x="-144" y="590" type="curve" smooth="yes"/>
      <point x="-115" y="590" type="line" smooth="yes"/>
      <point x="-100" y="590"/>
      <point x="-92" y="598"/>
      <point x="-92" y="614" type="curve" smooth="yes"/>
      <point x="-92" y="669" type="line" smooth="yes"/>
      <point x="-92" y="684"/>
      <point x="-100" y="693"/>
    </contour>
    <contour>
      <point x="-292" y="693" type="curve" smooth="yes"/>
      <point x="-321" y="693" type="line" smooth="yes"/>
      <point x="-337" y="693"/>
      <point x="-345" y="684"/>
      <point x="-345" y="669" type="curve" smooth="yes"/>
      <point x="-345" y="614" type="line" smooth="yes"/>
      <point x="-345" y="598"/>
      <point x="-337" y="590"/>
      <point x="-321" y="590" type="curve" smooth="yes"/>
      <point x="-292" y="590" type="line" smooth="yes"/>
      <point x="-277" y="590"/>
      <point x="-269" y="598"/>
      <point x="-269" y="614" type="curve" smooth="yes"/>
      <point x="-269" y="669" type="line" smooth="yes"/>
      <point x="-269" y="684"/>
      <point x="-277" y="693"/>
    </contour>
  </outline>
</glyph>
<glyph name="hookabovecomb" format="2">
  <unicode hex="0309"/>
  <anchor x="-150" y="562" name="_top"/>
  <outline>
    <contour>
      <point x="-173" y="611" type="curve"/>
      <point x="-163" y="568" type="line"/>
      <point x="-97" y="581"/>
      <point x="-58" y="625"/>
      <point x="-58" y="681" type="curve" smooth="yes"/>
      <point x="-58" y="756"/>
      <point x="-124" y="787"/>
      <point x="-205" y="763" type="curve"/>
      <point x="-195" y="715" type="line"/>
      <point x="-150" y="728"/>
      <point x="-116" y="715"/>
      <point x="-116" y="678" type="curve" smooth="yes"/>
      <point x="-116" y="647"/>
      <point x="-131" y="623"/>
    </contour>
  </outline>
</glyph>
<glyph name="ringcomb" format="2">
  <unicode hex="030A"/>
  <anchor x="-165" y="552" name="_top"/>
  <outline>
    <contour>
      <point x="-165" y="742" type="curve" smooth="yes"/>
      <point x="-224" y="742"/>
      <point x="-272" y="696"/>
      <point x="-272" y="637" type="curve" smooth="yes"/>
      <point x="-272" y="577"/>
      <point x="-225" y="532"/>
      <point x="-165" y="532" type="curve" smooth="yes"/>
      <point x="-106" y="532"/>
      <point x="-58" y="578"/>
      <point x="-58" y="637" type="curve" smooth="yes"/>
      <point x="-58" y="696"/>
      <point x="-107" y="742"/>
    </contour>
    <contour>
      <point x="-165" y="698" type="curve" smooth="yes"/>
      <point x="-132" y="698"/>
      <point x="-105" y="674"/>
      <point x="-105" y="637" type="curve" smooth="yes"/>
      <point x="-105" y="599"/>
      <point x="-132" y="576"/>
      <point x="-165" y="576" type="curve" smooth="yes"/>
      <point x="-198" y="576"/>
      <point x="-225" y="599"/>
      <point x="-225" y="637" type="curve" smooth="yes"/>
      <point x="-225" y="674"/>
      <point x="-199" y="698"/>
    </contour>
  </outline>
</glyph>
<glyph name="hungarumlautcomb" format="2">
  <unicode hex="030B"/>
  <anchor x="-275" y="540" name="_top"/>
  <outline>
    <contour>
      <point x="-310" y="741" type="line"/>
      <point x="-420" y="561" type="line"/>
      <point x="-374" y="526" type="line"/>
      <point x="-233" y="688" type="line"/>
    </contour>
    <contour>
      <point x="-137" y="741" type="line"/>
      <point x="-246" y="561" type="line"/>
      <point x="-201" y="526" type="line"/>
      <point x="-60" y="688" type="line"/>
    </contour>
  </outline>
</glyph>
<glyph name="caroncomb" format="2">
  <unicode hex="030C"/>
  <anchor x="-217" y="551" name="_top"/>
  <outline>
    <contour>
      <point x="-83" y="724" type="line"/>
      <point x="-212" y="637" type="line"/>
      <point x="-220" y="637" type="line"/>
      <point x="-350" y="724" type="line"/>
      <point x="-379" y="688" type="line"/>
      <point x="-236" y="560" type="line"/>
      <point x="-196" y="560" type="line"/>
      <point x="-53" y="688" type="line"/>
    </contour>
  </outline>
</glyph>
<glyph name="dblgravecomb" format="2">
  <unicode hex="030F"/>
  <anchor x="-201" y="544" name="_top"/>
  <outline>
    <contour>
      <point x="-185" y="756" type="line"/>
      <point x="-247" y="713" type="line"/>
      <point x="-112" y="554" type="line"/>
      <point x="-74" y="582" type="line"/>
    </contour>
    <contour>
      <point x="-349" y="756" type="line"/>
      <point x="-411" y="713" type="line"/>
      <point x="-276" y="554" type="line"/>
      <point x="-239" y="582" type="line"/>
    </contour>
  </outline>
</glyph>
<glyph name="breveinvertedcomb" format="2">
  <unicode hex="0311"/>
  <anchor x="-222" y="547" name="_top"/>
  <outline>
    <contour>
      <point x="-330" y="565" type="line"/>
      <point x="-330" y="613"/>
      <point x="-291" y="640"/>
      <point x="-224" y="640" type="curve" smooth="yes"/>
      <point x="-155" y="640"/>
      <point x="-117" y="613"/>
      <point x="-117" y="565" type="curve"/>
      <point x="-73" y="572" type="line"/>
      <point x="-68" y="650"/>
      <point x="-127" y="704"/>
      <point x="-224" y="704" type="curve" smooth="yes"/>
      <point x="-320" y="704"/>
      <point x="-378" y="650"/>
      <point x="-373" y="572" type="curve"/>
    </contour>
  </outline>
</glyph>
<glyph name="commaturnedabovecomb" format="2">
  <unicode hex="0312"/>
  <anchor x="-131" y="544" name="_top"/>
  <outline>
    <contour>
      <point x="-140" y="549" type="curve" smooth="yes"/>
      <point x="-122" y="549" type="line" smooth="yes"/>
      <point x="-106" y="549"/>
      <point x="-99" y="555"/>
      <point x="-99" y="572" type="curve" smooth="yes"/>
      <point x="-99" y="615" type="line" smooth="yes"/>
      <point x="-99" y="627"/>
      <point x="-105" y="634"/>
      <point x="-115" y="634" type="curve"/>
      <point x="-115" y="670"/>
      <point x="-113" y="693"/>
      <point x="-109" y="722" type="curve"/>
      <point x="-137" y="730" type="line"/>
      <point x="-153" y="697"/>
      <point x="-162" y="660"/>
      <point x="-162" y="619" type="curve" smooth="yes"/>
      <point x="-163" y="572" type="line" smooth="yes"/>
      <point x="-163" y="555"/>
      <point x="-157" y="549"/>
    </contour>
  </outline>
</glyph>
<glyph name="horncomb" format="2">
  <unicode hex="031B"/>
  <anchor x="-191" y="561" name="_top"/>
  <outline>
    <contour>
      <point x="-246" y="405" type="line"/>
      <point x="-174" y="405"/>
      <point x="-104" y="460"/>
      <point x="-102" y="540" type="curve"/>
      <point x="-163" y="545" type="line"/>
      <point x="-167" y="491"/>
      <point x="-200" y="453"/>
      <point x="-250" y="447" type="curve"/>
    </contour>
  </outline>
</glyph>
<glyph name="dotbelowcomb" format="2">
  <unicode hex="0323"/>
  <anchor x="-113" y="0" name="_bottom"/>
  <outline>
    <contour>
      <point x="-95" y="-47" type="curve" smooth="yes"/>
      <point x="-129" y="-47" type="line" smooth="yes"/>
      <point x="-149" y="-47"/>
      <point x="-160" y="-58"/>
      <point x="-160" y="-78" type="curve" smooth="yes"/>
      <point x="-160" y="-133" type="line" smooth="yes"/>
      <point x="-160" y="-153"/>
      <point x="-149" y="-164"/>
      <point x="-129" y="-164" type="curve" smooth="yes"/>
      <point x="-95" y="-164" type="line" smooth="yes"/>
      <point x="-75" y="-164"/>
      <point x="-64" y="-153"/>
      <point x="-64" y="-133" type="curve" smooth="yes"/>
      <point x="-64" y="-78" type="line" smooth="yes"/>
      <point x="-64" y="-58"/>
      <point x="-75" y="-47"/>
    </contour>
  </outline>
</glyph>
<glyph name="dieresisbelowcomb" format="2">
  <unicode hex="0324"/>
  <anchor x="-214" y="0" name="_bottom"/>
  <outline>
    <contour>
      <point x="-110" y="-54" type="curve" smooth="yes"/>
      <point x="-138" y="-54" type="line" smooth="yes"/>
      <point x="-155" y="-54"/>
      <point x="-162" y="-63"/>
      <point x="-162" y="-78" type="curve" smooth="yes"/>
      <point x="-162" y="-133" type="line" smooth="yes"/>
      <point x="-162" y="-149"/>
      <point x="-155" y="-157"/>
      <point x="-138" y="-157" type="curve" smooth="yes"/>
      <point x="-110" y="-157" type="line" smooth="yes"/>
      <point x="-95" y="-157"/>
      <point x="-86" y="-149"/>
      <point x="-86" y="-133" type="curve" smooth="yes"/>
      <point x="-86" y="-78" type="line" smooth="yes"/>
      <point x="-86" y="-63"/>
      <point x="-95" y="-54"/>
    </contour>
    <contour>
      <point x="-287" y="-54" type="curve" smooth="yes"/>
      <point x="-316" y="-54" type="line" smooth="yes"/>
      <point x="-332" y="-54"/>
      <point x="-339" y="-63"/>
      <point x="-339" y="-78" type="curve" smooth="yes"/>
      <point x="-339" y="-133" type="line" smooth="yes"/>
      <point x="-339" y="-149"/>
      <point x="-332" y="-157"/>
      <point x="-316" y="-157" type="curve" smooth="yes"/>
      <point x="-287" y="-157" type="line" smooth="yes"/>
      <point x="-271" y="-157"/>
      <point x="-264" y="-149"/>
      <point x="-264" y="-133" type="curve" smooth="yes"/>
      <point x="-264" y="-78" type="line" smooth="yes"/>
      <point x="-264" y="-63"/>
      <point x="-271" y="-54"/>
    </contour>
  </outline>
</glyph>
<glyph name="cedillacomb" format="2">
  <unicode hex="0327"/>
  <anchor x="-103" y="0" name="_bottom"/>
  <outline>
    <contour>
      <point x="-146" y="-43" type="curve"/>
      <point x="-155" y="-83" type="line"/>
      <point x="-107" y="-84"/>
      <point x="-95" y="-91"/>
      <point x="-96" y="-115" type="curve" smooth="yes"/>
      <point x="-97" y="-156"/>
      <point x="-134" y="-186"/>
      <point x="-188" y="-184" type="curve"/>
      <point x="-202" y="-229" type="line"/>
      <point x="-107" y="-242"/>
      <point x="-37" y="-193"/>
      <point x="-34" y="-108" type="curve" smooth="yes"/>
      <point x="-33" y="-48"/>
      <point x="-69" y="-36"/>
    </contour>
  </outline>
</glyph>
